<?xml version="1.0" encoding="UTF-8" standalone="no"?><svg xmlns="http://www.w3.org/2000/svg" xmlns:xlink="http://www.w3.org/1999/xlink" fill="#000000" height="1379.6" preserveAspectRatio="xMidYMid meet" version="1" viewBox="0.0 0.0 1629.4 1379.6" width="1629.4" zoomAndPan="magnify"><defs><clipPath id="a"><path d="M 0 0 L 1629.359375 0 L 1629.359375 1379.558594 L 0 1379.558594 Z M 0 0"/></clipPath></defs><g><g id="change1_1"><path d="M 470.457031 1067.878906 C 450.402344 1095.800781 476.238281 1136.398438 508.378906 1123.238281 C 521.03125 1118.050781 524.335938 1103.609375 538.390625 1093.019531 C 548.144531 1050.460938 488.242188 1043.140625 470.457031 1067.878906 Z M 613.847656 1083.308594 C 627.230469 1074.679688 631.386719 1060.269531 635.789062 1046.75 C 602.570312 995.226562 553.292969 1081.550781 613.847656 1083.308594 Z M 800.367188 1118.210938 C 795.359375 1115.070312 793.476562 1110.769531 785.503906 1108.761719 C 782.769531 1111.5 782.847656 1121.699219 778.101562 1119.109375 C 767.519531 1107.269531 778.632812 1081.929688 783.921875 1069.800781 C 782.160156 1066.679688 779.179688 1064.050781 773.601562 1062.398438 C 747.847656 1091.589844 765.347656 1162.230469 800.367188 1118.210938 Z M 826.652344 1078.109375 C 824.945312 1081.910156 823.242188 1085.679688 821.539062 1089.46875 C 831.09375 1092.128906 831.800781 1098.140625 834.355469 1103.449219 C 829.855469 1119.820312 817.683594 1115.839844 813.207031 1132.179688 C 833.039062 1141.410156 840.808594 1118.800781 849.808594 1099.5 C 845.285156 1089.058594 835.835938 1076.71875 826.652344 1078.109375 Z M 557.332031 953.976562 C 534.152344 924.046875 477.25 955.8125 493.128906 993.359375 C 527.929688 1032.941406 579.292969 982.320312 557.332031 953.976562 Z M 1056.648438 1028.71875 C 1078.039062 1040.078125 1099.941406 999.726562 1076.320312 991.132812 C 1048.761719 981.117188 1041.339844 1020.601562 1056.648438 1028.71875 Z M 439.957031 614.066406 C 444.035156 618.195312 445.066406 623.445312 453.808594 625.789062 C 457.640625 624.273438 460.015625 618.910156 462.246094 613.179688 C 460.722656 608.734375 453.382812 606.484375 447.359375 603.734375 C 445.820312 609.625 440.996094 606.800781 439.957031 614.066406 Z M 1043.410156 948.957031 C 1114.851562 949.695312 1087.460938 835.851562 1032.660156 875.78125 C 1018.601562 886.015625 1011.710938 901.273438 1012.179688 921.21875 C 989.121094 930.796875 991.777344 967.160156 1021 974.386719 C 1023.710938 970.007812 1029.109375 972.597656 1033.171875 971.679688 C 1036.570312 964.105469 1039.980469 956.519531 1043.410156 948.957031 Z M 457.601562 581.023438 C 465.449219 585.175781 470.945312 583.101562 474.066406 574.777344 C 468.570312 565.054688 454.722656 570.316406 457.601562 581.023438 Z M 1037.910156 645.824219 C 1029.699219 618.394531 984.746094 587.449219 954.003906 583.394531 C 837.703125 567.992188 657.0625 583.507812 555.179688 594.945312 C 537.070312 620.214844 508.601562 618.230469 495.96875 647.515625 C 462.164062 725.699219 600.6875 782.378906 664.382812 758.972656 C 695.773438 795.679688 660.429688 844.503906 669.53125 887.023438 C 676.0625 917.585938 713.882812 941.664062 748.902344 947.398438 C 842.910156 962.796875 936.277344 876.324219 945.707031 765.515625 C 995.816406 766.597656 1054.28125 700.371094 1037.910156 645.824219 Z M 420.148438 342.738281 C 420.816406 365.101562 429.414062 384.445312 445.902344 400.808594 C 449.003906 399.039062 451.640625 396.082031 453.300781 390.488281 C 441.054688 376.078125 437.992188 348.800781 420.148438 342.738281 Z M 559.296875 391.796875 C 522.632812 406.984375 487.773438 488.796875 517.625 520.613281 C 546.703125 551.570312 626.378906 549 650.226562 517.53125 C 687.984375 467.691406 649.476562 404.214844 620.761719 394.910156 C 595.066406 386.578125 574.6875 385.417969 559.296875 391.796875 Z M 1071.128906 584.265625 C 1073.601562 582.5625 1080.5 588.832031 1084.308594 579.273438 C 1079.890625 574.039062 1080.890625 566.753906 1072.5 563.015625 C 1067.859375 571.679688 1066.261719 579.203125 1071.128906 584.265625 Z M 1099.558594 569.738281 C 1105.75 574.519531 1108 568.832031 1114.199219 573.605469 C 1119.410156 564.109375 1113.320312 558.875 1106.710938 553.84375 C 1102.109375 555.40625 1097.671875 565.242188 1099.558594 569.738281 Z M 724.609375 370.660156 C 702.566406 389.976562 690.378906 441.886719 697.292969 467.683594 C 707.25 504.851562 754.820312 524.375 784.289062 523.296875 C 862.542969 520.445312 917.503906 385.355469 815.539062 356.960938 C 785.730469 351.441406 747.257812 350.820312 724.609375 370.660156 Z M 888.867188 461.089844 C 886.472656 483.234375 901.949219 523.25 918.574219 534.625 C 966.613281 567.539062 1051.660156 534.535156 1056.769531 476.664062 C 1059.589844 444.527344 1043.609375 404.285156 1013.191406 391.421875 C 961.730469 369.640625 895.292969 401.445312 888.867188 461.089844 Z M 620.195312 214.261719 C 615.914062 220.910156 623.601562 223.019531 621.898438 228.679688 C 636.457031 225.691406 656.917969 238.21875 664.96875 218.039062 C 654.019531 208.628906 633.191406 212.800781 620.195312 214.261719 Z M 635.097656 169.039062 C 637.570312 180.261719 647.652344 174.628906 657.832031 179.289062 C 664.058594 173.820312 660.40625 170.691406 666.023438 161.121094 C 651.886719 153.640625 642.660156 159.109375 635.097656 169.039062 Z M 1062.078125 331.449219 C 1079.929688 334.191406 1092.988281 301.980469 1101.550781 286.371094 C 1099.28125 285.351562 1097 284.328125 1094.730469 283.300781 C 1083.898438 296.390625 1059.570312 314.949219 1062.078125 331.449219 Z M 767.316406 239.570312 C 758.757812 241.71875 760.339844 255.898438 757.074219 262.289062 C 750.789062 259.710938 754.214844 256.449219 747.988281 258.199219 C 749.894531 270.851562 745.109375 266.96875 737.523438 275.339844 C 697.882812 281.789062 659.679688 292.011719 611.515625 275.941406 C 609.953125 251.648438 594.90625 237.160156 591.113281 212.078125 C 582.171875 152.808594 622.792969 82.238281 672.917969 54.890625 C 742.699219 16.800781 843.808594 44.28125 909.203125 106.730469 C 912.167969 152.320312 941.410156 208.871094 905.128906 255.230469 C 883.574219 282.769531 848.996094 287.269531 822.59375 310.960938 C 848.347656 312.609375 882.863281 294.300781 905.796875 271.941406 C 922.769531 301.160156 961.199219 295.058594 1005.53125 311.421875 C 1021.300781 317.25 1031.96875 324.441406 1044.949219 321 C 1057.910156 297.410156 1042.171875 290.648438 1053.039062 272.710938 C 1066.871094 249.921875 1111.570312 263.019531 1122.621094 227.539062 C 1154.660156 246.460938 1140.820312 335.519531 1094.121094 351.359375 C 1095.261719 403.972656 1125.941406 449.011719 1133.570312 500.335938 C 1136.210938 518.171875 1128.679688 532.597656 1134.558594 552.71875 C 1213.949219 536.769531 1289.691406 484.796875 1335.761719 397.421875 C 1318.628906 383.339844 1313.640625 404.265625 1294.289062 392.390625 C 1281.390625 384.484375 1279.03125 364.449219 1282.839844 357.171875 C 1299.21875 325.851562 1318.589844 370.429688 1340.421875 374.929688 C 1354.140625 369.488281 1344.421875 355.039062 1359.53125 350.738281 C 1346.371094 323 1319.621094 258.28125 1383.210938 273.949219 C 1383.601562 299.320312 1357.75 328.988281 1382.601562 342 C 1401.488281 351.898438 1429.691406 326.28125 1449.769531 320.351562 C 1457.460938 328.761719 1456.011719 340.589844 1457.699219 351.261719 C 1441.308594 362.089844 1406.601562 368.21875 1425.859375 391.570312 C 1443.058594 397.203125 1456.640625 393.285156 1471.648438 393.078125 C 1481.890625 403.648438 1483.191406 417.609375 1471.160156 436.589844 C 1425.800781 442.257812 1402.109375 401.828125 1368.308594 458.566406 C 1351.578125 486.703125 1324.960938 510.453125 1300.898438 529.3125 C 1267.101562 555.824219 1232.769531 574.355469 1195.53125 599.335938 C 1175.578125 612.730469 1158.320312 620.3125 1155.058594 646.695312 C 1151.53125 675.105469 1163.519531 714.808594 1161.941406 734.519531 C 1252.050781 728.769531 1347.578125 737.214844 1429.738281 710.386719 C 1417.890625 692.382812 1391.101562 663.804688 1422.511719 641.523438 C 1453.558594 649.890625 1438.878906 675.171875 1454.410156 685.96875 C 1490.890625 711.332031 1518.449219 658.886719 1542.71875 635.582031 C 1555.710938 655.191406 1525.371094 666.699219 1517.699219 678.96875 C 1528.21875 720.378906 1573.421875 685.980469 1599.601562 691.296875 C 1597.148438 726.144531 1561.96875 713.496094 1545.28125 726.9375 C 1545.121094 749.355469 1573.671875 751.371094 1590.921875 752.984375 C 1594.761719 764.097656 1594.941406 776.589844 1586.929688 792.183594 C 1567.101562 797.445312 1549.640625 776.226562 1535.140625 779.761719 C 1536.238281 800.625 1564 830.917969 1527.5 839.183594 C 1497.421875 821.859375 1518.101562 787.707031 1474.128906 787.78125 C 1446.160156 787.824219 1403.980469 802.039062 1380.351562 813.851562 C 1314.46875 828.96875 1231.28125 798.289062 1166.320312 815.765625 C 1167.691406 839.882812 1160.878906 863.058594 1158.078125 888.59375 C 1152.890625 935.808594 1155.320312 988.296875 1147.191406 1034.019531 C 1144.351562 1049.929688 1135.179688 1064.289062 1134.539062 1080.238281 C 1133.679688 1101.28125 1143.238281 1123.449219 1141.53125 1143.53125 C 1148.691406 1151.5 1157.328125 1158.910156 1163.679688 1167.179688 C 1177.550781 1168.96875 1190.648438 1168.679688 1205.148438 1172.21875 C 1281.738281 1150.550781 1323.171875 1036.070312 1422.011719 1073.160156 C 1356.628906 1071.351562 1311.230469 1122.28125 1271.601562 1188.5 C 1226.480469 1213.160156 1163.28125 1167.269531 1117.679688 1160.109375 C 1099.101562 1198.738281 1063.121094 1199.808594 1031.851562 1217.089844 C 1028.96875 1235.140625 1021.769531 1254.820312 1027.28125 1269.679688 C 1051.699219 1269.949219 1064.351562 1257.039062 1087.269531 1263.929688 C 1112.71875 1271.570312 1127.238281 1296.089844 1151.328125 1303.738281 C 1173.109375 1286.351562 1242.070312 1310.230469 1226.300781 1337.539062 C 1216.351562 1354.75 1189.46875 1338.058594 1174.488281 1325.121094 C 1158.261719 1328.71875 1143.96875 1363.871094 1127.539062 1350.417969 C 1116.171875 1342.800781 1126.078125 1327.101562 1114.058594 1319.738281 C 1091.039062 1328.949219 1045.820312 1374.839844 1022.710938 1322.300781 C 1010.230469 1317.570312 1002.550781 1325.460938 994.074219 1331.25 C 963.996094 1336.449219 933.863281 1341.441406 898.175781 1331.769531 C 883.878906 1308.53125 906.667969 1259.75 882.4375 1245.398438 C 866.722656 1236.089844 831.230469 1257.429688 807.203125 1260.679688 C 792.117188 1262.730469 771.207031 1261.839844 750.503906 1265.191406 C 709.199219 1271.851562 670.445312 1277.070312 622.8125 1251.359375 C 613.96875 1273.140625 615.203125 1305.910156 595.617188 1323.839844 C 497.125 1340.679688 392.082031 1340.289062 286.128906 1337.371094 C 281.28125 1326.019531 269.03125 1317.46875 268.078125 1304.640625 C 276.898438 1294.917969 298.253906 1309.761719 304.417969 1321.039062 C 321.003906 1323.390625 328.105469 1300.667969 342.480469 1297.191406 C 361.175781 1302.058594 359.191406 1314.738281 372.46875 1321.640625 C 394.960938 1285.339844 416.820312 1272.378906 461.230469 1282.398438 C 470.292969 1284.441406 477.171875 1292.949219 483.945312 1292.628906 C 501.523438 1274.089844 519.917969 1244.390625 505.582031 1220.378906 C 499.519531 1219.320312 493.738281 1218.960938 486.378906 1214.46875 C 440.929688 1168.5 425.074219 1085.769531 414.023438 1023.308594 C 403.214844 962.28125 396.015625 900.726562 384.597656 846.039062 C 308.59375 840.398438 235.328125 834.621094 158.960938 837.265625 C 147.238281 866.820312 135.984375 907.671875 111.992188 917.210938 C 106.902344 905.046875 107.191406 894.929688 105.304688 889.601562 C 113.800781 869.847656 132.800781 850.171875 130.894531 832.820312 C 98.285156 816.296875 83.523438 846.988281 64.175781 865.601562 C 38.808594 830.800781 92.019531 818.484375 111.039062 810.179688 C 112.664062 795.75 109.277344 783.21875 103.902344 771.441406 C 77.011719 763.5 61.964844 786.742188 35.035156 778.667969 C 13.683594 726.199219 83.847656 738.597656 115.15625 746.457031 C 129.03125 721.253906 113.433594 698.78125 125.886719 680.226562 C 154.84375 689.351562 157.558594 708.421875 159.039062 727.957031 C 236.625 748.792969 303.261719 740.714844 376.242188 749.355469 C 383.808594 696.878906 378.191406 649.382812 381.355469 598.578125 C 301.195312 576.0625 219.53125 544.3125 152.148438 500.71875 C 131.078125 514.773438 113.675781 538.449219 82.9375 526.925781 C 82.101562 515.820312 93.175781 499.261719 99.320312 490.570312 C 114.164062 486.683594 129.859375 485.035156 143.40625 477.652344 C 143.242188 467.03125 148.191406 454.484375 147.625 444.023438 C 119.03125 429.890625 103.074219 449.058594 77.296875 442.378906 C 78.65625 398.796875 132.699219 436.808594 158.085938 426.871094 C 173.558594 400.210938 115.804688 369.171875 143.589844 343.800781 C 165.570312 359.339844 160.785156 385.023438 173.902344 403.925781 C 190.210938 405.390625 185.828125 372.289062 202.214844 359.308594 C 234.234375 373.179688 204.585938 396.59375 190.816406 408.832031 C 257.429688 454.65625 318.449219 507.976562 401.167969 536.441406 C 424.789062 516.992188 424.285156 474.671875 442.921875 437.742188 C 443.363281 430.660156 437.121094 426.117188 434.425781 420.234375 C 350.082031 406.480469 349.191406 325.46875 376.789062 263.058594 C 384.195312 276.601562 396.519531 288.261719 406.195312 300.929688 C 427.894531 307.53125 454.539062 309.488281 474.128906 326.078125 C 481.589844 340.839844 478.203125 359.691406 488.304688 373.460938 C 506.085938 368.878906 493.027344 347.699219 496.839844 336.320312 C 528.230469 324.601562 556.804688 305.261719 595.71875 298.898438 C 626.785156 293.78125 655.679688 302.730469 686.039062 298.601562 C 734.464844 292.011719 787.734375 281.480469 819.25 227.449219 C 847.738281 178.589844 815.496094 93.300781 739.453125 101.28125 C 713.738281 103.980469 677.703125 138.660156 682.144531 173.851562 C 689.203125 229.730469 799.171875 208.808594 751.800781 158.78125 C 746.875 155.71875 746.304688 164.210938 741.90625 162.53125 C 733.105469 174.640625 752.269531 176.191406 744.054688 188.089844 C 730.304688 199.371094 704.550781 189.121094 695.546875 174.429688 C 699.992188 126.328125 739.046875 98.988281 782.847656 126.308594 C 836.382812 159.699219 821.136719 238.28125 761.394531 258.78125 C 759.363281 253.878906 764.636719 246.25 767.316406 239.570312" fill="#e52828" fill-rule="evenodd"/></g><g id="change2_2"><path d="M 1094.730469 283.300781 C 1097 284.328125 1099.28125 285.351562 1101.550781 286.371094 C 1092.988281 301.980469 1079.929688 334.191406 1062.078125 331.449219 C 1059.570312 314.949219 1083.898438 296.390625 1094.730469 283.300781" fill="inherit" fill-rule="evenodd"/></g><g id="change2_3"><path d="M 666.023438 161.121094 C 660.40625 170.691406 664.058594 173.820312 657.832031 179.289062 C 647.652344 174.628906 637.570312 180.261719 635.097656 169.039062 C 642.660156 159.109375 651.886719 153.640625 666.023438 161.121094" fill="inherit" fill-rule="evenodd"/></g><g id="change2_4"><path d="M 664.96875 218.039062 C 656.917969 238.21875 636.457031 225.691406 621.898438 228.679688 C 623.601562 223.019531 615.914062 220.910156 620.195312 214.261719 C 633.191406 212.800781 654.019531 208.628906 664.96875 218.039062" fill="inherit" fill-rule="evenodd"/></g><g id="change2_5"><path d="M 926.988281 522.015625 C 956.167969 543.496094 1012.859375 532.507812 1033.128906 498.808594 C 1055.351562 461.800781 1036.601562 406.523438 993.417969 398.910156 C 920.316406 379.339844 871.707031 481.308594 926.988281 522.015625 Z M 1013.191406 391.421875 C 1043.609375 404.285156 1059.589844 444.527344 1056.769531 476.664062 C 1051.660156 534.535156 966.613281 567.539062 918.574219 534.625 C 901.949219 523.25 886.472656 483.234375 888.867188 461.089844 C 895.292969 401.445312 961.730469 369.640625 1013.191406 391.421875" fill="inherit" fill-rule="evenodd"/></g><g id="change3_1"><path d="M 960.425781 466.035156 C 963.488281 473.496094 977.527344 482.15625 985.410156 477.289062 C 992.777344 462.566406 988.660156 452.203125 978.519531 444.117188 C 969.433594 448.203125 961.058594 452.144531 960.425781 466.035156 Z M 993.417969 398.910156 C 1036.601562 406.523438 1055.351562 461.800781 1033.128906 498.808594 C 1012.859375 532.507812 956.167969 543.496094 926.988281 522.015625 C 871.707031 481.308594 920.316406 379.339844 993.417969 398.910156" fill="#fffffd" fill-rule="evenodd"/></g><g id="change2_6"><path d="M 711.730469 465.984375 C 735.820312 537.496094 862.015625 509.957031 860.699219 426.542969 C 860.355469 403.480469 836.261719 375.621094 802.578125 367.53125 C 749.125 350.261719 693.863281 412.996094 711.730469 465.984375 Z M 815.539062 356.960938 C 917.503906 385.355469 862.542969 520.445312 784.289062 523.296875 C 754.820312 524.375 707.25 504.851562 697.292969 467.683594 C 690.378906 441.886719 702.566406 389.976562 724.609375 370.660156 C 747.257812 350.820312 785.730469 351.441406 815.539062 356.960938" fill="inherit" fill-rule="evenodd"/></g><g id="change3_2"><path d="M 792.867188 431.488281 C 810.753906 445.9375 824.867188 433.832031 824.582031 415.722656 C 808.96875 396.601562 784.289062 411.683594 792.867188 431.488281 Z M 802.578125 367.53125 C 836.261719 375.621094 860.355469 403.480469 860.699219 426.542969 C 862.015625 509.957031 735.820312 537.496094 711.730469 465.984375 C 693.863281 412.996094 749.125 350.261719 802.578125 367.53125" fill="#fffffd" fill-rule="evenodd"/></g><g id="change2_7"><path d="M 978.519531 444.117188 C 988.660156 452.203125 992.777344 462.566406 985.410156 477.289062 C 977.527344 482.15625 963.488281 473.496094 960.425781 466.035156 C 961.058594 452.144531 969.433594 448.203125 978.519531 444.117188" fill="inherit" fill-rule="evenodd"/></g><g id="change2_8"><path d="M 824.582031 415.722656 C 824.867188 433.832031 810.753906 445.9375 792.867188 431.488281 C 784.289062 411.683594 808.96875 396.601562 824.582031 415.722656" fill="inherit" fill-rule="evenodd"/></g><g id="change2_9"><path d="M 1106.710938 553.84375 C 1113.320312 558.875 1119.410156 564.109375 1114.199219 573.605469 C 1108 568.832031 1105.75 574.519531 1099.558594 569.738281 C 1097.671875 565.242188 1102.109375 555.40625 1106.710938 553.84375" fill="inherit" fill-rule="evenodd"/></g><g id="change2_10"><path d="M 1072.5 563.015625 C 1080.890625 566.753906 1079.890625 574.039062 1084.308594 579.273438 C 1080.5 588.832031 1073.601562 582.5625 1071.128906 584.265625 C 1066.261719 579.203125 1067.859375 571.679688 1072.5 563.015625" fill="inherit" fill-rule="evenodd"/></g><g id="change2_11"><path d="M 565.320312 402.726562 C 531.820312 414.003906 505.582031 487.421875 527.296875 511.304688 C 535.167969 519.976562 566.089844 528.257812 573.757812 529.519531 C 599.734375 533.769531 634.816406 519.640625 645.015625 498.765625 C 662.394531 463.167969 645.277344 415.386719 605.53125 404.4375 C 596.429688 401.945312 575.882812 399.144531 565.320312 402.726562 Z M 620.761719 394.910156 C 649.476562 404.214844 687.984375 467.691406 650.226562 517.53125 C 626.378906 549 546.703125 551.570312 517.625 520.613281 C 487.773438 488.796875 522.632812 406.984375 559.296875 391.796875 C 574.6875 385.417969 595.066406 386.578125 620.761719 394.910156" fill="inherit" fill-rule="evenodd"/></g><g id="change3_3"><path d="M 584.484375 463.277344 C 587.6875 471.183594 597.847656 469.339844 604.925781 472.492188 C 608.554688 465.445312 617.78125 458.175781 615.164062 449.773438 C 605.332031 438.648438 584.097656 447.515625 584.484375 463.277344 Z M 605.53125 404.4375 C 645.277344 415.386719 662.394531 463.167969 645.015625 498.765625 C 634.816406 519.640625 599.734375 533.769531 573.757812 529.519531 C 566.089844 528.257812 535.167969 519.976562 527.296875 511.304688 C 505.582031 487.421875 531.820312 414.003906 565.320312 402.726562 C 575.882812 399.144531 596.429688 401.945312 605.53125 404.4375" fill="#fffffd" fill-rule="evenodd"/></g><g id="change2_12"><path d="M 453.300781 390.488281 C 451.640625 396.082031 449.003906 399.039062 445.902344 400.808594 C 429.414062 384.445312 420.816406 365.101562 420.148438 342.738281 C 437.992188 348.800781 441.054688 376.078125 453.300781 390.488281" fill="inherit" fill-rule="evenodd"/></g><g id="change2_13"><path d="M 691.066406 784.660156 C 696.339844 816.71875 678.980469 854.398438 683.726562 879.757812 C 695.75 944.050781 798.300781 940.070312 838.109375 919.28125 C 890.203125 892.09375 915.800781 832.777344 932.730469 776.082031 C 933.355469 768.941406 928.386719 763.894531 927.519531 757.316406 C 981.683594 673.128906 808.457031 571.667969 774.878906 677.570312 C 755.695312 683.246094 753.726562 661.769531 738.296875 655.628906 C 700.394531 640.511719 648.542969 672.609375 656.207031 722.484375 C 674.824219 747.78125 686.726562 758.242188 691.066406 784.660156 Z M 988.613281 639.992188 C 977.480469 615.394531 952.441406 601.078125 921.027344 595.867188 C 871.566406 587.660156 816.328125 598.078125 761.613281 597.8125 C 693.5 597.464844 627.3125 601.058594 573.574219 608.703125 C 487.734375 665.414062 560.191406 767.078125 641.445312 743.164062 C 644.527344 726.066406 638.542969 698.242188 645.5625 679.425781 C 661.96875 635.507812 724.910156 631.082031 769.425781 653.261719 C 819.550781 563.984375 970.957031 656.570312 950.144531 737.449219 C 982.652344 719.484375 995.386719 672.683594 988.613281 639.992188 Z M 945.707031 765.515625 C 936.277344 876.324219 842.910156 962.796875 748.902344 947.398438 C 713.882812 941.664062 676.0625 917.585938 669.53125 887.023438 C 660.429688 844.503906 695.773438 795.679688 664.382812 758.972656 C 600.6875 782.378906 462.164062 725.699219 495.96875 647.515625 C 508.601562 618.230469 537.070312 620.214844 555.179688 594.945312 C 657.0625 583.507812 837.703125 567.992188 954.003906 583.394531 C 984.746094 587.449219 1029.699219 618.394531 1037.910156 645.824219 C 1054.28125 700.371094 995.816406 766.597656 945.707031 765.515625" fill="inherit" fill-rule="evenodd"/></g><g id="change2_14"><path d="M 615.164062 449.773438 C 617.78125 458.175781 608.554688 465.445312 604.925781 472.492188 C 597.847656 469.339844 587.6875 471.183594 584.484375 463.277344 C 584.097656 447.515625 605.332031 438.648438 615.164062 449.773438" fill="inherit" fill-rule="evenodd"/></g><g id="change4_1"><path d="M 950.144531 737.449219 C 970.957031 656.570312 819.550781 563.984375 769.425781 653.261719 C 724.910156 631.082031 661.96875 635.507812 645.5625 679.425781 C 638.542969 698.242188 644.527344 726.066406 641.445312 743.164062 C 560.191406 767.078125 487.734375 665.414062 573.574219 608.703125 C 627.3125 601.058594 693.5 597.464844 761.613281 597.8125 C 816.328125 598.078125 871.566406 587.660156 921.027344 595.867188 C 952.441406 601.078125 977.480469 615.394531 988.613281 639.992188 C 995.386719 672.683594 982.652344 719.484375 950.144531 737.449219" fill="#d86161" fill-rule="evenodd"/></g><g id="change5_1"><path d="M 760.054688 752.894531 C 764.535156 737.734375 771.734375 748.535156 782.097656 746.429688 C 794.589844 709.628906 725.378906 733.417969 760.054688 752.894531 Z M 837.136719 672.855469 C 830.503906 677.621094 811.910156 693.066406 823.832031 702.371094 C 832.714844 694.339844 842.40625 688.398438 857.003906 695.464844 C 858.707031 691.6875 860.414062 687.902344 862.117188 684.109375 C 852.890625 677.082031 849.261719 676.675781 837.136719 672.855469 Z M 656.207031 722.484375 C 648.542969 672.609375 700.394531 640.511719 738.296875 655.628906 C 753.726562 661.769531 755.695312 683.246094 774.878906 677.570312 C 808.457031 571.667969 981.683594 673.128906 927.519531 757.316406 C 928.386719 763.894531 933.355469 768.941406 932.730469 776.082031 C 915.800781 832.777344 890.203125 892.09375 838.109375 919.28125 C 798.300781 940.070312 695.75 944.050781 683.726562 879.757812 C 678.980469 854.398438 696.339844 816.71875 691.066406 784.660156 C 686.726562 758.242188 674.824219 747.78125 656.207031 722.484375" fill="#ff9999" fill-rule="evenodd"/></g><g id="change2_15"><path d="M 862.117188 684.109375 C 860.414062 687.902344 858.707031 691.6875 857.003906 695.464844 C 842.40625 688.398438 832.714844 694.339844 823.832031 702.371094 C 811.910156 693.066406 830.503906 677.621094 837.136719 672.855469 C 849.261719 676.675781 852.890625 677.082031 862.117188 684.109375" fill="inherit" fill-rule="evenodd"/></g><g id="change2_16"><path d="M 474.066406 574.777344 C 470.945312 583.101562 465.449219 585.175781 457.601562 581.023438 C 454.722656 570.316406 468.570312 565.054688 474.066406 574.777344" fill="inherit" fill-rule="evenodd"/></g><g id="change2_17"><path d="M 782.097656 746.429688 C 771.734375 748.535156 764.535156 737.734375 760.054688 752.894531 C 725.378906 733.417969 794.589844 709.628906 782.097656 746.429688" fill="inherit" fill-rule="evenodd"/></g><g id="change5_2"><path d="M 1033.171875 971.679688 C 1029.109375 972.597656 1023.710938 970.007812 1021 974.386719 C 991.777344 967.160156 989.121094 930.796875 1012.179688 921.21875 C 1011.710938 901.273438 1018.601562 886.015625 1032.660156 875.78125 C 1087.460938 835.851562 1114.851562 949.695312 1043.410156 948.957031 C 1039.980469 956.519531 1036.570312 964.105469 1033.171875 971.679688" fill="#ff9999" fill-rule="evenodd"/></g><g id="change2_18"><path d="M 447.359375 603.734375 C 453.382812 606.484375 460.722656 608.734375 462.246094 613.179688 C 460.015625 618.910156 457.640625 624.273438 453.808594 625.789062 C 445.066406 623.445312 444.035156 618.195312 439.957031 614.066406 C 440.996094 606.800781 445.820312 609.625 447.359375 603.734375" fill="inherit" fill-rule="evenodd"/></g><g id="change5_3"><path d="M 1076.320312 991.132812 C 1099.941406 999.726562 1078.039062 1040.078125 1056.648438 1028.71875 C 1041.339844 1020.601562 1048.761719 981.117188 1076.320312 991.132812" fill="#ff9999" fill-rule="evenodd"/></g><g id="change5_4"><path d="M 493.128906 993.359375 C 477.25 955.8125 534.152344 924.046875 557.332031 953.976562 C 579.292969 982.320312 527.929688 1032.941406 493.128906 993.359375" fill="#ff9999" fill-rule="evenodd"/></g><g id="change2_19"><path d="M 849.808594 1099.5 C 840.808594 1118.800781 833.039062 1141.410156 813.207031 1132.179688 C 817.683594 1115.839844 829.855469 1119.820312 834.355469 1103.449219 C 831.800781 1098.140625 831.09375 1092.128906 821.539062 1089.46875 C 823.242188 1085.679688 824.945312 1081.910156 826.652344 1078.109375 C 835.835938 1076.71875 845.285156 1089.058594 849.808594 1099.5" fill="inherit" fill-rule="evenodd"/></g><g id="change2_20"><path d="M 773.601562 1062.398438 C 779.179688 1064.050781 782.160156 1066.679688 783.921875 1069.800781 C 778.632812 1081.929688 767.519531 1107.269531 778.101562 1119.109375 C 782.847656 1121.699219 782.769531 1111.5 785.503906 1108.761719 C 793.476562 1110.769531 795.359375 1115.070312 800.367188 1118.210938 C 765.347656 1162.230469 747.847656 1091.589844 773.601562 1062.398438" fill="inherit" fill-rule="evenodd"/></g><g id="change5_5"><path d="M 635.789062 1046.75 C 631.386719 1060.269531 627.230469 1074.679688 613.847656 1083.308594 C 553.292969 1081.550781 602.570312 995.226562 635.789062 1046.75" fill="#ff9999" fill-rule="evenodd"/></g><g id="change5_6"><path d="M 538.390625 1093.019531 C 524.335938 1103.609375 521.03125 1118.050781 508.378906 1123.238281 C 476.238281 1136.398438 450.402344 1095.800781 470.457031 1067.878906 C 488.242188 1043.140625 548.144531 1050.460938 538.390625 1093.019531" fill="#ff9999" fill-rule="evenodd"/></g><g clip-path="url(#a)" id="change2_1"><path d="M 761.394531 258.78125 C 821.136719 238.28125 836.382812 159.699219 782.847656 126.308594 C 739.046875 98.988281 699.992188 126.328125 695.546875 174.429688 C 704.550781 189.121094 730.304688 199.371094 744.054688 188.089844 C 752.269531 176.191406 733.105469 174.640625 741.90625 162.53125 C 746.304688 164.210938 746.875 155.71875 751.800781 158.78125 C 799.171875 208.808594 689.203125 229.730469 682.144531 173.851562 C 677.703125 138.660156 713.738281 103.980469 739.453125 101.28125 C 815.496094 93.300781 847.738281 178.589844 819.25 227.449219 C 787.734375 281.480469 734.464844 292.011719 686.039062 298.601562 C 655.679688 302.730469 626.785156 293.78125 595.71875 298.898438 C 556.804688 305.261719 528.230469 324.601562 496.839844 336.320312 C 493.027344 347.699219 506.085938 368.878906 488.304688 373.460938 C 478.203125 359.691406 481.589844 340.839844 474.128906 326.078125 C 454.539062 309.488281 427.894531 307.53125 406.195312 300.929688 C 396.519531 288.261719 384.195312 276.601562 376.789062 263.058594 C 349.191406 325.46875 350.082031 406.480469 434.425781 420.234375 C 437.121094 426.117188 443.363281 430.660156 442.921875 437.742188 C 424.285156 474.671875 424.789062 516.992188 401.167969 536.441406 C 318.449219 507.976562 257.429688 454.65625 190.816406 408.832031 C 204.585938 396.59375 234.234375 373.179688 202.214844 359.308594 C 185.828125 372.289062 190.210938 405.390625 173.902344 403.925781 C 160.785156 385.023438 165.570312 359.339844 143.589844 343.800781 C 115.804688 369.171875 173.558594 400.210938 158.085938 426.871094 C 132.699219 436.808594 78.65625 398.796875 77.296875 442.378906 C 103.074219 449.058594 119.03125 429.890625 147.625 444.023438 C 148.191406 454.484375 143.242188 467.03125 143.40625 477.652344 C 129.859375 485.035156 114.164062 486.683594 99.320312 490.570312 C 93.175781 499.261719 82.101562 515.820312 82.9375 526.925781 C 113.675781 538.449219 131.078125 514.773438 152.148438 500.71875 C 219.53125 544.3125 301.195312 576.0625 381.355469 598.578125 C 378.191406 649.382812 383.808594 696.878906 376.242188 749.355469 C 303.261719 740.714844 236.625 748.792969 159.039062 727.957031 C 157.558594 708.421875 154.84375 689.351562 125.886719 680.226562 C 113.433594 698.78125 129.03125 721.253906 115.15625 746.457031 C 83.847656 738.597656 13.683594 726.199219 35.035156 778.667969 C 61.964844 786.742188 77.011719 763.5 103.902344 771.441406 C 109.277344 783.21875 112.664062 795.75 111.039062 810.179688 C 92.019531 818.484375 38.808594 830.800781 64.175781 865.601562 C 83.523438 846.988281 98.285156 816.296875 130.894531 832.820312 C 132.800781 850.171875 113.800781 869.847656 105.304688 889.601562 C 107.191406 894.929688 106.902344 905.046875 111.992188 917.210938 C 135.984375 907.671875 147.238281 866.820312 158.960938 837.265625 C 235.328125 834.621094 308.59375 840.398438 384.597656 846.039062 C 396.015625 900.726562 403.214844 962.28125 414.023438 1023.308594 C 425.074219 1085.769531 440.929688 1168.5 486.378906 1214.46875 C 493.738281 1218.960938 499.519531 1219.320312 505.582031 1220.378906 C 519.917969 1244.390625 501.523438 1274.089844 483.945312 1292.628906 C 477.171875 1292.949219 470.292969 1284.441406 461.230469 1282.398438 C 416.820312 1272.378906 394.960938 1285.339844 372.46875 1321.640625 C 359.191406 1314.738281 361.175781 1302.058594 342.480469 1297.191406 C 328.105469 1300.667969 321.003906 1323.390625 304.417969 1321.039062 C 298.253906 1309.761719 276.898438 1294.917969 268.078125 1304.640625 C 269.03125 1317.46875 281.28125 1326.019531 286.128906 1337.371094 C 392.082031 1340.289062 497.125 1340.679688 595.617188 1323.839844 C 615.203125 1305.910156 613.96875 1273.140625 622.8125 1251.359375 C 670.445312 1277.070312 709.199219 1271.851562 750.503906 1265.191406 C 771.207031 1261.839844 792.117188 1262.730469 807.203125 1260.679688 C 831.230469 1257.429688 866.722656 1236.089844 882.4375 1245.398438 C 906.667969 1259.75 883.878906 1308.53125 898.175781 1331.769531 C 933.863281 1341.441406 963.996094 1336.449219 994.074219 1331.25 C 1002.550781 1325.460938 1010.230469 1317.570312 1022.710938 1322.300781 C 1045.820312 1374.839844 1091.039062 1328.949219 1114.058594 1319.738281 C 1126.078125 1327.101562 1116.171875 1342.800781 1127.539062 1350.417969 C 1143.96875 1363.871094 1158.261719 1328.71875 1174.488281 1325.121094 C 1189.46875 1338.058594 1216.351562 1354.75 1226.300781 1337.539062 C 1242.070312 1310.230469 1173.109375 1286.351562 1151.328125 1303.738281 C 1127.238281 1296.089844 1112.71875 1271.570312 1087.269531 1263.929688 C 1064.351562 1257.039062 1051.699219 1269.949219 1027.28125 1269.679688 C 1021.769531 1254.820312 1028.96875 1235.140625 1031.851562 1217.089844 C 1063.121094 1199.808594 1099.101562 1198.738281 1117.679688 1160.109375 C 1163.28125 1167.269531 1226.480469 1213.160156 1271.601562 1188.5 C 1311.230469 1122.28125 1356.628906 1071.351562 1422.011719 1073.160156 C 1323.171875 1036.070312 1281.738281 1150.550781 1205.148438 1172.21875 C 1190.648438 1168.679688 1177.550781 1168.96875 1163.679688 1167.179688 C 1157.328125 1158.910156 1148.691406 1151.5 1141.53125 1143.53125 C 1143.238281 1123.449219 1133.679688 1101.28125 1134.539062 1080.238281 C 1135.179688 1064.289062 1144.351562 1049.929688 1147.191406 1034.019531 C 1155.320312 988.296875 1152.890625 935.808594 1158.078125 888.59375 C 1160.878906 863.058594 1167.691406 839.882812 1166.320312 815.765625 C 1231.28125 798.289062 1314.46875 828.96875 1380.351562 813.851562 C 1403.980469 802.039062 1446.160156 787.824219 1474.128906 787.78125 C 1518.101562 787.707031 1497.421875 821.859375 1527.5 839.183594 C 1564 830.917969 1536.238281 800.625 1535.140625 779.761719 C 1549.640625 776.226562 1567.101562 797.445312 1586.929688 792.183594 C 1594.941406 776.589844 1594.761719 764.097656 1590.921875 752.984375 C 1573.671875 751.371094 1545.121094 749.355469 1545.28125 726.9375 C 1561.96875 713.496094 1597.148438 726.144531 1599.601562 691.296875 C 1573.421875 685.980469 1528.21875 720.378906 1517.699219 678.96875 C 1525.371094 666.699219 1555.710938 655.191406 1542.71875 635.582031 C 1518.449219 658.886719 1490.890625 711.332031 1454.410156 685.96875 C 1438.878906 675.171875 1453.558594 649.890625 1422.511719 641.523438 C 1391.101562 663.804688 1417.890625 692.382812 1429.738281 710.386719 C 1347.578125 737.214844 1252.050781 728.769531 1161.941406 734.519531 C 1163.519531 714.808594 1151.53125 675.105469 1155.058594 646.695312 C 1158.320312 620.3125 1175.578125 612.730469 1195.53125 599.335938 C 1232.769531 574.355469 1267.101562 555.824219 1300.898438 529.3125 C 1324.960938 510.453125 1351.578125 486.703125 1368.308594 458.566406 C 1402.109375 401.828125 1425.800781 442.257812 1471.160156 436.589844 C 1483.191406 417.609375 1481.890625 403.648438 1471.648438 393.078125 C 1456.640625 393.285156 1443.058594 397.203125 1425.859375 391.570312 C 1406.601562 368.21875 1441.308594 362.089844 1457.699219 351.261719 C 1456.011719 340.589844 1457.460938 328.761719 1449.769531 320.351562 C 1429.691406 326.28125 1401.488281 351.898438 1382.601562 342 C 1357.75 328.988281 1383.601562 299.320312 1383.210938 273.949219 C 1319.621094 258.28125 1346.371094 323 1359.53125 350.738281 C 1344.421875 355.039062 1354.140625 369.488281 1340.421875 374.929688 C 1318.589844 370.429688 1299.21875 325.851562 1282.839844 357.171875 C 1279.03125 364.449219 1281.390625 384.484375 1294.289062 392.390625 C 1313.640625 404.265625 1318.628906 383.339844 1335.761719 397.421875 C 1289.691406 484.796875 1213.949219 536.769531 1134.558594 552.71875 C 1128.679688 532.597656 1136.210938 518.171875 1133.570312 500.335938 C 1125.941406 449.011719 1095.261719 403.972656 1094.121094 351.359375 C 1140.820312 335.519531 1154.660156 246.460938 1122.621094 227.539062 C 1111.570312 263.019531 1066.871094 249.921875 1053.039062 272.710938 C 1042.171875 290.648438 1057.910156 297.410156 1044.949219 321 C 1031.96875 324.441406 1021.300781 317.25 1005.53125 311.421875 C 961.199219 295.058594 922.769531 301.160156 905.796875 271.941406 C 882.863281 294.300781 848.347656 312.609375 822.59375 310.960938 C 848.996094 287.269531 883.574219 282.769531 905.128906 255.230469 C 941.410156 208.871094 912.167969 152.320312 909.203125 106.730469 C 843.808594 44.28125 742.699219 16.800781 672.917969 54.890625 C 622.792969 82.238281 582.171875 152.808594 591.113281 212.078125 C 594.90625 237.160156 609.953125 251.648438 611.515625 275.941406 C 659.679688 292.011719 697.882812 281.789062 737.523438 275.339844 C 745.109375 266.96875 749.894531 270.851562 747.988281 258.199219 C 754.214844 256.449219 750.789062 259.710938 757.074219 262.289062 C 760.339844 255.898438 758.757812 241.71875 767.316406 239.570312 C 764.636719 246.25 759.363281 253.878906 761.394531 258.78125 Z M 1409.351562 258.421875 C 1412.089844 273.691406 1412.421875 289.890625 1409.089844 307.488281 C 1431.761719 301.160156 1484.101562 277.558594 1500.890625 316.058594 C 1507.320312 330.789062 1502.089844 355.308594 1494.28125 373.199219 C 1541.390625 425.542969 1477.890625 490.90625 1410.371094 450.183594 C 1348.171875 543.074219 1266.128906 583.429688 1189.25 637.515625 C 1187.488281 660.789062 1187.140625 683.519531 1191.949219 704.320312 C 1258.460938 710.816406 1320.371094 705.175781 1381.230469 696.710938 C 1368.128906 656.546875 1401.441406 601.351562 1442.878906 620.648438 C 1461.421875 629.285156 1463.328125 651.425781 1480.328125 664.859375 C 1506.101562 648.488281 1525.648438 592.960938 1559.328125 604.816406 C 1582.449219 612.929688 1582.570312 644.46875 1565.320312 670.375 C 1606.140625 650.394531 1655.101562 677.757812 1613.558594 733.113281 C 1640.808594 759.15625 1616.679688 822.921875 1576.921875 820.464844 C 1557.421875 901.179688 1492.601562 855.835938 1471.710938 811.304688 C 1394.691406 840.007812 1318.441406 840.632812 1229.691406 838.886719 C 1215.691406 830.089844 1205.371094 831.074219 1196.070312 834.65625 C 1180.140625 926.070312 1174.890625 1013.46875 1175.441406 1098.679688 C 1179.941406 1112.679688 1180.640625 1128.109375 1189.390625 1140.5 C 1259.710938 1113.609375 1315.578125 1025.25 1407.25 1039.191406 C 1426.929688 1042.171875 1478.570312 1058.75 1473.570312 1080.011719 C 1466.898438 1108.359375 1405.71875 1098.25 1384.140625 1102.570312 C 1337.96875 1111.789062 1319.699219 1170.050781 1293.300781 1201.011719 C 1252.339844 1228.808594 1199.851562 1226.21875 1135.738281 1192.839844 C 1113.390625 1206.851562 1091.691406 1222.480469 1066.949219 1230.171875 C 1083.070312 1237.980469 1101.710938 1238.738281 1121.25 1249.179688 C 1134.140625 1256.070312 1143.578125 1269.019531 1156.800781 1273.410156 C 1180.320312 1281.210938 1202.289062 1268.671875 1228.609375 1283.910156 C 1265.460938 1305.238281 1269.761719 1354.210938 1226.398438 1367.640625 C 1210 1372.730469 1197.988281 1360.789062 1180.371094 1360.570312 C 1153.441406 1360.230469 1126.820312 1398.578125 1098.121094 1367.210938 C 1080.960938 1365.019531 1068.671875 1377.289062 1048.230469 1374.800781 C 1037.929688 1373.539062 1031.121094 1364.859375 1018.710938 1361.480469 C 988.777344 1353.359375 953.917969 1365.691406 927.332031 1364.03125 C 912.207031 1363.121094 890.261719 1360.398438 880.082031 1353.679688 C 854.066406 1336.441406 875.015625 1298.019531 859.015625 1273.101562 C 839.449219 1270.398438 823.203125 1283.941406 803.773438 1286.460938 C 794.265625 1287.710938 784.835938 1283.648438 774.695312 1284.289062 C 731.910156 1287.050781 695.976562 1308.460938 651.179688 1291.488281 C 640.734375 1305.28125 629.828125 1317.960938 621.859375 1338.398438 C 568.039062 1354.179688 476.054688 1369.648438 394.25 1364.25 C 374.84375 1362.96875 343.332031 1362.699219 318.371094 1362.839844 C 304.699219 1362.941406 289.652344 1368.230469 279.394531 1364.410156 C 259.480469 1357.03125 234.050781 1321.871094 237.964844 1304.730469 C 245.609375 1271.160156 278.785156 1270 309.671875 1285.128906 C 327.738281 1274.789062 345.238281 1262.941406 371.699219 1274.839844 C 400.273438 1250.75 432.496094 1236.371094 475.566406 1250.589844 C 481.710938 1225.648438 440.507812 1218.628906 420.148438 1203.730469 C 406.054688 1090.371094 372.390625 984.433594 359.941406 870.445312 C 304.253906 856.164062 241.472656 861.570312 185.648438 862.957031 C 166.5625 900.492188 127.972656 960.597656 90.621094 940.390625 C 75.816406 932.382812 72.9375 910.375 77.460938 890.726562 C 25.828125 900.410156 8.105469 829.375 50.589844 804.804688 C 40.875 798.136719 33.738281 806.410156 20.234375 799.335938 C -2.273438 787.523438 -6.835938 751.6875 10.761719 729.449219 C 29.097656 706.28125 65.292969 710.894531 91.554688 713.941406 C 87.09375 674.625 107.714844 636.800781 141.257812 646.144531 C 175.808594 655.78125 170.054688 694.429688 191.769531 709.910156 C 212.050781 724.378906 247.070312 719.484375 269.132812 720.175781 C 295.777344 721.027344 315.492188 725.027344 344 723.871094 C 361.074219 681.613281 344.710938 652.019531 352.945312 613.113281 C 286.574219 603.257812 210.203125 570.527344 156.769531 532.878906 C 132.3125 554.535156 92.144531 555.597656 61.320312 544.515625 C 47.667969 523.203125 49.417969 493.824219 71.824219 472.710938 C 70.179688 463.296875 56.917969 458.265625 48.664062 451.34375 C 44.894531 410.5625 89.667969 381.664062 124.808594 403.6875 C 115.054688 381.660156 93.828125 360.28125 107.472656 332.988281 C 120.632812 306.660156 159.691406 305.589844 179.058594 337.921875 C 202.375 330.269531 237.054688 327.339844 253.355469 355.011719 C 254.855469 372.011719 245.730469 388.828125 234.109375 403.738281 C 271.121094 442.871094 336.417969 470.738281 386.179688 496.902344 C 406.257812 488.980469 397.839844 460.492188 409.519531 439.089844 C 373.488281 422.769531 340.308594 411.703125 326.054688 387.777344 C 295.433594 336.460938 348.945312 271.230469 350.246094 212.828125 C 387.476562 210.351562 393.5 251.238281 420.53125 269.128906 C 443.832031 284.519531 478.449219 279.550781 503.328125 303.710938 C 529.769531 297.21875 554.59375 286.46875 580.386719 278.308594 C 563.535156 238.46875 548.164062 199.109375 560.816406 151.949219 C 607.09375 -20.621094 855.589844 -50.730469 951.832031 84.949219 C 979.816406 124.410156 985.636719 199.199219 947.839844 263.550781 C 963.449219 276.691406 991.957031 282.359375 1012.460938 289.960938 C 1020.878906 284.929688 1011.921875 273.449219 1019.199219 262.910156 C 1038.378906 240.621094 1063.628906 234.328125 1087.960938 225.578125 C 1101.359375 210.148438 1108.679688 183.238281 1112.320312 165.488281 C 1129.070312 152.640625 1155.710938 182.78125 1165 200.179688 C 1188.671875 244.488281 1172.199219 330.878906 1127.171875 369 C 1136.570312 415.675781 1153.539062 459.484375 1167.191406 504.574219 C 1210.121094 486.929688 1250.289062 461.945312 1283.019531 417.386719 C 1257.371094 399.46875 1252.800781 373.550781 1248.96875 347.359375 C 1265.960938 327.539062 1285.890625 315.53125 1313.859375 324.679688 C 1313.570312 304.410156 1303.78125 276.660156 1323.351562 255.160156 C 1343.890625 232.621094 1382.03125 231.960938 1409.351562 258.421875" fill="inherit" fill-rule="evenodd"/></g></g></svg>