<?xml version="1.0" encoding="UTF-8" standalone="no"?><svg xmlns="http://www.w3.org/2000/svg" xmlns:xlink="http://www.w3.org/1999/xlink" fill="#000000" height="266" preserveAspectRatio="xMidYMid meet" version="1" viewBox="-1.9 -11.2 402.1 266.0" width="402.1" zoomAndPan="magnify"><g><linearGradient gradientTransform="matrix(.02835 0 0 -.02835 -45.668 -118.788)" gradientUnits="userSpaceOnUse" id="a" x1="4467.963" x2="10191.852" xlink:actuate="onLoad" xlink:show="other" xlink:type="simple" y1="-5048.119" y2="-9794.065"><stop offset="0" stop-color="#00ffff"/><stop offset="1" stop-color="#ff99ff"/></linearGradient><path clip-rule="evenodd" d="M109.2,196.7c45,45,117.9,45,162.9,0s45-117.9,0-162.9c-45-45-117.9-45-162.9,0 C64.2,78.7,64.2,151.7,109.2,196.7z" fill="url(#a)" fill-rule="evenodd"/><g id="change1_1"><path clip-rule="evenodd" d="M150.4,7.2c-1.2,0.7-44.5,25.4-45.1,68.9c-0.6,44.1,42.4-3.5,65-4.1c22.6-0.6,3.5,48.5,12.5,53.1 c9,4.6,43-16.8,50.5,2.9c7.5,19.7-23.8,55.2-7.3,68.5c16.5,13.3,62-20,62.3-20.2c-4.5,7.2-9.9,14-16.2,20.3 c-45,45-117.9,45-162.9,0c-45-45-45-117.9,0-162.9C121.2,21.7,135.3,12.8,150.4,7.2L150.4,7.2z M220.9,103.3 c4.6,8.5,20.9-1.7,16-7.2c-3.3-3.6-16.5-4.6-17.3,2.1C219.4,99.5,219.8,101.2,220.9,103.3L220.9,103.3z M241.3,121.1 c5.2,3.3,12.4-1.4,15.5-5.2c8-9.7,2.5-14.8-3.5-14.8C242.4,101.1,230.2,114.1,241.3,121.1z M153.6,97.9c-3.1,7.6-1.6,17,4.9,16.8 c7.4-0.2,12.8-9.6,13.6-17.1C173.5,82.7,157.9,87.2,153.6,97.9z M216.2,64.4c-5.6,9.3-4,14.7,0,17.3c8.3,5.4,18.9-1.2,26.2-10 C270.6,37.9,227.2,46.4,216.2,64.4z M213.2,2.2c0.5,0.3,14.9,9.6-1.4,34.1c-16.5,25,23.5,6.1,39.8,6.7c16.3,0.6-1.8,23.5-4.4,33.4 c-2.6,9.9,28.8,11.6,33.2,22.6c4.4,11-23.2,48.5-14.8,59.2c8.4,10.7,26-3.7,38.4-22c6.7-36-3.9-74.6-31.8-102.5 C255.4,17,234.8,6.5,213.2,2.2L213.2,2.2z" fill="#c521e0" fill-opacity="0.2" fill-rule="evenodd"/></g><g id="change1_2"><path clip-rule="evenodd" d="M257.8,208.8c-45,32.4-108.2,28.4-148.7-12.1c-23.6-23.6-34.8-54.9-33.7-85.8c4.6,10.5,12.5,21.7,25.7,21.2 c24.7-0.9,29.9,1.2,27.3,23.5c-2.6,22.4,53.1-16.5,70.3-12.8c17.1,3.8-1.5,41.2,2.3,52.8c3.8,11.6,19.2,16,31.6,13.6 C241.7,207.7,252,207,257.8,208.8L257.8,208.8z M111.2,140.6c-2,4.4,2.5,7.1,5.7,7.1c6.1-0.1,7.5-5,5.1-8.1 C119.7,136.4,113.7,135.1,111.2,140.6L111.2,140.6z" fill="#c521e0" fill-opacity="0.2" fill-rule="evenodd"/></g><g id="change2_1"><path clip-rule="evenodd" d="M295.5,67.5c18,123.1-122.2,187.3-200.1,112.6c4,5.9,8.6,11.4,13.8,16.6c45,45,117.9,45,162.9,0 C307.1,161.7,314.8,109.9,295.5,67.5z" fill="#47077f" fill-opacity="0.2" fill-rule="evenodd"/></g><g id="change3_1"><path clip-rule="evenodd" d="M243.9,13c1.6,9.4-0.2,19.1-10.8,25.3C206.4,54,181.3,36,172.7,62.1s-14.5,39.5-36,41.2 c-21.5,1.7-29.6,3.5-35.4,20.3c-5.8,16.8-11.2,3.7-22.5,19.5c-9.5-38,0.6-79.8,30.3-109.5C145.6-2.7,200.5-9.6,243.9,13z" fill="#99ffff" fill-opacity="0.251" fill-rule="evenodd"/></g><linearGradient gradientTransform="matrix(.02835 0 0 -.02835 -45.668 -118.788)" gradientUnits="userSpaceOnUse" id="b" x1="9945.803" x2="7999.727" xlink:actuate="onLoad" xlink:show="other" xlink:type="simple" y1="-14751.694" y2="-5123.88"><stop offset="0" stop-color="#47077f"/><stop offset="1" stop-color="#ff99ff"/></linearGradient><path clip-rule="evenodd" d="M71.2,122.7c-29.1,9.7-46.3,18.1-51.8,25.3c-2.6,3.4,4.2,6.4,12.7,5.4c9.5-1,21.2-6.3,27.8-7.5 c12.5-2.3,27.7,5.1,33.7,5.8s15.5-16.8,35.1-12.5c19.6,4.4,24.4-7.8,37.3-9s17.8,6.8,38.6,0.4c20.8-6.4,22.5-18.1,35.9-18.3 c13.4-0.1,22.4,3.2,36.9-1.9c14.5-5.1,16.5-12.6,26.1-12.5c9.6,0.1,38-0.3,42.5-8.3c4.5-8,6-10.7,13.1-12.6 c4.5-1.2,7.4-3.6,7.1-6.3c-1.4-12.1-57.2-0.9-66.2,0.6c0,0,24.4-7,40.8-9.6s38.5-4.9,48.9-0.9c10.5,4.1,9.9,16-3.5,23.2 c-13.4,7.3-5.8,27-24.1,29.3c-18.3,2.3-36-12.5-44.4-2c-8.4,10.5-7,41.8-43.3,33.1c-36.3-8.7-38.6-11.6-51.1,5.8 c-12.5,17.4-38-6.4-49.9-6.7s-22.4,41.2-44.4,30.8s-17.7-16.3-32.8-9.9c-15.1,6.4-21.8,7.8-31.1,2c-9.3-5.8-21.5,13.4-33.7,7.8 s-7-12.2-21.2-13.9c-9.5-1.2-12.1-3.8-9.1-8C10.5,139.7,55.5,127.2,71.2,122.7L71.2,122.7z M64.1,130.9c-0.7,2.6,2.4,3.6,4.3,2.8 c1.9-0.8,2.6-3.5-0.4-4.8C66.6,128.3,64.7,128.6,64.1,130.9z M7.3,167.3c-4.9,0.4-2.3,5.4,1.6,6.4c5.6,1.5,7.5-1.2,6.2-3.6 C14.1,168.5,11.5,167,7.3,167.3z M159.2,178.2c0.6,1,1.8,1.4,2.9,1.7c1.4,0.3,3.9-0.5,4.2-3C167.2,169.4,156.3,173.4,159.2,178.2z M167.5,161.9c-1.8,8.3,5.2,11.6,11.1,10.2c4.1-1,7.7-4,8.5-7.6C189.1,155.1,170.6,147.9,167.5,161.9z M328.6,142.4 c5.5,8.9,29.3,4.6,24.3-8c-1.9-4.9-8.1-9.1-13.8-9.4C330,124.5,325,136.6,328.6,142.4L328.6,142.4z M310.2,63 c5.2,2,10.2-3.6,7.8-6.4C313.2,50.9,304.2,60.7,310.2,63z" fill="url(#b)" fill-rule="evenodd"/><g id="change4_1"><path clip-rule="evenodd" d="M27.9,163.9c12.3,3.3,15.1,0.6,29-4.5c13.9-5.1,21.4,6,30.9,5.4c9.6-0.7,12.5-10.2,37.9-9.1 c25.4,1,30.9-11.8,41.5-15.2c10.6-3.3,27.2,6.4,34.1,9.7c6.9,3.3,10.1,0.8,19.2-8.3c9.1-9.1,24.8-13.6,43.3-7 c18.4,6.7,32.8,2.9,36.7-7c3.9-9.9,5.4-25.5,28.6-23.8s33.2,8.1,38.5-2.6c5.2-10.7,7.4-17.9,13.9-21.2c0,0-4.1,4.6-4.8,10.9 c-0.7,6.2,2.2,29.8-7.8,33.8c-10,4.1-33.8-13.5-40.1-10c-6.2,3.5-9.5,34.5-36,35c-26.6,0.5-44.3-15.8-55.1-4.5 c-10.9,11.3-18,29.9-36.4,19.9c-18.4-10-24.6-20.2-32.6-14.4c-7.9,5.8-28.7,28.4-49.6,21.3c-20.9-7.1-25.4,7.8-36.4,2 c-11-5.8-11.8-11.6-21.3-6.1C51.8,173.8,36.3,171.5,27.9,163.9L27.9,163.9z" fill="#ff99ff" fill-opacity="0.2" fill-rule="evenodd"/></g><g id="change3_2"><path clip-rule="evenodd" d="M235.8,9.2c-1.9,7.5-6.5,13.9-16.2,16.6c-29.9,8.1-49.4-16-64.5,7C139.9,55.7,130.6,67,109.4,63 c-8.5-1.6-15-2.7-20.3-2.4c5.2-9.7,11.9-18.7,20-26.9C143.4-0.5,193.8-8.7,235.8,9.2L235.8,9.2z" fill="#99ffff" fill-opacity="0.251" fill-rule="evenodd"/></g></g></svg>