<?xml version="1.0" encoding="UTF-8" standalone="no"?><svg xmlns="http://www.w3.org/2000/svg" xmlns:xlink="http://www.w3.org/1999/xlink" fill="#000000" height="60" preserveAspectRatio="xMidYMid meet" version="1" viewBox="2.0 2.0 60.0 60.0" width="60" zoomAndPan="magnify"><defs><linearGradient gradientTransform="translate(-3 31) scale(65.3758)" gradientUnits="userSpaceOnUse" id="d" x1="0.076" x2="0.994" xlink:actuate="onLoad" xlink:show="other" xlink:type="simple" y1="0" y2="0"><stop offset="0" stop-color="#178fc8"/><stop offset="0.004" stop-color="#188ec8"/><stop offset="0.008" stop-color="#198ec7"/><stop offset="0.012" stop-color="#1a8dc7"/><stop offset="0.016" stop-color="#1b8cc7"/><stop offset="0.02" stop-color="#1c8cc7"/><stop offset="0.023" stop-color="#1d8bc7"/><stop offset="0.027" stop-color="#1e8bc7"/><stop offset="0.031" stop-color="#1f8ac7"/><stop offset="0.035" stop-color="#208ac7"/><stop offset="0.039" stop-color="#2189c7"/><stop offset="0.043" stop-color="#2288c7"/><stop offset="0.047" stop-color="#2388c6"/><stop offset="0.051" stop-color="#2487c6"/><stop offset="0.055" stop-color="#2587c6"/><stop offset="0.059" stop-color="#2686c6"/><stop offset="0.063" stop-color="#2786c6"/><stop offset="0.066" stop-color="#2785c6"/><stop offset="0.07" stop-color="#2884c6"/><stop offset="0.074" stop-color="#2984c6"/><stop offset="0.078" stop-color="#2a83c6"/><stop offset="0.082" stop-color="#2b83c5"/><stop offset="0.086" stop-color="#2c82c5"/><stop offset="0.09" stop-color="#2d82c5"/><stop offset="0.094" stop-color="#2e81c5"/><stop offset="0.098" stop-color="#2f80c5"/><stop offset="0.102" stop-color="#3080c5"/><stop offset="0.105" stop-color="#317fc5"/><stop offset="0.109" stop-color="#327fc5"/><stop offset="0.113" stop-color="#337ec5"/><stop offset="0.117" stop-color="#347ec4"/><stop offset="0.121" stop-color="#357dc4"/><stop offset="0.125" stop-color="#367dc4"/><stop offset="0.129" stop-color="#377cc4"/><stop offset="0.133" stop-color="#377bc4"/><stop offset="0.137" stop-color="#387bc4"/><stop offset="0.141" stop-color="#397ac4"/><stop offset="0.145" stop-color="#3a7ac4"/><stop offset="0.148" stop-color="#3b79c4"/><stop offset="0.152" stop-color="#3c79c4"/><stop offset="0.156" stop-color="#3d78c3"/><stop offset="0.16" stop-color="#3e77c3"/><stop offset="0.164" stop-color="#3f77c3"/><stop offset="0.168" stop-color="#4076c3"/><stop offset="0.172" stop-color="#4176c3"/><stop offset="0.176" stop-color="#4275c3"/><stop offset="0.18" stop-color="#4375c3"/><stop offset="0.184" stop-color="#4474c3"/><stop offset="0.188" stop-color="#4474c3"/><stop offset="0.191" stop-color="#4573c2"/><stop offset="0.195" stop-color="#4672c2"/><stop offset="0.199" stop-color="#4772c2"/><stop offset="0.203" stop-color="#4871c2"/><stop offset="0.207" stop-color="#4971c2"/><stop offset="0.211" stop-color="#4a70c2"/><stop offset="0.215" stop-color="#4b70c2"/><stop offset="0.219" stop-color="#4c6fc2"/><stop offset="0.223" stop-color="#4d6fc2"/><stop offset="0.227" stop-color="#4e6ec2"/><stop offset="0.23" stop-color="#4f6dc1"/><stop offset="0.234" stop-color="#506dc1"/><stop offset="0.238" stop-color="#506cc1"/><stop offset="0.242" stop-color="#516cc1"/><stop offset="0.246" stop-color="#526bc1"/><stop offset="0.25" stop-color="#536bc1"/><stop offset="0.254" stop-color="#546ac1"/><stop offset="0.258" stop-color="#556ac1"/><stop offset="0.262" stop-color="#5669c1"/><stop offset="0.266" stop-color="#5768c1"/><stop offset="0.27" stop-color="#5868c0"/><stop offset="0.273" stop-color="#5967c0"/><stop offset="0.277" stop-color="#5a67c0"/><stop offset="0.281" stop-color="#5b66c0"/><stop offset="0.285" stop-color="#5b66c0"/><stop offset="0.289" stop-color="#5c65c0"/><stop offset="0.293" stop-color="#5d65c0"/><stop offset="0.297" stop-color="#5e64c0"/><stop offset="0.301" stop-color="#5f63c0"/><stop offset="0.305" stop-color="#6063bf"/><stop offset="0.309" stop-color="#6162bf"/><stop offset="0.313" stop-color="#6262bf"/><stop offset="0.316" stop-color="#6361bf"/><stop offset="0.32" stop-color="#6461bf"/><stop offset="0.324" stop-color="#6560bf"/><stop offset="0.328" stop-color="#6660bf"/><stop offset="0.332" stop-color="#665fbf"/><stop offset="0.336" stop-color="#675fbf"/><stop offset="0.34" stop-color="#685ebf"/><stop offset="0.344" stop-color="#695dbe"/><stop offset="0.348" stop-color="#6a5dbe"/><stop offset="0.352" stop-color="#6b5cbe"/><stop offset="0.355" stop-color="#6c5cbe"/><stop offset="0.359" stop-color="#6d5bbe"/><stop offset="0.363" stop-color="#6e5bbe"/><stop offset="0.367" stop-color="#6f5abe"/><stop offset="0.371" stop-color="#6f5abe"/><stop offset="0.375" stop-color="#7059be"/><stop offset="0.379" stop-color="#7159be"/><stop offset="0.383" stop-color="#7258bd"/><stop offset="0.387" stop-color="#7357bd"/><stop offset="0.391" stop-color="#7457bd"/><stop offset="0.395" stop-color="#7556bd"/><stop offset="0.398" stop-color="#7656bd"/><stop offset="0.402" stop-color="#7755bd"/><stop offset="0.406" stop-color="#7855bd"/><stop offset="0.41" stop-color="#7854bd"/><stop offset="0.414" stop-color="#7954bd"/><stop offset="0.418" stop-color="#7a53bd"/><stop offset="0.422" stop-color="#7b53bc"/><stop offset="0.426" stop-color="#7c52bc"/><stop offset="0.43" stop-color="#7d52bc"/><stop offset="0.434" stop-color="#7e51bc"/><stop offset="0.438" stop-color="#7f51bc"/><stop offset="0.441" stop-color="#8050bc"/><stop offset="0.445" stop-color="#804fbc"/><stop offset="0.449" stop-color="#814fbc"/><stop offset="0.453" stop-color="#824ebc"/><stop offset="0.457" stop-color="#834ebc"/><stop offset="0.461" stop-color="#844dbb"/><stop offset="0.465" stop-color="#854dbb"/><stop offset="0.469" stop-color="#864cbb"/><stop offset="0.473" stop-color="#874cbb"/><stop offset="0.477" stop-color="#874bbb"/><stop offset="0.48" stop-color="#884bbb"/><stop offset="0.484" stop-color="#894abb"/><stop offset="0.488" stop-color="#8a4abb"/><stop offset="0.492" stop-color="#8b49bb"/><stop offset="0.496" stop-color="#8c49bb"/><stop offset="0.5" stop-color="#8d48ba"/><stop offset="0.504" stop-color="#8e47ba"/><stop offset="0.508" stop-color="#8e47ba"/><stop offset="0.512" stop-color="#8f46ba"/><stop offset="0.516" stop-color="#9046ba"/><stop offset="0.52" stop-color="#9145ba"/><stop offset="0.523" stop-color="#9245ba"/><stop offset="0.527" stop-color="#9344ba"/><stop offset="0.531" stop-color="#9444ba"/><stop offset="0.535" stop-color="#9543ba"/><stop offset="0.539" stop-color="#9543b9"/><stop offset="0.543" stop-color="#9642b9"/><stop offset="0.547" stop-color="#9742b9"/><stop offset="0.551" stop-color="#9841b9"/><stop offset="0.555" stop-color="#9941b9"/><stop offset="0.559" stop-color="#9a40b9"/><stop offset="0.563" stop-color="#9b40b9"/><stop offset="0.566" stop-color="#9b3fb9"/><stop offset="0.57" stop-color="#9c3fb9"/><stop offset="0.574" stop-color="#9d3eb9"/><stop offset="0.578" stop-color="#9e3eb8"/><stop offset="0.582" stop-color="#9f3db8"/><stop offset="0.586" stop-color="#a03db8"/><stop offset="0.59" stop-color="#a13cb8"/><stop offset="0.594" stop-color="#a23bb8"/><stop offset="0.598" stop-color="#a23bb8"/><stop offset="0.602" stop-color="#a33ab8"/><stop offset="0.605" stop-color="#a43ab8"/><stop offset="0.609" stop-color="#a539b8"/><stop offset="0.613" stop-color="#a639b8"/><stop offset="0.617" stop-color="#a738b8"/><stop offset="0.621" stop-color="#a738b7"/><stop offset="0.625" stop-color="#a837b7"/><stop offset="0.629" stop-color="#a937b7"/><stop offset="0.633" stop-color="#aa36b7"/><stop offset="0.637" stop-color="#ab36b7"/><stop offset="0.641" stop-color="#ac35b7"/><stop offset="0.645" stop-color="#ad35b7"/><stop offset="0.648" stop-color="#ad34b7"/><stop offset="0.652" stop-color="#ae34b7"/><stop offset="0.656" stop-color="#af33b7"/><stop offset="0.66" stop-color="#b033b6"/><stop offset="0.664" stop-color="#b132b6"/><stop offset="0.668" stop-color="#b232b6"/><stop offset="0.672" stop-color="#b231b6"/><stop offset="0.676" stop-color="#b331b6"/><stop offset="0.68" stop-color="#b430b6"/><stop offset="0.684" stop-color="#b530b6"/><stop offset="0.688" stop-color="#b62fb6"/><stop offset="0.691" stop-color="#b72fb6"/><stop offset="0.695" stop-color="#b72eb6"/><stop offset="0.699" stop-color="#b82eb6"/><stop offset="0.703" stop-color="#b92db5"/><stop offset="0.707" stop-color="#ba2db5"/><stop offset="0.711" stop-color="#bb2cb5"/><stop offset="0.715" stop-color="#bb2cb5"/><stop offset="0.719" stop-color="#bc2bb5"/><stop offset="0.723" stop-color="#bd2bb5"/><stop offset="0.727" stop-color="#be2ab5"/><stop offset="0.73" stop-color="#bf2ab5"/><stop offset="0.734" stop-color="#c029b5"/><stop offset="0.738" stop-color="#c029b5"/><stop offset="0.742" stop-color="#c128b5"/><stop offset="0.746" stop-color="#c228b4"/><stop offset="0.75" stop-color="#c327b4"/><stop offset="0.754" stop-color="#c427b4"/><stop offset="0.758" stop-color="#c426b4"/><stop offset="0.762" stop-color="#c526b4"/><stop offset="0.766" stop-color="#c626b4"/><stop offset="0.77" stop-color="#c725b4"/><stop offset="0.773" stop-color="#c825b4"/><stop offset="0.777" stop-color="#c824b4"/><stop offset="0.781" stop-color="#c924b4"/><stop offset="0.785" stop-color="#ca23b4"/><stop offset="0.789" stop-color="#cb23b3"/><stop offset="0.793" stop-color="#cc22b3"/><stop offset="0.797" stop-color="#cc22b3"/><stop offset="0.801" stop-color="#cd21b3"/><stop offset="0.805" stop-color="#ce21b3"/><stop offset="0.809" stop-color="#cf20b3"/><stop offset="0.813" stop-color="#cf20b3"/><stop offset="0.816" stop-color="#d01fb3"/><stop offset="0.82" stop-color="#d11fb3"/><stop offset="0.824" stop-color="#d21eb3"/><stop offset="0.828" stop-color="#d31eb3"/><stop offset="0.832" stop-color="#d31db2"/><stop offset="0.836" stop-color="#d41db2"/><stop offset="0.84" stop-color="#d51db2"/><stop offset="0.844" stop-color="#d61cb2"/><stop offset="0.848" stop-color="#d61cb2"/><stop offset="0.852" stop-color="#d71bb2"/><stop offset="0.855" stop-color="#d81bb2"/><stop offset="0.859" stop-color="#d91ab2"/><stop offset="0.863" stop-color="#d91ab2"/><stop offset="0.867" stop-color="#da19b2"/><stop offset="0.871" stop-color="#db19b2"/><stop offset="0.875" stop-color="#dc18b2"/><stop offset="0.879" stop-color="#dc18b1"/><stop offset="0.883" stop-color="#dd18b1"/><stop offset="0.887" stop-color="#de17b1"/><stop offset="0.891" stop-color="#df17b1"/><stop offset="0.895" stop-color="#df16b1"/><stop offset="0.898" stop-color="#e016b1"/><stop offset="0.902" stop-color="#e115b1"/><stop offset="0.906" stop-color="#e215b1"/><stop offset="0.91" stop-color="#e214b1"/><stop offset="0.914" stop-color="#e314b1"/><stop offset="0.918" stop-color="#e414b1"/><stop offset="0.922" stop-color="#e413b1"/><stop offset="0.926" stop-color="#e513b0"/><stop offset="0.93" stop-color="#e612b0"/><stop offset="0.934" stop-color="#e612b0"/><stop offset="0.938" stop-color="#e712b0"/><stop offset="0.941" stop-color="#e811b0"/><stop offset="0.945" stop-color="#e911b0"/><stop offset="0.949" stop-color="#e910b0"/><stop offset="0.953" stop-color="#ea10b0"/><stop offset="0.957" stop-color="#eb0fb0"/><stop offset="0.961" stop-color="#eb0fb0"/><stop offset="0.965" stop-color="#ec0fb0"/><stop offset="0.969" stop-color="#ed0eb0"/><stop offset="0.973" stop-color="#ed0eb0"/><stop offset="0.977" stop-color="#ee0eaf"/><stop offset="0.98" stop-color="#ee0daf"/><stop offset="0.984" stop-color="#ef0daf"/><stop offset="0.988" stop-color="#f00caf"/><stop offset="0.992" stop-color="#f00caf"/><stop offset="0.996" stop-color="#f10caf"/><stop offset="1" stop-color="#f10baf"/></linearGradient><linearGradient gradientTransform="translate(-3 40) scale(65.3758)" gradientUnits="userSpaceOnUse" id="h" x1="0.489" x2="0.581" xlink:actuate="onLoad" xlink:show="other" xlink:type="simple" y1="0" y2="0"><stop offset="0" stop-color="#814fbc"/><stop offset="0.031" stop-color="#824fbc"/><stop offset="0.063" stop-color="#834ebc"/><stop offset="0.094" stop-color="#834ebc"/><stop offset="0.125" stop-color="#844dbb"/><stop offset="0.156" stop-color="#854dbb"/><stop offset="0.188" stop-color="#854cbb"/><stop offset="0.219" stop-color="#864cbb"/><stop offset="0.25" stop-color="#874cbb"/><stop offset="0.281" stop-color="#874bbb"/><stop offset="0.313" stop-color="#884bbb"/><stop offset="0.344" stop-color="#894abb"/><stop offset="0.375" stop-color="#8a4abb"/><stop offset="0.406" stop-color="#8a49bb"/><stop offset="0.438" stop-color="#8b49bb"/><stop offset="0.469" stop-color="#8c49bb"/><stop offset="0.5" stop-color="#8c48ba"/><stop offset="0.531" stop-color="#8d48ba"/><stop offset="0.563" stop-color="#8e47ba"/><stop offset="0.594" stop-color="#8e47ba"/><stop offset="0.625" stop-color="#8f47ba"/><stop offset="0.656" stop-color="#9046ba"/><stop offset="0.688" stop-color="#9146ba"/><stop offset="0.719" stop-color="#9145ba"/><stop offset="0.75" stop-color="#9245ba"/><stop offset="0.781" stop-color="#9344ba"/><stop offset="0.813" stop-color="#9344ba"/><stop offset="0.844" stop-color="#9444ba"/><stop offset="0.875" stop-color="#9543ba"/><stop offset="0.906" stop-color="#9543b9"/><stop offset="0.938" stop-color="#9642b9"/><stop offset="0.969" stop-color="#9742b9"/><stop offset="1" stop-color="#9842b9"/></linearGradient><linearGradient gradientTransform="translate(-3 40) scale(65.3758)" gradientUnits="userSpaceOnUse" id="l" x1="0.337" x2="0.428" xlink:actuate="onLoad" xlink:show="other" xlink:type="simple" y1="0" y2="0"><stop offset="0" stop-color="#5b66c0"/><stop offset="0.031" stop-color="#5b66c0"/><stop offset="0.063" stop-color="#5c65c0"/><stop offset="0.094" stop-color="#5d65c0"/><stop offset="0.125" stop-color="#5e64c0"/><stop offset="0.156" stop-color="#5e64c0"/><stop offset="0.188" stop-color="#5f64c0"/><stop offset="0.219" stop-color="#6063c0"/><stop offset="0.25" stop-color="#6163bf"/><stop offset="0.281" stop-color="#6162bf"/><stop offset="0.313" stop-color="#6262bf"/><stop offset="0.344" stop-color="#6361bf"/><stop offset="0.375" stop-color="#6361bf"/><stop offset="0.406" stop-color="#6460bf"/><stop offset="0.438" stop-color="#6560bf"/><stop offset="0.469" stop-color="#6660bf"/><stop offset="0.5" stop-color="#665fbf"/><stop offset="0.531" stop-color="#675fbf"/><stop offset="0.563" stop-color="#685ebf"/><stop offset="0.594" stop-color="#695ebf"/><stop offset="0.625" stop-color="#695dbe"/><stop offset="0.656" stop-color="#6a5dbe"/><stop offset="0.688" stop-color="#6b5dbe"/><stop offset="0.719" stop-color="#6b5cbe"/><stop offset="0.75" stop-color="#6c5cbe"/><stop offset="0.781" stop-color="#6d5bbe"/><stop offset="0.813" stop-color="#6e5bbe"/><stop offset="0.844" stop-color="#6e5abe"/><stop offset="0.875" stop-color="#6f5abe"/><stop offset="0.906" stop-color="#7059be"/><stop offset="0.938" stop-color="#7059be"/><stop offset="0.969" stop-color="#7159be"/><stop offset="1" stop-color="#7258bd"/></linearGradient><linearGradient gradientTransform="translate(-3 40) scale(65.3758)" gradientUnits="userSpaceOnUse" id="p" x1="0.184" x2="0.275" xlink:actuate="onLoad" xlink:show="other" xlink:type="simple" y1="0" y2="0"><stop offset="0" stop-color="#347ec5"/><stop offset="0.031" stop-color="#347ec4"/><stop offset="0.063" stop-color="#357dc4"/><stop offset="0.094" stop-color="#357dc4"/><stop offset="0.125" stop-color="#367cc4"/><stop offset="0.156" stop-color="#377cc4"/><stop offset="0.188" stop-color="#387bc4"/><stop offset="0.219" stop-color="#387bc4"/><stop offset="0.25" stop-color="#397ac4"/><stop offset="0.281" stop-color="#3a7ac4"/><stop offset="0.313" stop-color="#3b79c4"/><stop offset="0.344" stop-color="#3b79c4"/><stop offset="0.375" stop-color="#3c79c4"/><stop offset="0.406" stop-color="#3d78c3"/><stop offset="0.438" stop-color="#3e78c3"/><stop offset="0.469" stop-color="#3e77c3"/><stop offset="0.5" stop-color="#3f77c3"/><stop offset="0.531" stop-color="#4076c3"/><stop offset="0.563" stop-color="#4176c3"/><stop offset="0.594" stop-color="#4175c3"/><stop offset="0.625" stop-color="#4275c3"/><stop offset="0.656" stop-color="#4375c3"/><stop offset="0.688" stop-color="#4474c3"/><stop offset="0.719" stop-color="#4474c3"/><stop offset="0.75" stop-color="#4573c3"/><stop offset="0.781" stop-color="#4673c2"/><stop offset="0.813" stop-color="#4772c2"/><stop offset="0.844" stop-color="#4772c2"/><stop offset="0.875" stop-color="#4871c2"/><stop offset="0.906" stop-color="#4971c2"/><stop offset="0.938" stop-color="#4a70c2"/><stop offset="0.969" stop-color="#4a70c2"/><stop offset="1" stop-color="#4b70c2"/></linearGradient><linearGradient gradientTransform="translate(-3 40) scale(65.3758)" gradientUnits="userSpaceOnUse" id="t" x1="0.795" x2="0.887" xlink:actuate="onLoad" xlink:show="other" xlink:type="simple" y1="0" y2="0"><stop offset="0" stop-color="#ca23b4"/><stop offset="0.031" stop-color="#ca23b4"/><stop offset="0.063" stop-color="#cb23b3"/><stop offset="0.094" stop-color="#cb22b3"/><stop offset="0.125" stop-color="#cc22b3"/><stop offset="0.156" stop-color="#cc22b3"/><stop offset="0.188" stop-color="#cd21b3"/><stop offset="0.219" stop-color="#ce21b3"/><stop offset="0.25" stop-color="#ce20b3"/><stop offset="0.281" stop-color="#cf20b3"/><stop offset="0.313" stop-color="#d020b3"/><stop offset="0.344" stop-color="#d01fb3"/><stop offset="0.375" stop-color="#d11fb3"/><stop offset="0.406" stop-color="#d11fb3"/><stop offset="0.438" stop-color="#d21eb3"/><stop offset="0.469" stop-color="#d31eb3"/><stop offset="0.5" stop-color="#d31db2"/><stop offset="0.531" stop-color="#d41db2"/><stop offset="0.563" stop-color="#d51db2"/><stop offset="0.594" stop-color="#d51cb2"/><stop offset="0.625" stop-color="#d61cb2"/><stop offset="0.656" stop-color="#d61cb2"/><stop offset="0.688" stop-color="#d71bb2"/><stop offset="0.719" stop-color="#d81bb2"/><stop offset="0.75" stop-color="#d81bb2"/><stop offset="0.781" stop-color="#d91ab2"/><stop offset="0.813" stop-color="#d91ab2"/><stop offset="0.844" stop-color="#da19b2"/><stop offset="0.875" stop-color="#db19b2"/><stop offset="0.906" stop-color="#db19b2"/><stop offset="0.938" stop-color="#dc18b2"/><stop offset="0.969" stop-color="#dc18b1"/><stop offset="1" stop-color="#dd18b1"/></linearGradient><linearGradient gradientTransform="translate(-3 40) scale(65.3758)" gradientUnits="userSpaceOnUse" id="x" x1="0.642" x2="0.734" xlink:actuate="onLoad" xlink:show="other" xlink:type="simple" y1="0" y2="0"><stop offset="0" stop-color="#a638b8"/><stop offset="0.031" stop-color="#a738b7"/><stop offset="0.063" stop-color="#a838b7"/><stop offset="0.094" stop-color="#a837b7"/><stop offset="0.125" stop-color="#a937b7"/><stop offset="0.156" stop-color="#aa37b7"/><stop offset="0.188" stop-color="#aa36b7"/><stop offset="0.219" stop-color="#ab36b7"/><stop offset="0.25" stop-color="#ac35b7"/><stop offset="0.281" stop-color="#ac35b7"/><stop offset="0.313" stop-color="#ad35b7"/><stop offset="0.344" stop-color="#ae34b7"/><stop offset="0.375" stop-color="#ae34b7"/><stop offset="0.406" stop-color="#af33b7"/><stop offset="0.438" stop-color="#b033b6"/><stop offset="0.469" stop-color="#b033b6"/><stop offset="0.5" stop-color="#b132b6"/><stop offset="0.531" stop-color="#b232b6"/><stop offset="0.563" stop-color="#b231b6"/><stop offset="0.594" stop-color="#b331b6"/><stop offset="0.625" stop-color="#b431b6"/><stop offset="0.656" stop-color="#b430b6"/><stop offset="0.688" stop-color="#b530b6"/><stop offset="0.719" stop-color="#b62fb6"/><stop offset="0.75" stop-color="#b62fb6"/><stop offset="0.781" stop-color="#b72fb6"/><stop offset="0.813" stop-color="#b82eb6"/><stop offset="0.844" stop-color="#b82eb6"/><stop offset="0.875" stop-color="#b92db5"/><stop offset="0.906" stop-color="#ba2db5"/><stop offset="0.938" stop-color="#ba2db5"/><stop offset="0.969" stop-color="#bb2cb5"/><stop offset="1" stop-color="#bc2cb5"/></linearGradient><linearGradient gradientTransform="translate(-3 26) scale(65.3758)" gradientUnits="userSpaceOnUse" id="y" x1="0.704" x2="0.734" xlink:actuate="onLoad" xlink:show="other" xlink:type="simple" y1="0" y2="0"><stop offset="0" stop-color="#b530b6"/><stop offset="0.125" stop-color="#b530b6"/><stop offset="0.25" stop-color="#b62fb6"/><stop offset="0.375" stop-color="#b72fb6"/><stop offset="0.5" stop-color="#b82eb6"/><stop offset="0.625" stop-color="#b92db5"/><stop offset="0.75" stop-color="#ba2db5"/><stop offset="0.875" stop-color="#bb2cb5"/><stop offset="1" stop-color="#bb2cb5"/></linearGradient><linearGradient gradientTransform="translate(-3 18.598) scale(65.3758)" gradientUnits="userSpaceOnUse" id="C" x1="0.535" x2="0.734" xlink:actuate="onLoad" xlink:show="other" xlink:type="simple" y1="0" y2="0"><stop offset="0" stop-color="#8d48ba"/><stop offset="0.016" stop-color="#8d48ba"/><stop offset="0.031" stop-color="#8e47ba"/><stop offset="0.047" stop-color="#8f47ba"/><stop offset="0.063" stop-color="#8f46ba"/><stop offset="0.078" stop-color="#9046ba"/><stop offset="0.094" stop-color="#9146ba"/><stop offset="0.109" stop-color="#9245ba"/><stop offset="0.125" stop-color="#9245ba"/><stop offset="0.141" stop-color="#9344ba"/><stop offset="0.156" stop-color="#9444ba"/><stop offset="0.172" stop-color="#9543ba"/><stop offset="0.188" stop-color="#9543b9"/><stop offset="0.203" stop-color="#9642b9"/><stop offset="0.219" stop-color="#9742b9"/><stop offset="0.234" stop-color="#9841b9"/><stop offset="0.25" stop-color="#9841b9"/><stop offset="0.266" stop-color="#9941b9"/><stop offset="0.281" stop-color="#9a40b9"/><stop offset="0.297" stop-color="#9b40b9"/><stop offset="0.313" stop-color="#9b3fb9"/><stop offset="0.328" stop-color="#9c3fb9"/><stop offset="0.344" stop-color="#9d3eb9"/><stop offset="0.359" stop-color="#9e3eb9"/><stop offset="0.375" stop-color="#9e3db8"/><stop offset="0.391" stop-color="#9f3db8"/><stop offset="0.406" stop-color="#a03cb8"/><stop offset="0.422" stop-color="#a13cb8"/><stop offset="0.438" stop-color="#a13cb8"/><stop offset="0.453" stop-color="#a23bb8"/><stop offset="0.469" stop-color="#a33bb8"/><stop offset="0.484" stop-color="#a43ab8"/><stop offset="0.5" stop-color="#a43ab8"/><stop offset="0.516" stop-color="#a539b8"/><stop offset="0.531" stop-color="#a639b8"/><stop offset="0.547" stop-color="#a638b8"/><stop offset="0.563" stop-color="#a738b7"/><stop offset="0.578" stop-color="#a838b7"/><stop offset="0.594" stop-color="#a937b7"/><stop offset="0.609" stop-color="#a937b7"/><stop offset="0.625" stop-color="#aa36b7"/><stop offset="0.641" stop-color="#ab36b7"/><stop offset="0.656" stop-color="#ac35b7"/><stop offset="0.672" stop-color="#ac35b7"/><stop offset="0.688" stop-color="#ad35b7"/><stop offset="0.703" stop-color="#ae34b7"/><stop offset="0.719" stop-color="#af34b7"/><stop offset="0.734" stop-color="#af33b7"/><stop offset="0.75" stop-color="#b033b6"/><stop offset="0.766" stop-color="#b132b6"/><stop offset="0.781" stop-color="#b132b6"/><stop offset="0.797" stop-color="#b231b6"/><stop offset="0.813" stop-color="#b331b6"/><stop offset="0.828" stop-color="#b431b6"/><stop offset="0.844" stop-color="#b430b6"/><stop offset="0.859" stop-color="#b530b6"/><stop offset="0.875" stop-color="#b62fb6"/><stop offset="0.891" stop-color="#b62fb6"/><stop offset="0.906" stop-color="#b72eb6"/><stop offset="0.922" stop-color="#b82eb6"/><stop offset="0.938" stop-color="#b92eb5"/><stop offset="0.953" stop-color="#b92db5"/><stop offset="0.969" stop-color="#ba2db5"/><stop offset="0.984" stop-color="#bb2cb5"/><stop offset="1" stop-color="#bb2cb5"/></linearGradient><linearGradient gradientTransform="translate(-3 12) scale(65.3758)" gradientUnits="userSpaceOnUse" id="D" x1="0.933" x2="0.964" xlink:actuate="onLoad" xlink:show="other" xlink:type="simple" y1="0" y2="0"><stop offset="0" stop-color="#e612b0"/><stop offset="0.125" stop-color="#e712b0"/><stop offset="0.25" stop-color="#e811b0"/><stop offset="0.375" stop-color="#e811b0"/><stop offset="0.5" stop-color="#e910b0"/><stop offset="0.625" stop-color="#ea10b0"/><stop offset="0.75" stop-color="#ea10b0"/><stop offset="0.875" stop-color="#eb0fb0"/><stop offset="1" stop-color="#ec0fb0"/></linearGradient><linearGradient gradientTransform="translate(-3 16) scale(65.3758)" gradientUnits="userSpaceOnUse" id="E" x1="0.933" x2="0.964" xlink:actuate="onLoad" xlink:show="other" xlink:type="simple" y1="0" y2="0"><stop offset="0" stop-color="#e612b0"/><stop offset="0.125" stop-color="#e712b0"/><stop offset="0.25" stop-color="#e811b0"/><stop offset="0.375" stop-color="#e811b0"/><stop offset="0.5" stop-color="#e910b0"/><stop offset="0.625" stop-color="#ea10b0"/><stop offset="0.75" stop-color="#ea10b0"/><stop offset="0.875" stop-color="#eb0fb0"/><stop offset="1" stop-color="#ec0fb0"/></linearGradient><linearGradient gradientTransform="translate(-3 14) scale(65.3758)" gradientUnits="userSpaceOnUse" id="F" x1="0.902" x2="0.933" xlink:actuate="onLoad" xlink:show="other" xlink:type="simple" y1="0" y2="0"><stop offset="0" stop-color="#e016b1"/><stop offset="0.125" stop-color="#e115b1"/><stop offset="0.25" stop-color="#e215b1"/><stop offset="0.375" stop-color="#e214b1"/><stop offset="0.5" stop-color="#e314b1"/><stop offset="0.625" stop-color="#e414b1"/><stop offset="0.75" stop-color="#e513b1"/><stop offset="0.875" stop-color="#e513b0"/><stop offset="1" stop-color="#e612b0"/></linearGradient><linearGradient gradientTransform="translate(-3 14) scale(65.3758)" gradientUnits="userSpaceOnUse" id="G" x1="0.964" x2="0.994" xlink:actuate="onLoad" xlink:show="other" xlink:type="simple" y1="0" y2="0"><stop offset="0" stop-color="#ec0fb0"/><stop offset="0.125" stop-color="#ed0eb0"/><stop offset="0.25" stop-color="#ed0eb0"/><stop offset="0.375" stop-color="#ee0daf"/><stop offset="0.5" stop-color="#ef0daf"/><stop offset="0.625" stop-color="#ef0daf"/><stop offset="0.75" stop-color="#f00caf"/><stop offset="0.875" stop-color="#f00caf"/><stop offset="1" stop-color="#f10caf"/></linearGradient><linearGradient gradientTransform="translate(-3 52) scale(65.3758)" gradientUnits="userSpaceOnUse" id="H" x1="0.107" x2="0.138" xlink:actuate="onLoad" xlink:show="other" xlink:type="simple" y1="0" y2="0"><stop offset="0" stop-color="#1f8ac7"/><stop offset="0.063" stop-color="#208ac7"/><stop offset="0.125" stop-color="#2089c7"/><stop offset="0.188" stop-color="#2189c7"/><stop offset="0.25" stop-color="#2189c7"/><stop offset="0.313" stop-color="#2288c7"/><stop offset="0.375" stop-color="#2288c6"/><stop offset="0.438" stop-color="#2388c6"/><stop offset="0.5" stop-color="#2388c6"/><stop offset="0.563" stop-color="#2487c6"/><stop offset="0.625" stop-color="#2487c6"/><stop offset="0.688" stop-color="#2587c6"/><stop offset="0.75" stop-color="#2586c6"/><stop offset="0.813" stop-color="#2686c6"/><stop offset="0.875" stop-color="#2686c6"/><stop offset="0.938" stop-color="#2785c6"/><stop offset="1" stop-color="#2785c6"/></linearGradient><linearGradient gradientTransform="translate(-3 56) scale(65.3758)" gradientUnits="userSpaceOnUse" id="I" x1="0.107" x2="0.138" xlink:actuate="onLoad" xlink:show="other" xlink:type="simple" y1="0" y2="0"><stop offset="0" stop-color="#1f8ac7"/><stop offset="0.063" stop-color="#208ac7"/><stop offset="0.125" stop-color="#2089c7"/><stop offset="0.188" stop-color="#2189c7"/><stop offset="0.25" stop-color="#2189c7"/><stop offset="0.313" stop-color="#2288c7"/><stop offset="0.375" stop-color="#2288c6"/><stop offset="0.438" stop-color="#2388c6"/><stop offset="0.5" stop-color="#2388c6"/><stop offset="0.563" stop-color="#2487c6"/><stop offset="0.625" stop-color="#2487c6"/><stop offset="0.688" stop-color="#2587c6"/><stop offset="0.75" stop-color="#2586c6"/><stop offset="0.813" stop-color="#2686c6"/><stop offset="0.875" stop-color="#2686c6"/><stop offset="0.938" stop-color="#2785c6"/><stop offset="1" stop-color="#2785c6"/></linearGradient><linearGradient gradientTransform="translate(-3 54) scale(65.3758)" gradientUnits="userSpaceOnUse" id="J" x1="0.076" x2="0.107" xlink:actuate="onLoad" xlink:show="other" xlink:type="simple" y1="0" y2="0"><stop offset="0" stop-color="#178fc8"/><stop offset="0.063" stop-color="#188fc8"/><stop offset="0.125" stop-color="#188ec8"/><stop offset="0.188" stop-color="#198ec8"/><stop offset="0.25" stop-color="#198ec7"/><stop offset="0.313" stop-color="#1a8dc7"/><stop offset="0.375" stop-color="#1a8dc7"/><stop offset="0.438" stop-color="#1b8dc7"/><stop offset="0.5" stop-color="#1b8cc7"/><stop offset="0.563" stop-color="#1c8cc7"/><stop offset="0.625" stop-color="#1c8cc7"/><stop offset="0.688" stop-color="#1d8cc7"/><stop offset="0.75" stop-color="#1d8bc7"/><stop offset="0.813" stop-color="#1e8bc7"/><stop offset="0.875" stop-color="#1e8bc7"/><stop offset="0.938" stop-color="#1f8ac7"/><stop offset="1" stop-color="#1f8ac7"/></linearGradient><linearGradient gradientTransform="translate(-3 54) scale(65.3758)" gradientUnits="userSpaceOnUse" id="K" x1="0.138" x2="0.168" xlink:actuate="onLoad" xlink:show="other" xlink:type="simple" y1="0" y2="0"><stop offset="0" stop-color="#2885c6"/><stop offset="0.063" stop-color="#2885c6"/><stop offset="0.125" stop-color="#2885c6"/><stop offset="0.188" stop-color="#2984c6"/><stop offset="0.25" stop-color="#2984c6"/><stop offset="0.313" stop-color="#2a84c6"/><stop offset="0.375" stop-color="#2a83c6"/><stop offset="0.438" stop-color="#2b83c5"/><stop offset="0.5" stop-color="#2b83c5"/><stop offset="0.563" stop-color="#2c82c5"/><stop offset="0.625" stop-color="#2c82c5"/><stop offset="0.688" stop-color="#2d82c5"/><stop offset="0.75" stop-color="#2d81c5"/><stop offset="0.813" stop-color="#2e81c5"/><stop offset="0.875" stop-color="#2e81c5"/><stop offset="0.938" stop-color="#2f81c5"/><stop offset="1" stop-color="#2f80c5"/></linearGradient><linearGradient gradientTransform="translate(-3 57) scale(65.3758)" gradientUnits="userSpaceOnUse" id="L" x1="0.245" x2="0.275" xlink:actuate="onLoad" xlink:show="other" xlink:type="simple" y1="0" y2="0"><stop offset="0" stop-color="#4374c3"/><stop offset="0.125" stop-color="#4474c3"/><stop offset="0.25" stop-color="#4573c3"/><stop offset="0.375" stop-color="#4673c2"/><stop offset="0.5" stop-color="#4772c2"/><stop offset="0.625" stop-color="#4871c2"/><stop offset="0.75" stop-color="#4971c2"/><stop offset="0.875" stop-color="#4a70c2"/><stop offset="1" stop-color="#4b70c2"/></linearGradient><linearGradient gradientTransform="translate(-3 61) scale(65.3758)" gradientUnits="userSpaceOnUse" id="M" x1="0.245" x2="0.275" xlink:actuate="onLoad" xlink:show="other" xlink:type="simple" y1="0" y2="0"><stop offset="0" stop-color="#4374c3"/><stop offset="0.125" stop-color="#4474c3"/><stop offset="0.25" stop-color="#4573c3"/><stop offset="0.375" stop-color="#4673c2"/><stop offset="0.5" stop-color="#4772c2"/><stop offset="0.625" stop-color="#4871c2"/><stop offset="0.75" stop-color="#4971c2"/><stop offset="0.875" stop-color="#4a70c2"/><stop offset="1" stop-color="#4b70c2"/></linearGradient><linearGradient gradientTransform="translate(-3 59) scale(65.3758)" gradientUnits="userSpaceOnUse" id="N" x1="0.214" x2="0.245" xlink:actuate="onLoad" xlink:show="other" xlink:type="simple" y1="0" y2="0"><stop offset="0" stop-color="#3c79c4"/><stop offset="0.125" stop-color="#3c79c4"/><stop offset="0.25" stop-color="#3d78c3"/><stop offset="0.375" stop-color="#3e77c3"/><stop offset="0.5" stop-color="#3f77c3"/><stop offset="0.625" stop-color="#4076c3"/><stop offset="0.75" stop-color="#4176c3"/><stop offset="0.875" stop-color="#4275c3"/><stop offset="1" stop-color="#4374c3"/></linearGradient><linearGradient gradientTransform="translate(-3 59) scale(65.3758)" gradientUnits="userSpaceOnUse" id="O" x1="0.275" x2="0.306" xlink:actuate="onLoad" xlink:show="other" xlink:type="simple" y1="0" y2="0"><stop offset="0" stop-color="#4b6fc2"/><stop offset="0.125" stop-color="#4c6fc2"/><stop offset="0.25" stop-color="#4d6ec2"/><stop offset="0.375" stop-color="#4e6ec2"/><stop offset="0.5" stop-color="#4f6dc1"/><stop offset="0.625" stop-color="#506dc1"/><stop offset="0.75" stop-color="#516cc1"/><stop offset="0.875" stop-color="#526cc1"/><stop offset="1" stop-color="#536bc1"/></linearGradient><linearGradient gradientTransform="translate(-3 3) scale(65.3758)" gradientUnits="userSpaceOnUse" id="P" x1="0.841" x2="0.872" xlink:actuate="onLoad" xlink:show="other" xlink:type="simple" y1="0" y2="0"><stop offset="0" stop-color="#d41db2"/><stop offset="0.125" stop-color="#d41db2"/><stop offset="0.25" stop-color="#d51db2"/><stop offset="0.375" stop-color="#d61cb2"/><stop offset="0.5" stop-color="#d61cb2"/><stop offset="0.625" stop-color="#d71bb2"/><stop offset="0.75" stop-color="#d81bb2"/><stop offset="0.875" stop-color="#d91ab2"/><stop offset="1" stop-color="#da1ab2"/></linearGradient><linearGradient gradientTransform="translate(-3 7) scale(65.3758)" gradientUnits="userSpaceOnUse" id="Q" x1="0.841" x2="0.872" xlink:actuate="onLoad" xlink:show="other" xlink:type="simple" y1="0" y2="0"><stop offset="0" stop-color="#d41db2"/><stop offset="0.125" stop-color="#d41db2"/><stop offset="0.25" stop-color="#d51db2"/><stop offset="0.375" stop-color="#d61cb2"/><stop offset="0.5" stop-color="#d61cb2"/><stop offset="0.625" stop-color="#d71bb2"/><stop offset="0.75" stop-color="#d81bb2"/><stop offset="0.875" stop-color="#d91ab2"/><stop offset="1" stop-color="#da1ab2"/></linearGradient><linearGradient gradientTransform="translate(-3 5) scale(65.3758)" gradientUnits="userSpaceOnUse" id="R" x1="0.811" x2="0.841" xlink:actuate="onLoad" xlink:show="other" xlink:type="simple" y1="0" y2="0"><stop offset="0" stop-color="#cd21b3"/><stop offset="0.125" stop-color="#cd21b3"/><stop offset="0.25" stop-color="#ce21b3"/><stop offset="0.375" stop-color="#cf20b3"/><stop offset="0.5" stop-color="#d020b3"/><stop offset="0.625" stop-color="#d11fb3"/><stop offset="0.75" stop-color="#d21fb3"/><stop offset="0.875" stop-color="#d21eb3"/><stop offset="1" stop-color="#d31eb2"/></linearGradient><linearGradient gradientTransform="translate(-3 5) scale(65.3758)" gradientUnits="userSpaceOnUse" id="S" x1="0.872" x2="0.902" xlink:actuate="onLoad" xlink:show="other" xlink:type="simple" y1="0" y2="0"><stop offset="0" stop-color="#da19b2"/><stop offset="0.125" stop-color="#da19b2"/><stop offset="0.25" stop-color="#db19b2"/><stop offset="0.375" stop-color="#dc18b1"/><stop offset="0.5" stop-color="#dd18b1"/><stop offset="0.625" stop-color="#de17b1"/><stop offset="0.75" stop-color="#de17b1"/><stop offset="0.875" stop-color="#df16b1"/><stop offset="1" stop-color="#e016b1"/></linearGradient><clipPath id="a"><path d="M 2 7 L 62 7 L 62 55 L 2 55 Z M 2 7"/></clipPath><clipPath id="b"><path d="M 55 45 L 9 45 C 6.242188 45 4 42.757812 4 40 C 4 37.242188 6.242188 35 9 35 L 55 35 C 57.757812 35 60 37.242188 60 40 C 60 42.757812 57.757812 45 55 45 Z M 51.382812 49 L 12.617188 49 L 11.617188 47 L 52.382812 47 Z M 32 53 C 26.84375 53 21.972656 52.230469 18.742188 51 L 45.257812 51 C 42.027344 52.230469 37.15625 53 32 53 Z M 12.617188 31 L 51.382812 31 L 52.382812 33 L 11.617188 33 Z M 32 12 C 41.375 12 49 19.625 49 29 L 15 29 C 15 19.625 22.625 12 32 12 Z M 55 33 L 54.617188 33 L 52.894531 29.550781 C 52.726562 29.214844 52.378906 29 52 29 L 51 29 C 51 18.859375 43.011719 10.574219 33 10.050781 L 33 8 C 33 7.449219 32.550781 7 32 7 C 31.449219 7 31 7.449219 31 8 L 31 10.050781 C 20.988281 10.574219 13 18.859375 13 29 L 12 29 C 11.621094 29 11.273438 29.214844 11.105469 29.550781 L 9.382812 33 L 9 33 C 5.140625 33 2 36.140625 2 40 C 2 43.859375 5.140625 47 9 47 L 9.382812 47 L 11.105469 50.449219 C 11.273438 50.785156 11.621094 51 12 51 L 14.636719 51 C 17.582031 53.4375 24.296875 55 32 55 C 39.703125 55 46.417969 53.4375 49.363281 51 L 52 51 C 52.378906 51 52.726562 50.785156 52.894531 50.449219 L 54.617188 47 L 55 47 C 58.859375 47 62 43.859375 62 40 C 62 36.140625 58.859375 33 55 33 Z M 55 33"/></clipPath><clipPath id="c"><path d="M 55 45 L 9 45 C 6.242188 45 4 42.757812 4 40 C 4 37.242188 6.242188 35 9 35 L 55 35 C 57.757812 35 60 37.242188 60 40 C 60 42.757812 57.757812 45 55 45 Z M 51.382812 49 L 12.617188 49 L 11.617188 47 L 52.382812 47 Z M 32 53 C 26.84375 53 21.972656 52.230469 18.742188 51 L 45.257812 51 C 42.027344 52.230469 37.15625 53 32 53 Z M 12.617188 31 L 51.382812 31 L 52.382812 33 L 11.617188 33 Z M 32 12 C 41.375 12 49 19.625 49 29 L 15 29 C 15 19.625 22.625 12 32 12 Z M 55 33 L 54.617188 33 L 52.894531 29.550781 C 52.726562 29.214844 52.378906 29 52 29 L 51 29 C 51 18.859375 43.011719 10.574219 33 10.050781 L 33 8 C 33 7.449219 32.550781 7 32 7 C 31.449219 7 31 7.449219 31 8 L 31 10.050781 C 20.988281 10.574219 13 18.859375 13 29 L 12 29 C 11.621094 29 11.273438 29.214844 11.105469 29.550781 L 9.382812 33 L 9 33 C 5.140625 33 2 36.140625 2 40 C 2 43.859375 5.140625 47 9 47 L 9.382812 47 L 11.105469 50.449219 C 11.273438 50.785156 11.621094 51 12 51 L 14.636719 51 C 17.582031 53.4375 24.296875 55 32 55 C 39.703125 55 46.417969 53.4375 49.363281 51 L 52 51 C 52.378906 51 52.726562 50.785156 52.894531 50.449219 L 54.617188 47 L 55 47 C 58.859375 47 62 43.859375 62 40 C 62 36.140625 58.859375 33 55 33"/></clipPath><clipPath id="e"><path d="M 29 37 L 35 37 L 35 43 L 29 43 Z M 29 37"/></clipPath><clipPath id="f"><path d="M 32 41 C 31.449219 41 31 40.550781 31 40 C 31 39.449219 31.449219 39 32 39 C 32.550781 39 33 39.449219 33 40 C 33 40.550781 32.550781 41 32 41 Z M 32 37 C 30.34375 37 29 38.34375 29 40 C 29 41.65625 30.34375 43 32 43 C 33.65625 43 35 41.65625 35 40 C 35 38.34375 33.65625 37 32 37 Z M 32 37"/></clipPath><clipPath id="g"><path d="M 32 41 C 31.449219 41 31 40.550781 31 40 C 31 39.449219 31.449219 39 32 39 C 32.550781 39 33 39.449219 33 40 C 33 40.550781 32.550781 41 32 41 Z M 32 37 C 30.34375 37 29 38.34375 29 40 C 29 41.65625 30.34375 43 32 43 C 33.65625 43 35 41.65625 35 40 C 35 38.34375 33.65625 37 32 37"/></clipPath><clipPath id="i"><path d="M 19 37 L 25 37 L 25 43 L 19 43 Z M 19 37"/></clipPath><clipPath id="j"><path d="M 22 41 C 21.449219 41 21 40.550781 21 40 C 21 39.449219 21.449219 39 22 39 C 22.550781 39 23 39.449219 23 40 C 23 40.550781 22.550781 41 22 41 Z M 22 37 C 20.34375 37 19 38.34375 19 40 C 19 41.65625 20.34375 43 22 43 C 23.65625 43 25 41.65625 25 40 C 25 38.34375 23.65625 37 22 37 Z M 22 37"/></clipPath><clipPath id="k"><path d="M 22 41 C 21.449219 41 21 40.550781 21 40 C 21 39.449219 21.449219 39 22 39 C 22.550781 39 23 39.449219 23 40 C 23 40.550781 22.550781 41 22 41 Z M 22 37 C 20.34375 37 19 38.34375 19 40 C 19 41.65625 20.34375 43 22 43 C 23.65625 43 25 41.65625 25 40 C 25 38.34375 23.65625 37 22 37"/></clipPath><clipPath id="m"><path d="M 9 37 L 15 37 L 15 43 L 9 43 Z M 9 37"/></clipPath><clipPath id="n"><path d="M 12 41 C 11.449219 41 11 40.550781 11 40 C 11 39.449219 11.449219 39 12 39 C 12.550781 39 13 39.449219 13 40 C 13 40.550781 12.550781 41 12 41 Z M 12 37 C 10.34375 37 9 38.34375 9 40 C 9 41.65625 10.34375 43 12 43 C 13.65625 43 15 41.65625 15 40 C 15 38.34375 13.65625 37 12 37 Z M 12 37"/></clipPath><clipPath id="o"><path d="M 12 41 C 11.449219 41 11 40.550781 11 40 C 11 39.449219 11.449219 39 12 39 C 12.550781 39 13 39.449219 13 40 C 13 40.550781 12.550781 41 12 41 Z M 12 37 C 10.34375 37 9 38.34375 9 40 C 9 41.65625 10.34375 43 12 43 C 13.65625 43 15 41.65625 15 40 C 15 38.34375 13.65625 37 12 37"/></clipPath><clipPath id="q"><path d="M 49 37 L 55 37 L 55 43 L 49 43 Z M 49 37"/></clipPath><clipPath id="r"><path d="M 52 41 C 51.449219 41 51 40.550781 51 40 C 51 39.449219 51.449219 39 52 39 C 52.550781 39 53 39.449219 53 40 C 53 40.550781 52.550781 41 52 41 Z M 52 37 C 50.34375 37 49 38.34375 49 40 C 49 41.65625 50.34375 43 52 43 C 53.65625 43 55 41.65625 55 40 C 55 38.34375 53.65625 37 52 37 Z M 52 37"/></clipPath><clipPath id="s"><path d="M 52 41 C 51.449219 41 51 40.550781 51 40 C 51 39.449219 51.449219 39 52 39 C 52.550781 39 53 39.449219 53 40 C 53 40.550781 52.550781 41 52 41 Z M 52 37 C 50.34375 37 49 38.34375 49 40 C 49 41.65625 50.34375 43 52 43 C 53.65625 43 55 41.65625 55 40 C 55 38.34375 53.65625 37 52 37"/></clipPath><clipPath id="u"><path d="M 39 37 L 45 37 L 45 43 L 39 43 Z M 39 37"/></clipPath><clipPath id="v"><path d="M 42 41 C 41.449219 41 41 40.550781 41 40 C 41 39.449219 41.449219 39 42 39 C 42.550781 39 43 39.449219 43 40 C 43 40.550781 42.550781 41 42 41 Z M 42 37 C 40.34375 37 39 38.34375 39 40 C 39 41.65625 40.34375 43 42 43 C 43.65625 43 45 41.65625 45 40 C 45 38.34375 43.65625 37 42 37 Z M 42 37"/></clipPath><clipPath id="w"><path d="M 42 41 C 41.449219 41 41 40.550781 41 40 C 41 39.449219 41.449219 39 42 39 C 42.550781 39 43 39.449219 43 40 C 43 40.550781 42.550781 41 42 41 Z M 42 37 C 40.34375 37 39 38.34375 39 40 C 39 41.65625 40.34375 43 42 43 C 43.65625 43 45 41.65625 45 40 C 45 38.34375 43.65625 37 42 37"/></clipPath><clipPath id="z"><path d="M 32 14 L 45 14 L 45 24 L 32 24 Z M 32 14"/></clipPath><clipPath id="A"><path d="M 44.980469 22.804688 C 43.925781 17.539062 38.710938 14 32 14 L 32 16 C 37.730469 16 42.160156 18.890625 43.019531 23.195312 Z M 44.980469 22.804688"/></clipPath><clipPath id="B"><path d="M 44.980469 22.804688 C 43.925781 17.539062 38.710938 14 32 14 L 32 16 C 37.730469 16 42.160156 18.890625 43.019531 23.195312 L 44.980469 22.804688"/></clipPath></defs><g><g clip-path="url(#a)"><g clip-path="url(#b)"><g clip-path="url(#c)"><path d="M 2 7 L 2 55 L 62 55 L 62 7 Z M 2 7" fill="url(#d)"/></g></g></g><g clip-path="url(#e)"><g clip-path="url(#f)"><g clip-path="url(#g)"><path d="M 29 37 L 29 43 L 35 43 L 35 37 Z M 29 37" fill="url(#h)"/></g></g></g><g clip-path="url(#i)"><g clip-path="url(#j)"><g clip-path="url(#k)"><path d="M 19 37 L 19 43 L 25 43 L 25 37 Z M 19 37" fill="url(#l)"/></g></g></g><g clip-path="url(#m)"><g clip-path="url(#n)"><g clip-path="url(#o)"><path d="M 9 37 L 9 43 L 15 43 L 15 37 Z M 9 37" fill="url(#p)"/></g></g></g><g clip-path="url(#q)"><g clip-path="url(#r)"><g clip-path="url(#s)"><path d="M 49 37 L 49 43 L 55 43 L 55 37 Z M 49 37" fill="url(#t)"/></g></g></g><g clip-path="url(#u)"><g clip-path="url(#v)"><g clip-path="url(#w)"><path d="M 39 37 L 39 43 L 45 43 L 45 37 Z M 39 37" fill="url(#x)"/></g></g></g><path d="M 43 25 L 43 27 L 45 27 L 45 25 Z M 43 25" fill="url(#y)"/><g clip-path="url(#z)"><g clip-path="url(#A)"><g clip-path="url(#B)"><path d="M 32 14 L 32 23.195312 L 44.980469 23.195312 L 44.980469 14 Z M 32 14" fill="url(#C)"/></g></g></g><path d="M 58 11 L 58 13 L 60 13 L 60 11 Z M 58 11" fill="url(#D)"/><path d="M 58 15 L 58 17 L 60 17 L 60 15 Z M 58 15" fill="url(#E)"/><path d="M 56 13 L 56 15 L 58 15 L 58 13 Z M 56 13" fill="url(#F)"/><path d="M 60 13 L 60 15 L 62 15 L 62 13 Z M 60 13" fill="url(#G)"/><path d="M 4 51 L 4 53 L 6 53 L 6 51 Z M 4 51" fill="url(#H)"/><path d="M 4 55 L 4 57 L 6 57 L 6 55 Z M 4 55" fill="url(#I)"/><path d="M 2 53 L 2 55 L 4 55 L 4 53 Z M 2 53" fill="url(#J)"/><path d="M 6 53 L 6 55 L 8 55 L 8 53 Z M 6 53" fill="url(#K)"/><path d="M 13 56 L 13 58 L 15 58 L 15 56 Z M 13 56" fill="url(#L)"/><path d="M 13 60 L 13 62 L 15 62 L 15 60 Z M 13 60" fill="url(#M)"/><path d="M 11 58 L 11 60 L 13 60 L 13 58 Z M 11 58" fill="url(#N)"/><path d="M 15 58 L 15 60 L 17 60 L 17 58 Z M 15 58" fill="url(#O)"/><path d="M 52 2 L 52 4 L 54 4 L 54 2 Z M 52 2" fill="url(#P)"/><path d="M 52 6 L 52 8 L 54 8 L 54 6 Z M 52 6" fill="url(#Q)"/><path d="M 50 4 L 50 6 L 52 6 L 52 4 Z M 50 4" fill="url(#R)"/><path d="M 54 4 L 54 6 L 56 6 L 56 4 Z M 54 4" fill="url(#S)"/></g></svg>