<?xml version="1.0" encoding="UTF-8" standalone="no"?><svg xmlns="http://www.w3.org/2000/svg" xmlns:xlink="http://www.w3.org/1999/xlink" fill="#000000" height="24.1" preserveAspectRatio="xMidYMid meet" version="1" viewBox="3.0 -0.0 18.0 24.1" width="18" zoomAndPan="magnify"><g><g id="change1_1"><path d="M20.854,17.147l-10-10A.5.5,0,0,0,10,7.5V21.347a.5.5,0,0,0,.808.394l2.539-1.985,2.216,3.989A.5.5,0,0,0,16,24a.5.5,0,0,0,.224-.053l3-1.5a.5.5,0,0,0,.254-.3.5.5,0,0,0-.04-.391L17.35,18H20.5a.5.5,0,0,0,.354-.854Z" fill="#cfd8dc"/></g><g id="change2_1"><path d="M10.5,4a.5.5,0,0,1-.5-.5V.5a.5.5,0,0,1,1,0v3A.5.5,0,0,1,10.5,4Z" fill="#455a64"/></g><g id="change2_2"><path d="M6.5,8h-3a.5.5,0,0,1,0-1h3a.5.5,0,0,1,0,1Z" fill="#455a64"/></g><g id="change2_3"><path d="M17.5,8h-3a.5.5,0,0,1,0-1h3a.5.5,0,0,1,0,1Z" fill="#455a64"/></g><g id="change2_4"><path d="M7.672,5.171a.5.5,0,0,1-.354-.146L5.2,2.9A.5.5,0,0,1,5.9,2.2L8.025,4.317a.5.5,0,0,1-.354.854Z" fill="#455a64"/></g><g id="change2_5"><path d="M5.55,12.949A.5.5,0,0,1,5.2,12.1L7.318,9.974a.5.5,0,1,1,.707.707L5.9,12.8A.5.5,0,0,1,5.55,12.949Z" fill="#455a64"/></g><g id="change2_6"><path d="M13.328,5.171a.5.5,0,0,1-.354-.854L15.1,2.2A.5.5,0,0,1,15.8,2.9L13.682,5.024A.5.5,0,0,1,13.328,5.171Z" fill="#455a64"/></g></g><g fill="none" stroke="#000000" stroke-linecap="round" stroke-linejoin="round"><path d="M10.5 7.501L10.5 21.347 13.5 19.001 16 23.501 19 22.001 16.5 17.501 20.5 17.501 10.5 7.501z"/><path d="M10.5 0.499L10.5 3.499"/><path d="M3.5 7.499L6.5 7.499"/><path d="M17.5 7.499L14.5 7.499"/><path d="M5.55 2.549L7.672 4.671"/><path d="M5.55 12.449L7.672 10.328"/><path d="M15.45 2.549L13.328 4.671"/></g></svg>