<?xml version="1.0" encoding="UTF-8" standalone="no"?><svg xmlns="http://www.w3.org/2000/svg" xmlns:xlink="http://www.w3.org/1999/xlink" fill="#000000" height="1263" preserveAspectRatio="xMidYMid meet" version="1" viewBox="0.0 0.0 1707.9 1263.0" width="1707.9" zoomAndPan="magnify"><defs><clipPath id="a"><path d="M 0 0 L 1707.898438 0 L 1707.898438 1262.980469 L 0 1262.980469 Z M 0 0"/></clipPath></defs><g><g clip-path="url(#a)" id="change1_10"><path d="M 1191.871094 1223.941406 C 1200.964844 1228.398438 1223.996094 1235.480469 1228.859375 1221.992188 C 1221.085938 1214.179688 1204.632812 1215.070312 1191.871094 1212.25 Z M 847.214844 741.042969 C 837.585938 743.621094 830.113281 751.609375 821.902344 754.664062 C 742.894531 784.136719 640.164062 750.230469 576.5625 801.40625 C 551.296875 821.726562 538.789062 852.777344 518.144531 877.339844 C 509.074219 888.128906 495.75 899.691406 485.042969 910.441406 C 439.011719 956.691406 356.769531 999.191406 278.640625 970.800781 C 269.109375 960.476562 282.386719 938.339844 270.851562 931.863281 C 242.972656 923.800781 254.710938 960.871094 237.753906 966.910156 C 211.214844 976.363281 205.417969 910.792969 171.550781 941.59375 C 181.769531 957.433594 215.152344 956.511719 210.496094 982.488281 C 203.613281 1020.890625 136.652344 955.453125 122.871094 1000.019531 C 125.882812 1005.441406 131.257812 1008.5 132.605469 1015.589844 C 164.109375 1016.609375 214.453125 996.652344 220.230469 1035.058594 C 207.824219 1047.628906 168.140625 1038.609375 171.550781 1062.320312 C 176.023438 1093.390625 229.078125 1058.050781 235.808594 1050.640625 C 248.46875 1036.699219 247.566406 1020.179688 268.914062 1019.480469 C 300.398438 1018.449219 335.917969 1026.089844 370.160156 1021.429688 C 449.644531 1010.621094 476.730469 953.375 520.089844 904.601562 C 531.515625 891.761719 547.613281 875.816406 560.988281 859.8125 C 574.710938 843.382812 585.390625 825.421875 601.867188 815.035156 C 655.191406 781.414062 733.25 799.234375 798.535156 795.558594 C 853.613281 792.457031 908.40625 769.007812 964.046875 781.929688 C 971.738281 787.222656 982.800781 789.148438 993.253906 791.667969 C 995.554688 775.148438 994.445312 755.207031 999.101562 741.042969 C 963.089844 727.023438 889.46875 729.664062 847.214844 741.042969 M 1581.292969 460.652344 C 1582.96875 455.828125 1594.851562 461.21875 1596.875 456.753906 C 1597.1875 448.65625 1593.289062 444.757812 1585.191406 445.078125 C 1584.875 450.085938 1576.925781 457.40625 1581.292969 460.652344 M 973.785156 406.121094 C 985.671875 407.867188 991.96875 415.203125 1004.949219 415.867188 C 1004.640625 390.652344 973.390625 363.558594 973.785156 406.121094 M 1100.347656 400.289062 C 1107.640625 404.109375 1110.574219 396.03125 1117.875 394.441406 C 1115.59375 386.339844 1112.019531 379.527344 1102.296875 378.859375 C 1098.703125 383.042969 1100.984375 393.128906 1100.347656 400.289062 M 1437.222656 441.175781 C 1452.457031 439.542969 1453 423.214844 1464.464844 417.808594 C 1480.421875 420.894531 1492.1875 440.929688 1511.195312 447.015625 C 1512.273438 443.550781 1512.203125 438.933594 1515.09375 437.28125 C 1501.851562 420.023438 1480.285156 411.082031 1470.320312 390.546875 C 1473.863281 377.226562 1487.671875 374.15625 1493.667969 363.289062 C 1466.957031 366.632812 1445.4375 354.425781 1423.578125 359.394531 C 1434.257812 380.519531 1433.113281 413.464844 1437.222656 441.175781 M 956.261719 199.726562 C 908.578125 189.121094 882.253906 251.378906 915.371094 283.453125 C 978.804688 301.773438 1005.648438 210.707031 956.261719 199.726562 M 313.695312 182.207031 C 287.144531 173.039062 279.957031 190.460938 288.375 209.46875 C 292.882812 219.628906 312.867188 221.527344 309.792969 232.824219 C 294.796875 251 255.894531 229.96875 245.535156 246.460938 C 248.792969 279.523438 297.609375 250.300781 305.902344 281.503906 C 296.703125 293.351562 271.195312 296.140625 278.640625 318.511719 C 293.957031 328.382812 313.304688 314.503906 329.269531 312.664062 C 363.679688 326.316406 391.308594 359.550781 424.679688 382.757812 C 471.59375 415.378906 514.683594 440.207031 574.617188 460.652344 C 626.8125 478.453125 690.210938 506.953125 757.644531 511.269531 C 802.566406 514.15625 847.878906 499.242188 895.890625 513.226562 C 909.667969 490.523438 884.089844 485.21875 876.425781 472.332031 C 832.214844 453.164062 783.710938 437.121094 728.445312 439.226562 C 698.53125 440.367188 678.460938 434.484375 654.449219 431.4375 C 619.894531 427.066406 589.5625 425.289062 559.039062 417.808594 C 508.769531 405.492188 471.519531 390.855469 438.316406 365.230469 C 413.96875 346.453125 394.429688 325.652344 374.050781 300.976562 C 363.71875 288.460938 351.851562 273.03125 352.636719 256.195312 C 372.695312 250.464844 405.898438 252.75 411.046875 236.722656 C 414.976562 224.496094 405.445312 213.117188 393.527344 211.40625 C 375.097656 208.789062 365.441406 229.527344 344.847656 223.09375 C 332.953125 210.96875 325.921875 193.992188 313.695312 182.207031 M 1250.277344 199.726562 C 1278.933594 186.835938 1301.765625 168.125 1318.421875 143.25 C 1299.949219 138.867188 1271.515625 144.914062 1254.171875 139.363281 C 1247.246094 153.695312 1237.796875 183.871094 1250.277344 199.726562 M 934.84375 168.574219 C 948.757812 158.460938 956.933594 142.640625 966 127.679688 C 955.328125 111.742188 944.761719 95.691406 930.953125 82.894531 C 921.078125 110.945312 920.289062 146.519531 934.84375 168.574219 M 1078.929688 80.945312 C 1078.753906 85.316406 1084.820312 95.941406 1094.511719 96.527344 C 1125.566406 98.394531 1127.507812 45.28125 1113.980469 30.328125 C 1089.617188 3.390625 1046.398438 45.28125 1038.039062 67.316406 C 1032.429688 82.109375 1035.738281 95.082031 1034.148438 114.046875 C 1037.148438 122.074219 1044.660156 125.613281 1045.828125 135.464844 C 1048.671875 139.757812 1061.242188 134.320312 1061.410156 141.308594 C 1050.273438 164.488281 1029.558594 136.292969 1026.359375 121.84375 C 982.097656 124.410156 954.117188 142.757812 946.523438 189.992188 C 1023.429688 193.027344 995.601562 305.382812 928.996094 299.035156 C 928.25 341.265625 934.945312 373.089844 956.261719 400.289062 C 971.316406 391.972656 967.003906 365.476562 985.464844 365.230469 C 1007.359375 364.949219 1008.898438 408.40625 1028.308594 419.757812 C 1052.957031 417.800781 1074.96875 413.207031 1092.5625 404.183594 C 1089.125 388.027344 1089.082031 368.210938 1100.347656 365.230469 C 1114.828125 361.417969 1119.492188 384.527344 1131.496094 390.546875 C 1139.21875 382.679688 1149.375 377.261719 1154.863281 367.191406 C 1154.582031 359.039062 1142.164062 363.015625 1145.140625 351.605469 C 1158.5625 348.910156 1176.113281 358.015625 1174.34375 376.917969 C 1171.828125 379.597656 1165.875 378.847656 1160.722656 378.859375 C 1141.042969 409.011719 1098 414.230469 1075.042969 431.4375 C 1071.984375 430.605469 1073.367188 425.316406 1067.238281 427.539062 C 1018.136719 439.28125 985.421875 425.171875 952.363281 413.914062 C 944.445312 416.375 937.269531 419.59375 927.046875 419.757812 C 903.460938 455.089844 919.769531 484.53125 927.046875 524.898438 C 950.769531 529.582031 974.902344 543.1875 999.101562 544.371094 C 1021.167969 545.457031 1048.40625 532.417969 1065.296875 546.324219 C 1060.644531 558.34375 1042.667969 551.242188 1032.199219 552.164062 C 997.300781 555.234375 946.492188 548.859375 915.371094 530.746094 C 909.21875 529.792969 908.496094 534.261719 901.738281 532.691406 C 897.417969 530.53125 896.457031 524.988281 892.003906 522.960938 C 843.964844 510.136719 796.121094 525.417969 747.910156 521.007812 C 688.691406 515.597656 638.769531 489.472656 590.191406 482.070312 C 567.769531 491.429688 535.347656 487.6875 502.570312 487.90625 C 443.027344 488.320312 370.691406 512.304688 319.53125 515.171875 C 262.144531 518.378906 226.96875 514.417969 196.859375 487.90625 C 201.5625 460.632812 192.554688 428.835938 165.703125 441.175781 C 158.441406 455.398438 178.230469 480.703125 163.757812 489.859375 C 143.394531 473.308594 127.121094 425.617188 93.660156 441.175781 C 94.621094 461.640625 105.234375 472.4375 124.816406 474.277344 C 126.058594 489.53125 150.765625 490.804688 142.339844 509.332031 C 120.609375 508.433594 93.882812 488.925781 66.394531 491.800781 C 55.085938 492.984375 32.617188 503.023438 33.296875 517.117188 C 35.058594 553.5625 98.941406 523.242188 126.765625 530.746094 C 135.078125 532.992188 138.53125 541.046875 146.238281 544.371094 C 158.476562 542.015625 167.957031 527.597656 179.332031 530.746094 C 180.972656 533.007812 181.910156 535.96875 181.285156 540.488281 C 168.890625 546.257812 156.445312 551.988281 144.289062 558.011719 C 130.171875 553.84375 117.433594 562.074219 115.078125 575.527344 C 164.945312 600.835938 200.164062 563.828125 251.382812 558.011719 C 287.429688 553.914062 324.265625 553.222656 360.425781 550.21875 C 404.980469 546.515625 444.113281 530.109375 485.042969 526.851562 C 548.894531 521.761719 594.84375 548.828125 640.820312 556.058594 C 681.605469 562.476562 718.453125 557.90625 767.378906 558.011719 C 775.402344 558.027344 784.972656 558.746094 792.695312 559.949219 C 835.023438 566.550781 875.578125 576.808594 913.421875 589.164062 C 925.558594 593.125 938.71875 602.375 950.421875 604.738281 C 969.074219 608.503906 1006.867188 598.65625 1006.878906 620.320312 C 997.617188 630.175781 981.914062 608.617188 969.886719 620.320312 C 976.628906 644.078125 997.976562 653.234375 1001.039062 680.671875 C 1016.140625 687.003906 1035.289062 689.261719 1045.828125 700.148438 C 1045.808594 704.019531 1040.519531 702.628906 1041.929688 707.945312 C 1009.816406 696.410156 979.148438 680.878906 938.734375 678.726562 C 897.140625 676.511719 852.46875 687.75 810.222656 684.570312 C 769 681.476562 742.976562 665.734375 708.96875 657.308594 C 683.25 650.9375 658.945312 641.332031 633.03125 639.792969 C 539.707031 634.246094 477.757812 701.984375 397.425781 717.671875 C 357.617188 707.824219 330.277344 676.21875 278.640625 684.570312 C 261.6875 717.082031 303.230469 717.875 313.695312 735.199219 C 302.269531 745.710938 290.621094 725.296875 272.800781 725.460938 C 257.765625 725.597656 213.679688 745.136719 220.230469 770.242188 C 247.535156 785.289062 270.78125 739.375 286.429688 762.460938 C 263.832031 767.953125 245.46875 794.777344 257.222656 816.972656 L 270.851562 816.972656 C 283.195312 802.703125 279.671875 772.578125 305.902344 772.191406 C 306.921875 761.71875 300.78125 754.539062 311.746094 752.726562 C 323.136719 777.679688 314.902344 822.25 350.695312 822.820312 C 371.832031 810.269531 354.550781 780.433594 358.472656 760.511719 C 371.53125 763.121094 387.542969 767.773438 405.210938 764.402344 C 467.171875 752.585938 527.964844 702.296875 607.714844 696.261719 C 670.617188 691.488281 711.945312 712.570312 771.285156 727.402344 C 789.210938 748.453125 816.441406 731.722656 839.425781 729.355469 C 844.476562 728.835938 849.644531 731.53125 855 731.300781 C 868.144531 730.738281 881.75 724.820312 895.890625 723.511719 C 928.269531 720.527344 963.457031 719.003906 987.414062 725.460938 C 1003.820312 729.882812 1032.46875 742.726562 1034.148438 756.621094 C 1024.9375 762.882812 1020.558594 750.160156 1010.777344 750.773438 C 997.863281 786.367188 1010.660156 844.59375 1030.257812 875.390625 C 1037.96875 874.25 1052.042969 872.972656 1053.617188 883.191406 C 1050.453125 891.203125 1033.617188 890.960938 1026.359375 889.027344 C 993.796875 898.660156 967.566406 914.605469 948.46875 937.703125 C 946.078125 952.832031 940.453125 964.730469 934.84375 976.644531 C 901.359375 966.128906 850.210938 957.332031 872.53125 918.230469 C 870.320312 913.949219 866.019531 911.765625 864.742188 906.550781 C 850.875 904.363281 844.9375 910.113281 837.488281 914.332031 C 836.234375 922.175781 840.015625 935.042969 835.535156 939.65625 C 825.507812 945.382812 800.660156 922.050781 794.644531 941.59375 C 796.5625 953.667969 815.628906 957.773438 814.109375 966.910156 C 796.4375 973.992188 778.007812 995.132812 798.535156 1013.640625 C 819.8125 1019.28125 831.640625 1004.03125 849.164062 1000.019531 C 885.199219 1015.910156 918.046875 1034.992188 956.261719 1048.699219 C 994.09375 1006.039062 1022.699219 954.175781 1090.625 941.59375 C 1134.035156 964.421875 1208.949219 971.796875 1260.019531 966.910156 C 1259.003906 949.867188 1256.773438 936.195312 1269.742188 929.914062 C 1282.757812 937.699219 1272.539062 949.757812 1271.703125 961.070312 C 1268.613281 1003.039062 1286.296875 1040.8125 1306.75 1068.160156 C 1319.492188 1072.300781 1330.472656 1078.191406 1332.054688 1093.480469 C 1323.535156 1101.769531 1315.425781 1094.441406 1306.75 1095.429688 C 1266.664062 1099.980469 1239.753906 1131.820312 1207.453125 1148 C 1194.417969 1147.660156 1189.878906 1129.738281 1178.238281 1134.371094 C 1171.019531 1143.269531 1182.839844 1148.46875 1184.074219 1159.679688 C 1198.945312 1169.480469 1226.667969 1166.429688 1232.757812 1184.992188 C 1213.738281 1195.519531 1185 1161.640625 1164.609375 1179.160156 C 1163.351562 1188.859375 1170.003906 1190.628906 1172.402344 1196.679688 C 1181.644531 1197.480469 1188.320312 1195.730469 1193.820312 1192.78125 C 1201.816406 1204.300781 1220.949219 1203.539062 1234.695312 1204.46875 C 1258.972656 1187.332031 1290.847656 1189.140625 1316.476562 1179.160156 C 1324.679688 1175.960938 1332.746094 1166.878906 1341.800781 1163.582031 C 1379.917969 1149.609375 1405.453125 1122.242188 1439.160156 1107.109375 C 1451.679688 1079.96875 1433.910156 1071.320312 1421.640625 1054.53125 C 1412.746094 1042.390625 1397.425781 1014.609375 1388.542969 994.171875 C 1384.128906 984.0625 1377.308594 967.101562 1376.847656 959.121094 C 1376.648438 955.617188 1382.253906 951.683594 1382.683594 947.441406 C 1383.585938 938.664062 1371.054688 925.996094 1382.683594 918.230469 C 1394.703125 917.25 1386.875 936.097656 1396.316406 937.703125 C 1445.792969 915.773438 1466.949219 865.542969 1499.511719 826.707031 C 1529.574219 823.125 1547.03125 831.117188 1583.253906 826.707031 C 1676.109375 815.433594 1703.988281 678.878906 1645.554688 612.527344 C 1638.304688 604.289062 1626.945312 600.46875 1618.289062 593.050781 C 1587.171875 566.339844 1571.988281 527.75 1559.875 491.800781 C 1571.496094 468.453125 1560.621094 432.546875 1587.140625 431.4375 C 1608.128906 430.570312 1617.695312 467.710938 1596.875 472.332031 C 1585.378906 474.871094 1584.039062 461.816406 1575.445312 464.550781 C 1574.125 472.367188 1577.320312 475.65625 1577.40625 482.070312 C 1649.453125 516.753906 1657.550781 402.195312 1606.617188 382.757812 C 1565.167969 366.945312 1542.746094 410.234375 1534.582031 429.492188 C 1530.8125 438.355469 1523.789062 443.472656 1522.890625 447.015625 C 1518.636719 463.867188 1523.171875 502.800781 1526.777344 515.171875 C 1542.976562 570.664062 1633.148438 582.449219 1655.296875 639.792969 C 1667.945312 672.558594 1660.570312 727.277344 1645.554688 746.878906 C 1616.425781 784.929688 1546.234375 807.757812 1483.941406 795.558594 C 1463.917969 754.578125 1439.789062 717.691406 1398.265625 698.199219 C 1324.625 631 1246.785156 567.996094 1219.125 454.800781 C 1224.59375 444.4375 1222.070312 436.75 1219.125 425.597656 C 1243.316406 413.445312 1268.382812 375.753906 1263.917969 339.917969 C 1261.632812 321.613281 1249.070312 313.339844 1238.601562 300.976562 C 1226.449219 296.492188 1218.214844 310.449219 1213.289062 300.976562 C 1219.667969 294.535156 1229.792969 285.324219 1242.5 291.242188 C 1239.871094 262.84375 1250.746094 242.515625 1246.386719 219.195312 C 1244.40625 208.628906 1234.601562 200.75 1232.757812 189.992188 C 1229.464844 170.816406 1237.578125 155.601562 1240.550781 135.464844 C 1193.808594 127.679688 1144.09375 122.890625 1113.980469 98.464844 C 1109.597656 103.832031 1100.210938 104.167969 1094.511719 108.210938 C 1082.566406 101.597656 1065.757812 98.925781 1065.296875 80.945312 C 1064.964844 67.460938 1079.496094 48.632812 1092.5625 65.367188 C 1088.171875 76.304688 1079.445312 68.175781 1078.929688 80.945312 M 1145.140625 88.730469 C 1178.523438 102.59375 1229.894531 117.839844 1265.855469 106.261719 C 1276.007812 120.960938 1293.246094 117.179688 1320.382812 117.945312 C 1336.960938 118.417969 1352.59375 116.507812 1355.429688 129.628906 C 1358.804688 145.332031 1334.320312 165.996094 1324.28125 176.359375 C 1308.835938 192.273438 1296.335938 201.066406 1279.488281 209.46875 C 1282.902344 231.839844 1265.207031 253.800781 1269.742188 277.609375 C 1272.59375 292.484375 1294.804688 310.808594 1298.957031 330.183594 C 1308.082031 372.667969 1288.175781 403.429688 1258.082031 429.492188 C 1258.753906 462.523438 1258.554688 467.382812 1263.917969 497.640625 C 1282.304688 530.53125 1301.535156 559.269531 1324.28125 585.261719 C 1383.21875 652.648438 1487.988281 675.546875 1511.195312 781.929688 C 1560.097656 780.742188 1604.585938 747.84375 1624.136719 713.773438 C 1631.535156 700.878906 1634.625 665.171875 1626.085938 643.679688 C 1605.84375 592.75 1512.496094 572.46875 1497.574219 515.171875 C 1492.703125 496.46875 1496.359375 482.382812 1495.625 462.589844 C 1490.273438 456.917969 1482.917969 453.238281 1476.15625 448.960938 C 1453.957031 455.609375 1441.90625 483.175781 1415.785156 474.277344 C 1400.097656 431.828125 1406.195312 380.585938 1394.378906 341.867188 C 1420.414062 325.261719 1465.964844 340.195312 1497.574219 343.820312 C 1513.785156 345.671875 1527.550781 339.984375 1536.519531 355.503906 C 1539.171875 375.867188 1506.785156 377.5625 1503.410156 398.335938 C 1516.71875 404.828125 1525.109375 387.433594 1532.625 380.808594 C 1542.398438 372.199219 1555.160156 359.507812 1571.558594 357.441406 C 1647.910156 347.859375 1705.164062 460.546875 1641.667969 507.378906 C 1621.507812 507.695312 1610.402344 505.042969 1596.875 511.269531 C 1603.128906 542.023438 1623.402344 558.738281 1637.769531 581.367188 C 1674.566406 598.765625 1706.566406 647.992188 1707.867188 700.148438 C 1708.671875 732.394531 1695.617188 756.746094 1686.449219 783.878906 C 1662.6875 830.269531 1607.414062 846.953125 1546.246094 848.132812 C 1532.257812 848.402344 1523.402344 846.425781 1511.195312 848.132812 C 1494.996094 905.925781 1451.367188 936.277344 1402.164062 961.070312 C 1416.421875 988.546875 1428.148438 1015.960938 1446.945312 1040.898438 C 1453.054688 1049 1466.496094 1059.679688 1466.414062 1068.160156 C 1466.234375 1085.71875 1466.128906 1103.921875 1462.515625 1114.898438 C 1448.976562 1156.039062 1387.683594 1153.589844 1363.214844 1192.78125 C 1327.726562 1207.628906 1299.910156 1218.179688 1254.171875 1221.992188 C 1247.007812 1257.660156 1205.148438 1276.859375 1172.402344 1251.199219 C 1164.648438 1220.949219 1122.625 1200.449219 1147.078125 1161.628906 C 1126.089844 1126.300781 1176.394531 1084.621094 1207.453125 1112.949219 C 1226.785156 1095.941406 1243.875 1076.699219 1273.652344 1070.109375 C 1261.789062 1044.332031 1241.242188 1027.230469 1234.695312 996.121094 C 1205.042969 1004.789062 1174.457031 993.09375 1139.292969 986.386719 C 1120.800781 982.847656 1090.035156 972.585938 1075.042969 974.699219 C 1054.445312 977.605469 1011.898438 1019.03125 999.101562 1033.121094 C 986.558594 1046.910156 977.152344 1076.398438 960.152344 1079.851562 C 940.5 1083.828125 919.835938 1063.0625 901.738281 1054.53125 C 881.128906 1044.820312 863.398438 1042.199219 847.214844 1031.160156 C 802.695312 1071.359375 732.058594 1019.039062 765.4375 961.070312 C 760.742188 938.5625 769.15625 921.78125 777.117188 906.550781 C 790.402344 902.96875 802.574219 899.328125 816.0625 904.601562 C 822.371094 873.265625 880.144531 868.300781 893.953125 896.8125 C 894.246094 907.492188 894.15625 917.792969 892.003906 926.019531 C 895.453125 934.898438 906.835938 935.855469 913.421875 941.59375 C 931.136719 912.582031 949.804688 884.511719 985.464844 873.4375 C 977.128906 857.570312 973.65625 843.621094 975.726562 820.871094 C 927.6875 792.769531 868.203125 820.285156 808.269531 824.761719 C 744.691406 829.527344 669.917969 811.953125 623.292969 838.394531 C 614.082031 843.625 601.515625 853.789062 594.089844 861.765625 C 574.722656 882.546875 554.269531 910.773438 535.675781 935.757812 C 526.429688 948.171875 515.554688 960.632812 506.460938 972.746094 C 491.128906 993.183594 479.863281 1007.789062 461.679688 1023.378906 C 408.644531 1054.5 338.007812 1051.300781 266.964844 1052.589844 C 254.5 1081.589844 202.515625 1111.25 165.703125 1093.480469 C 152.703125 1087.199219 139.898438 1068.25 142.339844 1042.859375 C 132.683594 1033.839844 115.941406 1036.648438 107.296875 1025.320312 C 100.089844 1015.890625 94.683594 992.660156 97.558594 982.488281 C 102.769531 964.058594 128.191406 952.273438 150.128906 959.121094 C 117.804688 907.613281 203.734375 890.152344 222.171875 926.019531 C 238.925781 891.257812 300.082031 899.484375 298.113281 945.492188 C 377.085938 949.664062 430.179688 923.019531 471.40625 883.191406 C 476.230469 878.527344 478.136719 870.804688 483.097656 865.652344 C 487.78125 860.800781 494.875 858.554688 498.671875 853.980469 C 510.039062 840.253906 516.160156 823.707031 525.9375 811.136719 C 562.597656 764 622.027344 735.816406 708.96875 741.042969 C 586.863281 685.933594 485.730469 783.046875 385.734375 795.558594 C 392.882812 863.742188 316.609375 864.449219 303.957031 815.035156 C 295.351562 837.707031 266.714844 853.960938 239.699219 836.449219 C 236.632812 823.9375 226.652344 818.359375 228.011719 801.40625 C 219.972656 797.761719 209.835938 796.214844 202.707031 791.667969 C 179.105469 758.96875 206.675781 712.703125 243.601562 705.988281 C 249.007812 695.496094 245.632812 690.59375 243.601562 678.726562 C 278.960938 621.683594 351.3125 683.335938 399.371094 682.621094 C 428.4375 682.195312 464.644531 662.117188 494.78125 647.578125 C 544.136719 623.753906 597.542969 600.578125 668.074219 616.417969 C 714.390625 626.824219 761.140625 650.96875 806.328125 655.367188 C 852.554688 659.859375 905.796875 650.683594 948.46875 649.523438 C 937.414062 618.84375 888.675781 606.578125 855 598.898438 C 792.363281 584.597656 715.976562 593.765625 644.707031 585.261719 C 598.285156 579.726562 552.410156 556.171875 508.410156 554.109375 C 462.113281 551.9375 417.476562 571.777344 372.113281 577.476562 C 322.375 583.710938 272.167969 578.5625 228.011719 589.164062 C 191.195312 598 160.726562 621.410156 122.871094 608.628906 C 107.09375 595.199219 89.113281 583.972656 83.925781 559.949219 C 50.472656 561.535156 3.34375 554.660156 0.199219 522.960938 C -3.097656 489.773438 34.878906 463.503906 74.195312 468.4375 C 72.929688 458.636719 60.179688 443.523438 64.457031 421.699219 C 83.335938 398.335938 120.078125 405.492188 138.453125 425.597656 C 175.792969 388.050781 223.617188 430.695312 220.230469 476.21875 C 304.773438 512.855469 402.257812 462 496.730469 460.652344 C 472.96875 440.511719 441.214844 423.125 413 402.234375 C 385.378906 381.785156 358.402344 358.796875 331.214844 339.917969 C 289.085938 364.476562 233.050781 337.011719 245.535156 291.242188 C 235.386719 283.222656 225.484375 274.949219 218.285156 263.988281 C 214.488281 225.789062 230.816406 207.71875 266.964844 209.46875 C 266.867188 193.835938 259 178.285156 265.011719 162.726562 C 299.925781 136.355469 340.640625 163.566406 354.585938 191.941406 C 401.125 162.863281 455.871094 210.925781 426.628906 262.035156 C 417.3125 268.300781 409.734375 276.296875 395.476562 277.609375 C 428.035156 346.542969 506.785156 387.925781 605.769531 402.234375 C 641.832031 407.445312 682.75 402.960938 716.757812 406.121094 C 759.878906 410.136719 802.789062 414.109375 843.328125 429.492188 C 861.621094 436.4375 873.304688 453.792969 886.164062 441.175781 C 897.476562 430.070312 901.773438 398.914062 919.261719 398.335938 C 914.273438 380.238281 903.183594 363.183594 899.792969 339.917969 C 898.214844 329.109375 901.425781 318.230469 897.84375 306.824219 C 890.90625 284.726562 867.074219 270.855469 868.640625 236.722656 C 869.726562 212.917969 886.355469 188.742188 907.578125 176.359375 C 878.289062 134.71875 903.28125 64.488281 919.261719 34.214844 C 965.0625 28.933594 951.789062 88.03125 981.574219 102.375 C 988.753906 99.808594 999.292969 100.613281 1006.878906 98.464844 C 1007.519531 87.695312 1005.839844 73.589844 1008.828125 63.429688 C 1012.679688 50.425781 1029.878906 24.640625 1041.929688 14.746094 C 1056.257812 2.980469 1094.425781 -2.53125 1112.039062 1.117188 C 1141.285156 7.171875 1162.585938 55.351562 1145.140625 88.730469" fill="inherit" fill-rule="evenodd"/></g><g id="change2_1"><path d="M 1409.949219 822.820312 C 1389.21875 813.492188 1380.363281 827.984375 1378.796875 848.132812 C 1386.847656 863.078125 1406.699219 855.910156 1417.738281 848.132812 C 1420.445312 834.40625 1411.996094 831.796875 1409.949219 822.820312 M 1316.480469 820.875 C 1340.679688 845.824219 1371.5 807.09375 1345.699219 789.71875 C 1321.027344 786.027344 1310.3125 799.265625 1316.480469 820.875 M 1261.964844 735.203125 C 1264.691406 735.710938 1264.179688 739.46875 1265.851562 741.042969 C 1275.804688 739.570312 1279.464844 727.25 1269.75 723.515625 C 1268.539062 728.792969 1261.617188 728.371094 1261.964844 735.203125 M 1374.898438 787.769531 C 1386.113281 787.199219 1405.589844 774.167969 1402.171875 750.777344 C 1399.171875 730.355469 1375.765625 717.75 1357.375 723.515625 C 1319.042969 735.542969 1339.875 789.570312 1374.898438 787.769531 M 1230.8125 719.617188 C 1234.199219 719.472656 1236.863281 720.058594 1238.597656 721.566406 C 1240.167969 715.625 1245.761719 706.777344 1240.542969 700.148438 L 1232.753906 700.148438 C 1231.492188 707.382812 1226.839844 712.378906 1230.8125 719.617188 M 1170.449219 485.960938 C 1170.261719 493.9375 1177.171875 494.8125 1182.128906 497.644531 C 1186.421875 494.707031 1187.867188 484.761719 1182.128906 482.070312 C 1181.3125 486.445312 1171.796875 482.125 1170.449219 485.960938 M 1172.394531 464.550781 C 1177.894531 462.929688 1177.433594 467.292969 1182.128906 466.492188 C 1182.347656 464.117188 1182.703125 461.878906 1186.015625 462.589844 C 1184.4375 457.046875 1182.890625 451.449219 1174.339844 452.863281 C 1172.089844 455.160156 1172.132812 459.738281 1172.394531 464.550781 M 1094.503906 314.617188 C 1123.785156 320.488281 1153.839844 300.457031 1160.71875 279.5625 C 1175.800781 233.6875 1126.21875 201.207031 1086.714844 209.46875 C 1041.398438 227.167969 1050.847656 305.84375 1094.503906 314.617188 M 1193.816406 184.148438 L 1193.816406 191.9375 C 1201.75 194.84375 1211.1875 199.210938 1213.28125 188.046875 C 1209.964844 183.855469 1199.898438 179.484375 1193.816406 184.148438 M 1199.65625 147.152344 C 1195.75 158.023438 1217.492188 161.503906 1217.179688 151.050781 C 1213.894531 147.339844 1205.242188 142.542969 1199.65625 147.152344 M 1092.558594 65.371094 C 1079.5 48.644531 1064.960938 67.472656 1065.292969 80.945312 C 1065.753906 98.929688 1082.5625 101.59375 1094.503906 108.210938 C 1100.210938 104.164062 1109.597656 103.832031 1113.976562 98.476562 C 1144.085938 122.886719 1193.804688 127.6875 1240.542969 135.464844 C 1237.574219 155.597656 1229.460938 170.820312 1232.753906 189.992188 C 1234.59375 200.75 1244.410156 208.632812 1246.386719 219.195312 C 1250.746094 242.515625 1239.863281 262.84375 1242.5 291.238281 C 1229.777344 285.324219 1219.667969 294.535156 1213.28125 300.980469 C 1218.203125 310.449219 1226.453125 296.492188 1238.597656 300.980469 C 1249.0625 313.339844 1261.628906 321.621094 1263.917969 339.917969 C 1268.371094 375.753906 1243.3125 413.449219 1219.125 425.597656 C 1222.070312 436.746094 1224.601562 444.4375 1219.125 454.804688 C 1246.785156 567.996094 1324.625 631 1398.261719 698.203125 C 1439.785156 717.691406 1463.910156 754.578125 1483.941406 795.558594 C 1546.238281 807.757812 1616.425781 784.929688 1645.558594 746.878906 C 1660.570312 727.28125 1667.941406 672.558594 1655.292969 639.792969 C 1633.148438 582.453125 1542.976562 570.664062 1526.769531 515.167969 C 1523.164062 502.800781 1518.636719 463.867188 1522.882812 447.015625 C 1523.78125 443.476562 1530.804688 438.355469 1534.582031 429.492188 C 1542.746094 410.238281 1565.167969 366.949219 1606.617188 382.757812 C 1657.550781 402.195312 1649.4375 516.753906 1577.410156 482.070312 C 1577.316406 475.65625 1574.128906 472.371094 1575.445312 464.550781 C 1584.039062 461.820312 1585.375 474.875 1596.875 472.332031 C 1617.699219 467.710938 1608.125 430.570312 1587.132812 431.4375 C 1560.621094 432.546875 1571.492188 468.457031 1559.878906 491.808594 C 1571.984375 527.75 1587.164062 566.335938 1618.285156 593.054688 C 1626.941406 600.46875 1638.304688 604.292969 1645.558594 612.53125 C 1703.984375 678.882812 1676.105469 815.433594 1583.242188 826.710938 C 1547.03125 831.117188 1529.574219 823.125 1499.519531 826.710938 C 1466.945312 865.542969 1445.785156 915.773438 1396.316406 937.703125 C 1386.878906 936.097656 1394.695312 917.25 1382.683594 918.230469 C 1371.058594 925.996094 1383.585938 938.664062 1382.683594 947.441406 C 1382.257812 951.683594 1376.644531 955.617188 1376.839844 959.121094 C 1377.300781 967.101562 1384.128906 984.0625 1388.527344 994.171875 C 1397.425781 1014.609375 1412.75 1042.390625 1421.636719 1054.53125 C 1433.910156 1071.320312 1451.679688 1079.96875 1439.15625 1107.109375 C 1405.433594 1122.238281 1379.914062 1149.609375 1341.800781 1163.582031 C 1332.746094 1166.878906 1324.675781 1175.960938 1316.480469 1179.160156 C 1290.847656 1189.140625 1258.964844 1187.332031 1234.699219 1204.46875 C 1220.941406 1203.539062 1201.8125 1204.300781 1193.816406 1192.78125 C 1188.316406 1195.742188 1181.644531 1197.480469 1172.394531 1196.679688 C 1170.011719 1190.628906 1163.351562 1188.851562 1164.605469 1179.160156 C 1185 1161.640625 1213.738281 1195.519531 1232.753906 1184.992188 C 1226.671875 1166.429688 1198.949219 1169.480469 1184.082031 1159.679688 C 1182.835938 1148.46875 1171.015625 1143.269531 1178.238281 1134.371094 C 1189.875 1129.742188 1194.421875 1147.660156 1207.445312 1148 C 1239.757812 1131.820312 1266.65625 1099.980469 1306.746094 1095.429688 C 1315.425781 1094.441406 1323.527344 1101.769531 1332.058594 1093.480469 C 1330.476562 1078.191406 1319.492188 1072.300781 1306.746094 1068.160156 C 1286.300781 1040.8125 1268.601562 1003.039062 1271.695312 961.074219 C 1272.523438 949.757812 1282.757812 937.699219 1269.75 929.914062 C 1256.769531 936.199219 1258.996094 949.867188 1260.019531 966.910156 C 1208.953125 971.796875 1134.027344 964.421875 1090.601562 941.59375 C 1022.699219 954.175781 994.09375 1006.039062 956.261719 1048.699219 C 918.046875 1034.992188 885.195312 1015.910156 849.164062 1000.019531 C 831.640625 1004.019531 819.808594 1019.28125 798.53125 1013.640625 C 778.003906 995.132812 796.433594 973.992188 814.113281 966.910156 C 815.625 957.773438 796.558594 953.667969 794.644531 941.59375 C 800.65625 922.050781 825.507812 945.382812 835.53125 939.65625 C 840.011719 935.042969 836.230469 922.175781 837.484375 914.335938 C 844.941406 910.113281 850.871094 904.363281 864.742188 906.550781 C 866.019531 911.765625 870.320312 913.949219 872.53125 918.230469 C 850.207031 957.335938 901.359375 966.128906 934.84375 976.644531 C 940.449219 964.730469 946.078125 952.832031 948.46875 937.703125 C 967.566406 914.605469 993.796875 898.660156 1026.359375 889.03125 C 1033.605469 890.960938 1050.4375 891.203125 1053.617188 883.1875 C 1052.039062 872.972656 1037.964844 874.25 1030.257812 875.390625 C 1010.65625 844.59375 997.867188 786.367188 1010.777344 750.777344 C 1020.558594 750.160156 1024.9375 762.882812 1034.148438 756.625 C 1032.46875 742.726562 1003.816406 729.882812 987.414062 725.460938 C 963.457031 719.003906 928.269531 720.527344 895.890625 723.515625 C 881.75 724.824219 868.144531 730.742188 855 731.304688 C 849.640625 731.53125 844.480469 728.835938 839.425781 729.351562 C 816.445312 731.722656 789.207031 748.453125 771.28125 727.40625 C 711.945312 712.570312 670.617188 691.492188 607.714844 696.261719 C 527.964844 702.296875 467.171875 752.585938 405.207031 764.410156 C 387.539062 767.777344 371.53125 763.125 358.472656 760.511719 C 354.554688 780.433594 371.832031 810.269531 350.691406 822.820312 C 314.90625 822.25 323.136719 777.683594 311.742188 752.726562 C 300.777344 754.539062 306.917969 761.722656 305.90625 772.195312 C 279.671875 772.582031 283.195312 802.707031 270.851562 816.972656 L 257.226562 816.972656 C 245.464844 794.777344 263.835938 767.957031 286.429688 762.460938 C 270.78125 739.375 247.535156 785.292969 220.230469 770.242188 C 213.683594 745.140625 257.761719 725.597656 272.800781 725.460938 C 290.621094 725.296875 302.269531 745.710938 313.691406 735.203125 C 303.230469 717.875 261.6875 717.085938 278.640625 684.570312 C 330.277344 676.21875 357.617188 707.828125 397.421875 717.671875 C 477.753906 701.984375 539.703125 634.242188 633.03125 639.792969 C 658.949219 641.332031 683.25 650.941406 708.964844 657.308594 C 742.976562 665.742188 769 681.480469 810.21875 684.570312 C 852.46875 687.75 897.140625 676.511719 938.734375 678.726562 C 979.148438 680.878906 1009.816406 696.410156 1041.925781 707.949219 C 1040.515625 702.628906 1045.808594 704.015625 1045.828125 700.148438 C 1035.289062 689.265625 1016.136719 687.003906 1001.039062 680.671875 C 997.976562 653.242188 976.628906 644.082031 969.886719 620.320312 C 981.910156 608.617188 997.613281 630.171875 1006.878906 620.320312 C 1006.867188 598.65625 969.074219 608.503906 950.421875 604.738281 C 938.71875 602.378906 925.558594 593.125 913.421875 589.164062 C 875.578125 576.8125 835.019531 566.554688 792.695312 559.953125 C 784.96875 558.746094 775.402344 558.027344 767.378906 558.007812 C 718.457031 557.90625 681.609375 562.480469 640.820312 556.0625 C 594.839844 548.828125 548.894531 521.761719 485.046875 526.851562 C 444.113281 530.113281 404.980469 546.511719 360.425781 550.222656 C 324.261719 553.226562 287.429688 553.910156 251.386719 558.007812 C 200.160156 563.828125 164.945312 600.835938 115.078125 575.53125 C 117.429688 562.074219 130.171875 553.839844 144.289062 558.007812 C 156.445312 551.988281 168.890625 546.257812 181.28125 540.488281 C 181.910156 535.972656 180.972656 533.007812 179.335938 530.746094 C 167.953125 527.597656 158.480469 542.015625 146.238281 544.375 C 138.53125 541.050781 135.074219 532.992188 126.765625 530.746094 C 98.9375 523.242188 35.0625 553.566406 33.292969 517.121094 C 32.613281 503.023438 55.082031 492.988281 66.398438 491.808594 C 93.882812 488.925781 120.605469 508.433594 142.34375 509.332031 C 150.761719 490.808594 126.058594 489.53125 124.8125 474.28125 C 105.238281 472.4375 94.617188 461.640625 93.664062 441.175781 C 127.117188 425.621094 143.394531 473.316406 163.757812 489.859375 C 178.234375 480.707031 158.441406 455.398438 165.707031 441.175781 C 192.558594 428.835938 201.566406 460.636719 196.863281 487.90625 C 226.964844 514.417969 262.144531 518.378906 319.53125 515.167969 C 370.691406 512.308594 443.027344 488.320312 502.566406 487.90625 C 535.347656 487.6875 567.769531 491.429688 590.1875 482.070312 C 638.769531 489.476562 688.691406 515.597656 747.910156 521.007812 C 796.117188 525.414062 843.964844 510.140625 892.003906 522.960938 C 896.457031 524.988281 897.417969 530.535156 901.738281 532.6875 C 908.492188 534.261719 909.21875 529.792969 915.371094 530.746094 C 946.492188 548.859375 997.300781 555.238281 1032.195312 552.164062 C 1042.667969 551.242188 1060.640625 558.34375 1065.292969 546.324219 C 1048.410156 532.417969 1021.167969 545.460938 999.101562 544.375 C 974.902344 543.1875 950.769531 529.582031 927.046875 524.902344 C 919.769531 484.53125 903.460938 455.089844 927.046875 419.757812 C 937.269531 419.59375 944.445312 416.378906 952.367188 413.914062 C 985.421875 425.171875 1018.136719 439.285156 1067.238281 427.542969 C 1073.363281 425.316406 1071.972656 430.605469 1075.027344 431.4375 C 1097.992188 414.230469 1141.023438 409.011719 1160.71875 378.863281 C 1165.882812 378.847656 1171.828125 379.597656 1174.339844 376.917969 C 1176.105469 358.015625 1158.554688 348.910156 1145.140625 351.605469 C 1142.160156 363.015625 1154.582031 359.039062 1154.863281 367.191406 C 1149.363281 377.261719 1139.214844 382.679688 1131.5 390.550781 C 1119.488281 384.527344 1114.824219 361.414062 1100.347656 365.234375 C 1089.078125 368.214844 1089.128906 388.03125 1092.558594 404.183594 C 1074.964844 413.210938 1052.957031 417.808594 1028.308594 419.757812 C 1008.898438 408.40625 1007.359375 364.953125 985.464844 365.234375 C 967.003906 365.480469 971.316406 391.976562 956.261719 400.289062 C 934.945312 373.089844 928.25 341.265625 928.996094 299.039062 C 995.601562 305.382812 1023.425781 193.035156 946.523438 189.992188 C 954.113281 142.75 982.097656 124.402344 1026.359375 121.84375 C 1029.558594 136.300781 1050.273438 164.484375 1061.40625 141.316406 C 1061.25 134.324219 1048.660156 139.761719 1045.828125 135.464844 C 1044.65625 125.617188 1037.148438 122.074219 1034.148438 114.054688 C 1035.738281 95.082031 1032.425781 82.117188 1038.039062 67.316406 C 1046.394531 45.277344 1089.609375 3.390625 1113.976562 30.328125 C 1127.503906 45.277344 1125.570312 98.394531 1094.503906 96.523438 C 1084.820312 95.949219 1078.75 85.328125 1078.925781 80.945312 C 1079.449219 68.171875 1088.167969 76.304688 1092.558594 65.371094" fill="#7bdb91" fill-rule="evenodd"/></g><g id="change3_1"><path d="M 930.949219 82.890625 C 944.761719 95.691406 955.328125 111.730469 966 127.679688 C 956.933594 142.640625 948.757812 158.460938 934.84375 168.570312 C 920.289062 146.519531 921.078125 110.941406 930.949219 82.890625" fill="#d6c9bd" fill-rule="evenodd"/></g><g id="change3_2"><path d="M 1254.171875 139.359375 C 1271.519531 144.910156 1299.941406 138.871094 1318.429688 143.25 C 1301.769531 168.121094 1278.929688 186.828125 1250.28125 199.71875 C 1237.800781 183.871094 1247.25 153.691406 1254.171875 139.359375" fill="#d6c9bd" fill-rule="evenodd"/></g><g id="change1_1"><path d="M 1217.179688 151.050781 C 1217.5 161.511719 1195.75 158.019531 1199.660156 147.148438 C 1205.238281 142.539062 1213.898438 147.328125 1217.179688 151.050781" fill="inherit" fill-rule="evenodd"/></g><g id="change2_2"><path d="M 344.847656 223.089844 C 365.4375 229.519531 375.097656 208.78125 393.527344 211.410156 C 405.441406 213.109375 414.980469 224.5 411.050781 236.71875 C 405.902344 252.75 372.695312 250.46875 352.632812 256.199219 C 351.851562 273.03125 363.71875 288.460938 374.050781 300.976562 C 394.429688 325.648438 413.964844 346.457031 438.316406 365.234375 C 471.519531 390.851562 508.765625 405.492188 559.039062 417.808594 C 589.566406 425.289062 619.894531 427.066406 654.445312 431.4375 C 678.460938 434.480469 698.53125 440.367188 728.441406 439.226562 C 783.710938 437.117188 832.21875 453.164062 876.425781 472.328125 C 884.089844 485.222656 909.667969 490.519531 895.890625 513.230469 C 847.882812 499.246094 802.566406 514.152344 757.648438 511.269531 C 690.210938 506.953125 626.816406 478.453125 574.613281 460.648438 C 514.683594 440.207031 471.589844 415.375 424.679688 382.761719 C 391.304688 359.554688 363.679688 326.316406 329.269531 312.664062 C 313.300781 314.5 293.953125 328.378906 278.644531 318.507812 C 271.195312 296.144531 296.707031 293.347656 305.90625 281.503906 C 297.605469 250.300781 248.792969 279.519531 245.539062 246.460938 C 255.894531 229.96875 294.792969 251 309.792969 232.820312 C 312.867188 221.519531 292.886719 219.628906 288.378906 209.460938 C 279.953125 190.460938 287.144531 173.039062 313.695312 182.199219 C 325.917969 193.988281 332.949219 210.96875 344.847656 223.089844" fill="#7bdb91" fill-rule="evenodd"/></g><g id="change1_2"><path d="M 1213.28125 188.039062 C 1211.191406 199.210938 1201.75 194.839844 1193.820312 191.929688 L 1193.820312 184.140625 C 1199.898438 179.480469 1209.96875 183.851562 1213.28125 188.039062" fill="inherit" fill-rule="evenodd"/></g><g id="change4_1"><path d="M 927.046875 240.609375 C 925.386719 258.820312 952 260.859375 954.308594 244.511719 C 950.386719 233.210938 933.992188 228.929688 927.046875 240.609375 M 915.371094 283.449219 C 882.253906 251.378906 908.578125 189.121094 956.261719 199.730469 C 1005.648438 210.710938 978.804688 301.777344 915.371094 283.449219" fill="#ffffff" fill-rule="evenodd"/></g><g id="change1_3"><path d="M 1069.199219 248.410156 C 1051.210938 310.078125 1140.46875 318.796875 1150.980469 267.875 C 1156.71875 240.070312 1128.371094 221.578125 1104.238281 223.089844 C 1082.738281 224.441406 1071.921875 239.050781 1069.199219 248.410156 M 1086.71875 209.46875 C 1126.21875 201.210938 1175.808594 233.691406 1160.71875 279.5625 C 1153.839844 300.457031 1123.789062 320.484375 1094.511719 314.609375 C 1050.851562 305.839844 1041.398438 227.171875 1086.71875 209.46875" fill="inherit" fill-rule="evenodd"/></g><g id="change4_2"><path d="M 1100.351562 267.875 C 1104.179688 273.792969 1108.160156 279.542969 1119.820312 277.613281 C 1118.898438 271.492188 1125.058594 272.46875 1125.671875 267.875 C 1122.550781 255.878906 1103.261719 252.238281 1100.351562 267.875 M 1104.238281 223.089844 C 1128.371094 221.578125 1156.71875 240.058594 1150.980469 267.875 C 1140.46875 318.792969 1051.210938 310.078125 1069.199219 248.398438 C 1071.921875 239.050781 1082.738281 224.441406 1104.238281 223.089844" fill="#ffffff" fill-rule="evenodd"/></g><g id="change1_4"><path d="M 954.308594 244.511719 C 952 260.859375 925.386719 258.820312 927.046875 240.609375 C 933.992188 228.929688 950.386719 233.210938 954.308594 244.511719" fill="inherit" fill-rule="evenodd"/></g><g id="change1_5"><path d="M 1125.671875 267.875 C 1125.058594 272.46875 1118.898438 271.492188 1119.820312 277.613281 C 1108.160156 279.542969 1104.179688 273.792969 1100.351562 267.875 C 1103.261719 252.238281 1122.550781 255.878906 1125.671875 267.875" fill="inherit" fill-rule="evenodd"/></g><g id="change2_3"><path d="M 1423.578125 359.394531 C 1445.441406 354.425781 1466.960938 366.632812 1493.671875 363.289062 C 1487.671875 374.152344 1473.871094 377.226562 1470.320312 390.550781 C 1480.289062 411.082031 1501.851562 420.023438 1515.101562 437.277344 C 1512.199219 438.933594 1512.28125 443.554688 1511.199219 447.015625 C 1492.191406 440.929688 1480.421875 420.894531 1464.46875 417.808594 C 1453 423.214844 1452.460938 439.542969 1437.21875 441.171875 C 1433.121094 413.46875 1434.261719 380.519531 1423.578125 359.394531" fill="#7bdb91" fill-rule="evenodd"/></g><g id="change4_3"><path d="M 1102.300781 378.859375 C 1112.019531 379.527344 1115.589844 386.339844 1117.878906 394.445312 C 1110.578125 396.027344 1107.640625 404.113281 1100.351562 400.285156 C 1100.988281 393.128906 1098.699219 383.042969 1102.300781 378.859375" fill="#ffffff" fill-rule="evenodd"/></g><g id="change4_4"><path d="M 1004.941406 415.867188 C 991.96875 415.203125 985.671875 407.867188 973.785156 406.125 C 973.390625 363.558594 1004.640625 390.648438 1004.941406 415.867188" fill="#ffffff" fill-rule="evenodd"/></g><g id="change1_6"><path d="M 1174.339844 452.859375 C 1182.890625 451.445312 1184.441406 457.042969 1186.019531 462.59375 C 1182.710938 461.875 1182.351562 464.113281 1182.128906 466.488281 C 1177.441406 467.289062 1177.898438 462.933594 1172.398438 464.546875 C 1172.140625 459.742188 1172.089844 455.160156 1174.339844 452.859375" fill="inherit" fill-rule="evenodd"/></g><g id="change1_7"><path d="M 1182.128906 482.066406 C 1187.871094 484.757812 1186.429688 494.703125 1182.128906 497.644531 C 1177.179688 494.808594 1170.261719 493.933594 1170.449219 485.957031 C 1171.800781 482.125 1181.320312 486.4375 1182.128906 482.066406" fill="inherit" fill-rule="evenodd"/></g><g id="change1_8"><path d="M 1232.761719 700.148438 L 1240.550781 700.148438 C 1245.761719 706.777344 1240.171875 715.625 1238.601562 721.5625 C 1236.859375 720.058594 1234.199219 719.472656 1230.808594 719.613281 C 1226.839844 712.378906 1231.488281 707.382812 1232.761719 700.148438" fill="inherit" fill-rule="evenodd"/></g><g id="change5_1"><path d="M 1382.691406 774.140625 C 1402.800781 751.363281 1369 722.140625 1347.628906 741.039062 C 1346.539062 766.683594 1362.890625 780.152344 1382.691406 774.140625 M 1357.378906 723.511719 C 1375.769531 717.746094 1399.171875 730.351562 1402.171875 750.773438 C 1405.589844 774.164062 1386.121094 787.199219 1374.898438 787.769531 C 1339.878906 789.566406 1319.039062 735.539062 1357.378906 723.511719" fill="#b6f9af" fill-rule="evenodd"/></g><g id="change1_9"><path d="M 1269.75 723.511719 C 1279.46875 727.25 1275.808594 739.566406 1265.859375 741.039062 C 1264.179688 739.46875 1264.699219 735.707031 1261.96875 735.199219 C 1261.621094 728.367188 1268.539062 728.789062 1269.75 723.511719" fill="inherit" fill-rule="evenodd"/></g><g id="change2_4"><path d="M 999.101562 741.039062 C 994.441406 755.207031 995.554688 775.148438 993.253906 791.664062 C 982.800781 789.148438 971.738281 787.222656 964.046875 781.929688 C 908.40625 769.007812 853.609375 792.457031 798.535156 795.558594 C 733.25 799.234375 655.191406 781.414062 601.871094 815.035156 C 585.390625 825.421875 574.710938 843.382812 560.988281 859.8125 C 547.613281 875.816406 531.515625 891.761719 520.089844 904.601562 C 476.734375 953.375 449.644531 1010.621094 370.164062 1021.429688 C 335.917969 1026.089844 300.398438 1018.449219 268.910156 1019.480469 C 247.566406 1020.179688 248.46875 1036.699219 235.8125 1050.640625 C 229.074219 1058.050781 176.023438 1093.390625 171.554688 1062.320312 C 168.136719 1038.609375 207.828125 1047.628906 220.234375 1035.058594 C 214.449219 996.652344 164.105469 1016.609375 132.601562 1015.589844 C 131.257812 1008.5 125.882812 1005.441406 122.875 1000.019531 C 136.652344 955.457031 203.609375 1020.890625 210.5 982.488281 C 215.15625 956.511719 181.765625 957.433594 171.554688 941.59375 C 205.417969 910.792969 211.214844 976.363281 237.75 966.910156 C 254.714844 960.871094 242.96875 923.800781 270.851562 931.863281 C 282.390625 938.339844 269.109375 960.476562 278.644531 970.800781 C 356.769531 999.1875 439.015625 956.6875 485.046875 910.441406 C 495.75 899.691406 509.074219 888.128906 518.148438 877.339844 C 538.785156 852.777344 551.296875 821.726562 576.5625 801.40625 C 640.164062 750.230469 742.894531 784.136719 821.90625 754.664062 C 830.113281 751.609375 837.589844 743.625 847.21875 741.039062 C 889.46875 729.664062 963.089844 727.019531 999.101562 741.039062" fill="#7bdb91" fill-rule="evenodd"/></g><g id="change5_2"><path d="M 1347.628906 741.039062 C 1369 722.140625 1402.800781 751.363281 1382.691406 774.140625 C 1362.878906 780.152344 1346.539062 766.683594 1347.628906 741.039062" fill="#b6f9af" fill-rule="evenodd"/></g><g id="change5_3"><path d="M 1328.171875 807.242188 L 1328.171875 815.035156 C 1332.699219 819.316406 1339.21875 814.65625 1343.75 813.082031 C 1343.28125 803.578125 1335.609375 805.582031 1328.171875 807.242188 M 1345.699219 789.71875 C 1371.5 807.09375 1340.679688 845.824219 1316.480469 820.871094 C 1310.320312 799.265625 1321.03125 786.027344 1345.699219 789.71875" fill="#b6f9af" fill-rule="evenodd"/></g><g id="change5_4"><path d="M 1343.75 813.082031 C 1339.21875 814.652344 1332.699219 819.316406 1328.171875 815.035156 L 1328.171875 807.242188 C 1335.609375 805.582031 1343.28125 803.578125 1343.75 813.082031" fill="#b6f9af" fill-rule="evenodd"/></g><g id="change5_5"><path d="M 1390.480469 844.238281 C 1397.808594 845.742188 1399.789062 841.859375 1406.050781 842.296875 C 1406.949219 832.28125 1389.578125 836.933594 1390.480469 844.238281 M 1417.738281 848.132812 C 1406.699219 855.90625 1386.851562 863.078125 1378.800781 848.132812 C 1380.371094 827.980469 1389.21875 813.488281 1409.949219 822.824219 C 1412 831.796875 1420.449219 834.398438 1417.738281 848.132812" fill="#b6f9af" fill-rule="evenodd"/></g><g id="change5_6"><path d="M 1406.050781 842.296875 C 1399.789062 841.859375 1397.808594 845.742188 1390.480469 844.238281 C 1389.578125 836.933594 1406.949219 832.28125 1406.050781 842.296875" fill="#b6f9af" fill-rule="evenodd"/></g><g id="change4_5"><path d="M 1191.871094 1212.25 C 1204.628906 1215.070312 1221.089844 1214.179688 1228.859375 1221.988281 C 1224 1235.480469 1200.96875 1228.398438 1191.871094 1223.941406 L 1191.871094 1212.25" fill="#ffffff" fill-rule="evenodd"/></g></g></svg>