<?xml version="1.0" encoding="UTF-8" standalone="no"?><svg xmlns="http://www.w3.org/2000/svg" xmlns:xlink="http://www.w3.org/1999/xlink" fill="#000000" height="1639.9" preserveAspectRatio="xMidYMid meet" version="1" viewBox="-4.4 -13.2 1585.0 1639.9" width="1585" zoomAndPan="magnify"><g fill-rule="evenodd"><g id="change1_1"><path d="M 658.714844 46.539062 C 658.515625 22.378906 616.769531 15.230469 613.304688 36.210938 C 609.960938 56.488281 645.863281 63.191406 658.714844 46.539062" fill="#fffffd"/></g><g id="change2_1"><path d="M 602.992188 23.828125 C 595.164062 24.949219 590.089844 28.820312 580.28125 27.960938 C 530.925781 161.441406 692.632812 226.589844 815.597656 176.578125 C 821.800781 164.898438 833.105469 158.308594 838.3125 145.621094 C 826.347656 131.441406 816.675781 114.960938 801.152344 104.328125 C 799.15625 145.179688 763.65625 165.78125 730.96875 168.328125 C 655.101562 174.21875 573.746094 103.101562 602.992188 23.828125" fill="#ffe000"/></g><g id="change3_1"><path d="M 671.109375 30.019531 C 682.503906 61.78125 636.441406 77.96875 607.109375 63.050781 C 609.933594 102.949219 655.691406 146.980469 697.941406 153.859375 C 744 161.410156 794.652344 146.28125 788.769531 91.949219 C 761.339844 60.789062 711.53125 41.328125 671.109375 30.019531" fill="inherit"/></g><g id="change1_2"><path d="M 563.765625 32.089844 C 519.035156 52.191406 480.746094 84.511719 468.804688 131.171875 C 461.460938 243.160156 576.230469 305.050781 681.425781 312.828125 C 697.402344 313.988281 718.203125 314.691406 733.03125 312.828125 C 740.828125 311.839844 748.253906 304.71875 757.808594 302.511719 C 775.886719 298.308594 794.417969 297.988281 807.351562 290.128906 C 826.203125 278.609375 836.023438 257.191406 852.761719 246.769531 C 860.839844 216.039062 854.019531 190.890625 846.558594 162.128906 C 818.820312 200.699219 727.15625 214.019531 669.046875 199.300781 C 593.265625 180.089844 543.152344 116.089844 563.765625 32.089844" fill="#fffffd"/></g><g id="change4_1"><path d="M 266.507812 242.640625 C 268.726562 237.28125 271.53125 232.519531 270.640625 224.070312 C 263.988281 223.601562 261.90625 227.71875 254.125 226.128906 C 227.820312 206.949219 219.320312 181.058594 229.347656 151.820312 C 239.007812 123.691406 272.957031 116.96875 270.640625 85.75 C 269.480469 70.121094 258.160156 56.878906 243.792969 48.609375 C 240.46875 48.019531 240.25 50.558594 237.613281 50.648438 C 234.554688 63.960938 237.96875 74.410156 235.546875 85.75 C 231.144531 106.320312 213.457031 113.269531 206.652344 127.039062 C 184.898438 171.039062 220.898438 244.089844 266.507812 242.640625" fill="#e1a3ff"/></g><g id="change4_2"><path d="M 130.265625 283.929688 C 129.796875 273.828125 136.566406 270.941406 136.46875 261.21875 C 87.882812 255.210938 43.300781 212.929688 45.632812 158.011719 C 46.003906 149.421875 47.546875 132.601562 53.882812 122.921875 C 62.785156 109.320312 83.96875 116.671875 84.859375 91.949219 C 81.585938 91.789062 76.980469 92.941406 76.609375 89.878906 C 74.53125 89.878906 72.476562 89.878906 70.394531 89.878906 C 65.070312 101.070312 57.863281 110.359375 45.632812 114.660156 C 42.878906 132 30.683594 139.011719 27.054688 151.820312 C 4.410156 231.628906 77.082031 266.339844 130.265625 283.929688" fill="#e1a3ff"/></g><g id="change4_3"><path d="M 939.457031 1276.828125 C 937.390625 1276.828125 935.324219 1276.828125 933.257812 1276.828125 C 932.992188 1286.191406 927.429688 1290.261719 925.011719 1297.480469 C 936.050781 1304.429688 944.75 1286.539062 939.457031 1276.828125 Z M 1086.011719 1276.828125 C 1085.039062 1288.140625 1092.28125 1291.21875 1100.480469 1293.351562 C 1101.109375 1288.488281 1107.640625 1289.511719 1106.660156 1283.03125 C 1102.058594 1279.109375 1091.609375 1273.269531 1086.011719 1276.828125 Z M 914.679688 1266.519531 C 908.730469 1264.078125 893.34375 1269.871094 896.101562 1283.03125 C 909.15625 1284.371094 910.667969 1274.199219 914.679688 1266.519531 Z M 1133.5 1270.648438 C 1134.96875 1260.238281 1125.898438 1260.371094 1125.238281 1252.058594 C 1102.558594 1250.949219 1117.78125 1281.839844 1133.5 1270.648438 Z M 753.683594 1161.230469 C 747.363281 1159.738281 746.15625 1163.339844 741.28125 1163.300781 C 741.464844 1166.21875 741.636719 1169.148438 739.230469 1169.488281 C 742.660156 1181.980469 762.632812 1172.941406 753.683594 1161.230469 Z M 753.683594 1122.011719 C 756.132812 1126.441406 755.898438 1133.539062 759.863281 1136.460938 C 766.34375 1137.429688 765.320312 1130.910156 770.191406 1130.28125 C 768.160156 1122.570312 760.414062 1113.25 753.683594 1122.011719 Z M 997.265625 956.878906 C 991.199219 969.859375 1005.230469 978.214844 1013.78125 969.261719 C 1011.289062 962.121094 1007.5 956.269531 997.265625 956.878906 Z M 1030.289062 950.675781 C 1030.339844 955.550781 1026.730469 956.761719 1028.230469 963.0625 C 1036.609375 967.71875 1047.398438 968.703125 1046.808594 954.8125 C 1041.75 952.976562 1037.851562 950.007812 1030.289062 950.675781 Z M 811.46875 820.636719 C 810.527344 839.089844 826.917969 850.222656 842.441406 845.402344 C 833.726562 835.523438 825.273438 825.402344 811.46875 820.636719 Z M 815.597656 744.25 C 809.789062 758.171875 824.03125 761.066406 827.980469 771.097656 C 858.066406 789.328125 917.015625 801.589844 951.84375 785.542969 C 951.84375 781.410156 951.84375 777.285156 951.84375 773.144531 C 911.339844 787.507812 846.59375 780.96875 821.800781 744.25 C 819.734375 744.25 817.667969 744.25 815.597656 744.25 Z M 452.289062 492.410156 C 450.222656 492.410156 448.171875 492.410156 446.105469 492.410156 C 443.300781 503.558594 449.933594 519.199219 464.6875 519.25 C 470.0625 505.761719 453.179688 505.511719 452.289062 492.410156 Z M 472.933594 446.988281 C 469.355469 456.21875 474.078125 469.070312 487.382812 467.640625 C 492.859375 457.878906 484.476562 446.421875 472.933594 446.988281 Z M 611.242188 416.039062 C 607.445312 429.96875 636.269531 436.800781 650.464844 432.550781 C 648.449219 415.988281 622.628906 423.230469 611.242188 416.039062 Z M 574.082031 337.589844 C 566.25 358.550781 622.277344 371.550781 648.398438 374.761719 C 665.957031 376.890625 687.910156 380.710938 695.890625 368.558594 C 689.609375 356.03125 672.269531 362.960938 660.78125 362.359375 C 632.375 360.898438 600.285156 351.328125 580.28125 337.589844 C 578.214844 337.589844 576.164062 337.589844 574.082031 337.589844 Z M 441.972656 102.261719 C 450.492188 133.328125 443.03125 171.859375 454.351562 203.421875 C 470.179688 221.5 479.285156 244.148438 497.710938 263.28125 C 529.730469 296.558594 591.703125 309.851562 648.398438 319.011719 C 668.070312 322.191406 683.355469 327.570312 700.003906 327.28125 C 762.214844 326.160156 817.984375 306.03125 850.707031 273.589844 C 879.421875 276.988281 902.621094 250.828125 929.144531 267.398438 C 946.546875 311.570312 876.53125 323.480469 844.492188 341.730469 C 785.414062 375.390625 740.171875 430 755.746094 529.578125 C 757.527344 540.96875 766.328125 556.199219 772.257812 570.859375 C 793.863281 624.394531 819.734375 663.886719 867.207031 688.53125 C 873.503906 690.996094 875.519531 689.5625 885.785156 690.589844 C 1008.019531 748.007812 1075.980469 631.582031 1183.039062 610.078125 C 1183.089844 616.898438 1191.769531 615.121094 1193.359375 620.394531 C 1195.019531 627.5625 1190.289062 628.339844 1191.289062 634.835938 C 1178.839844 641.8125 1166.289062 639.753906 1158.269531 653.421875 C 1161.910156 693.140625 1155.441406 742.957031 1189.230469 752.515625 C 1222.171875 738.289062 1269.011719 738.257812 1308.960938 721.535156 C 1311.140625 720.636719 1315.199219 718.671875 1317.21875 717.421875 C 1347.789062 698.542969 1363.71875 687.121094 1387.398438 667.886719 C 1394.609375 662.023438 1408.648438 653.324219 1410.121094 647.234375 C 1415.230469 625.847656 1388.929688 620.105469 1395.660156 599.769531 C 1404.738281 601.730469 1412.421875 622.898438 1426.628906 626.59375 C 1455.289062 628.976562 1462.238281 592.109375 1469.988281 566.71875 C 1477.289062 592.171875 1458.71875 614.589844 1476.171875 632.789062 C 1515.300781 641.640625 1507.71875 603.800781 1525.710938 591.5 C 1541.398438 618.25 1498.160156 638.214844 1505.070312 659.617188 C 1509.75 674.105469 1532.398438 670.535156 1550.46875 665.8125 C 1546.878906 696.753906 1500.699219 688.730469 1478.238281 680.257812 C 1471.71875 675.097656 1473.480469 661.613281 1463.769531 659.617188 C 1432.808594 666.496094 1425.988281 694.410156 1405.988281 715.367188 C 1373.828125 749.050781 1318.53125 780.097656 1255.300781 775.214844 C 1231.539062 773.386719 1209.640625 758.480469 1189.230469 766.972656 C 1205.101562 904.417969 1194.351562 1055.019531 1183.039062 1175.691406 C 1191.800781 1192.378906 1200.308594 1209.339844 1216.070312 1219.050781 C 1217.390625 1248.851562 1262.671875 1270.46875 1280.058594 1241.75 C 1283.601562 1219.921875 1228.601562 1196.800781 1230.519531 1219.050781 C 1231.539062 1230.960938 1266.570312 1215.191406 1261.480469 1241.75 C 1238.328125 1248.140625 1226.648438 1225.820312 1224.320312 1204.589844 C 1236.648438 1193.601562 1240.601562 1178.421875 1253.230469 1171.558594 C 1309.878906 1140.808594 1388.179688 1241.648438 1350.25 1307.808594 C 1304.789062 1260.578125 1190.199219 1262.679688 1183.039062 1340.808594 C 1179.109375 1383.738281 1210.179688 1421.390625 1263.558594 1411.019531 C 1274.871094 1386.859375 1263.238281 1337.269531 1232.589844 1359.421875 C 1231.75 1372.628906 1248.5 1368.269531 1253.230469 1375.910156 C 1253.230469 1384.179688 1253.230469 1392.421875 1253.230469 1400.691406 C 1208.71875 1408.601562 1185.871094 1366.519531 1195.429688 1332.570312 C 1201.96875 1309.351562 1224.039062 1298.738281 1240.828125 1287.171875 C 1318.058594 1281.480469 1363.089844 1321.621094 1368.820312 1375.910156 C 1373.179688 1417.101562 1354.488281 1444.679688 1335.800781 1468.808594 C 1326.410156 1480.941406 1317.289062 1492.578125 1308.960938 1497.710938 C 1296.488281 1505.421875 1272.769531 1515.210938 1255.300781 1520.417969 C 1186.460938 1540.898438 1119.980469 1520.359375 1052.980469 1508.03125 C 1057.988281 1479.089844 1052.859375 1453.351562 1055.058594 1427.519531 C 1038.21875 1399.46875 1026.269531 1363.820312 989 1361.46875 C 944.464844 1358.671875 905.171875 1398.140625 889.917969 1433.71875 C 880.3125 1429.671875 874.449219 1422.089844 863.074219 1429.589844 C 869.824219 1444.171875 881.382812 1453.949219 896.101562 1460.539062 C 890.285156 1516.699219 973.15625 1540.898438 991.066406 1499.78125 C 998.554688 1482.589844 987.453125 1450.351562 966.285156 1448.171875 C 936.320312 1445.070312 935.929688 1472.421875 953.925781 1479.121094 C 964.273438 1477.210938 953.90625 1464.398438 966.285156 1462.628906 C 969.933594 1473.480469 983.894531 1477.75 976.617188 1493.589844 C 932.675781 1505.078125 909.691406 1479.898438 910.566406 1439.921875 C 923.769531 1417.570312 935.023438 1392.28125 962.171875 1388.300781 C 1013.160156 1380.851562 1045.378906 1428.96875 1042.671875 1481.199219 C 1041.378906 1506.5 1025.300781 1521.28125 1019.960938 1545.199219 C 980.351562 1599.929688 873.167969 1593.28125 830.046875 1553.441406 C 827.359375 1550.960938 825.949219 1542.589844 821.800781 1539 C 786.886719 1508.71875 759.78125 1471.800781 759.863281 1419.269531 C 747.898438 1412.660156 747.832031 1394.128906 735.101562 1388.300781 C 722.738281 1407.640625 737.335938 1428.238281 739.230469 1452.300781 C 742.675781 1495.921875 709.378906 1529.441406 677.296875 1549.308594 C 638.503906 1555.109375 582.617188 1565.53125 569.949219 1532.808594 C 550.109375 1481.441406 649.628906 1470.199219 625.6875 1518.351562 C 611.964844 1517.648438 616.148438 1499.011719 598.863281 1501.828125 C 580.230469 1535.121094 641.34375 1542.070312 648.398438 1514.238281 C 647.746094 1489.421875 630.542969 1481.160156 615.375 1470.878906 C 636.105469 1459.929688 660.328125 1452.53125 675.226562 1435.78125 C 670.386719 1423.621094 656.0625 1418.769531 642.203125 1421.328125 C 632.949219 1448.589844 572.316406 1457.871094 534.851562 1456.429688 C 472.042969 1429.171875 400.128906 1443.578125 359.40625 1390.378906 C 315.308594 1332.738281 327.304688 1233.949219 396.566406 1212.839844 C 415.804688 1206.988281 460.976562 1206.679688 483.25 1216.980469 C 496.050781 1222.871094 516.175781 1258.261719 489.464844 1268.589844 C 486.960938 1263.261719 493.597656 1249.089844 487.382812 1243.800781 C 439.015625 1228.371094 378.945312 1273.03125 384.167969 1320.191406 C 387.816406 1352.910156 423.074219 1384.25 454.351562 1388.300781 C 498.753906 1394.050781 548.527344 1351.769531 563.765625 1320.191406 C 581.722656 1282.929688 599.078125 1247.230469 605.042969 1202.511719 C 607.042969 1187.550781 603.140625 1171.371094 605.042969 1155.039062 C 611.007812 1104.25 620.566406 1041.410156 617.4375 991.972656 C 613.304688 926.816406 597.464844 834.671875 551.386719 806.195312 C 527.449219 814.90625 506.851562 829.386719 472.933594 835.078125 C 429.574219 842.363281 376.59375 830.421875 336.695312 839.214844 C 298.359375 847.648438 323.691406 882.285156 318.113281 913.527344 C 302.691406 923.367188 285.089844 909.136719 278.890625 897.007812 C 279.695312 888.535156 287.859375 873.570312 278.890625 868.113281 C 269.683594 871.289062 266.746094 880.722656 266.507812 892.871094 C 249.859375 893.4375 253.371094 914.140625 239.679688 917.652344 C 208.785156 904.589844 222.191406 863.707031 233.484375 839.214844 C 213.554688 843.503906 196.035156 855.375 177.742188 845.402344 C 177.742188 815.820312 208.851562 817.347656 229.347656 808.238281 C 228.136719 784.003906 197.800781 788.863281 200.453125 760.765625 C 236.453125 741.148438 251.421875 791.488281 285.089844 781.410156 C 305.769531 775.214844 304.304688 748.667969 332.5625 746.320312 C 331.21875 765.621094 313.664062 768.699219 309.867188 785.542969 C 315.375 805.890625 342.589844 804.660156 365.589844 802.054688 C 423.160156 795.515625 499.054688 763.605469 528.675781 731.863281 C 459.496094 629.71875 328.460938 589.421875 283.039062 463.511719 C 296.644531 462 299.398438 449.621094 299.535156 434.609375 C 286.667969 424.75 278.636719 431.710938 262.375 428.410156 C 241.664062 466.539062 193.9375 495.808594 204.585938 550.210938 C 209.492188 575.269531 238.4375 580.191406 235.546875 614.210938 C 163.648438 625.625 167.277344 527.539062 190.140625 477.96875 C 203.359375 449.261719 234.203125 434.179688 241.746094 409.851562 C 260.039062 404.078125 276.972656 396.921875 287.152344 383 C 274.6875 368.328125 253.320312 389.488281 237.613281 391.269531 C 216.898438 386.96875 206.566406 385.058594 183.941406 383 C 147.804688 355.578125 128.925781 305.75 150.914062 261.21875 C 167.292969 269.949219 165.476562 239.46875 179.824219 246.769531 C 165.226562 267.628906 158.492188 319.859375 190.140625 337.589844 C 238.789062 365.308594 279.628906 324.289062 283.039062 275.671875 C 271.933594 219.128906 314.433594 182.339844 340.824219 149.75 C 357.121094 145.148438 373.570312 131.539062 392.433594 133.230469 C 402.113281 134.089844 405.992188 143.839844 417.195312 141.488281 C 418.386719 154.378906 419.429688 168.089844 435.777344 170.378906 C 438.210938 149.558594 420.875 130.050781 429.589844 102.261719 C 433.710938 102.261719 437.859375 102.261719 441.972656 102.261719" fill="#e1a3ff"/></g><g id="change4_4"><path d="M 252.058594 294.25 C 241.105469 278.789062 186.496094 261.789062 181.871094 285.988281 C 179.167969 300.140625 202.824219 326.871094 219.035156 327.28125 C 235.882812 327.699219 248.199219 313.738281 252.058594 294.25" fill="#e1a3ff"/></g><g id="change1_3"><path d="M 896.101562 329.339844 C 885.449219 331.75 878.15625 337.53125 867.207031 339.660156 C 872.816406 350.558594 880.257812 359.640625 889.917969 366.488281 C 902.703125 364.238281 897.863281 340.121094 896.101562 329.339844" fill="#fffffd"/></g><g id="change3_2"><path d="M 574.082031 337.589844 C 566.25 358.550781 622.277344 371.550781 648.398438 374.761719 C 665.957031 376.890625 687.910156 380.710938 695.890625 368.558594 C 689.609375 356.03125 672.269531 362.960938 660.78125 362.359375 C 632.375 360.898438 600.285156 351.328125 580.28125 337.589844 C 578.214844 337.589844 576.164062 337.589844 574.082031 337.589844" fill="inherit"/></g><g id="change1_4"><path d="M 846.558594 354.121094 C 827.390625 359.699219 816.824219 373.921875 803.21875 385.070312 C 813.886719 394.148438 829.355469 404.429688 844.492188 397.460938 C 847.148438 389.25 846.558594 370.578125 846.558594 354.121094" fill="#fffffd"/></g><g id="change5_1"><path d="M 1055.058594 391.269531 C 1040.910156 391.570312 1028.859375 393.980469 1017.898438 397.460938 C 994.089844 425.210938 1015.429688 475.78125 989 508.941406 C 955.585938 550.859375 870.90625 508.828125 832.113281 533.710938 C 823.964844 538.929688 804.277344 561.289062 803.21875 574.988281 C 801.65625 594.96875 818.441406 604.789062 823.863281 622.464844 C 848.929688 615.621094 858.167969 595.53125 885.785156 587.371094 C 925.113281 575.761719 973.507812 587.648438 1007.578125 564.671875 C 1015.160156 559.550781 1030.339844 536.800781 1032.359375 527.511719 C 1035.011719 515.261719 1031.03125 498.351562 1034.410156 486.210938 C 1043.308594 454.480469 1103.398438 422.929688 1055.058594 391.269531" fill="#ea3434"/></g><g id="change3_3"><path d="M 611.242188 416.039062 C 607.445312 429.96875 636.269531 436.800781 650.464844 432.550781 C 648.449219 415.988281 622.628906 423.230469 611.242188 416.039062" fill="inherit"/></g><g id="change3_4"><path d="M 472.933594 446.988281 C 469.355469 456.21875 474.078125 469.070312 487.382812 467.640625 C 492.859375 457.878906 484.476562 446.421875 472.933594 446.988281" fill="inherit"/></g><g id="change3_5"><path d="M 452.289062 492.410156 C 450.222656 492.410156 448.171875 492.410156 446.105469 492.410156 C 443.300781 503.558594 449.933594 519.199219 464.6875 519.25 C 470.0625 505.761719 453.179688 505.511719 452.289062 492.410156" fill="inherit"/></g><g id="change1_5"><path d="M 1042.671875 663.757812 C 1057.140625 654.144531 1077.378906 650.292969 1086.011719 634.835938 C 1065.890625 617.480469 1032.710938 634.042969 1042.671875 663.757812" fill="#fffffd"/></g><g id="change1_6"><path d="M 970.417969 659.617188 C 969.261719 669.269531 967.816406 675.40625 968.355469 690.589844 C 993.148438 689.214844 1012.449219 682.382812 1028.230469 672 C 1014.101562 659.566406 991.464844 648.375 970.417969 659.617188" fill="#fffffd"/></g><g id="change1_7"><path d="M 902.3125 684.394531 C 912.128906 691.800781 941.457031 690.617188 951.84375 690.589844 C 943.457031 681.070312 924.914062 681.722656 920.878906 667.886719 C 911.039062 669.730469 909.371094 679.765625 902.3125 684.394531" fill="#fffffd"/></g><g id="change3_6"><path d="M 815.597656 744.25 C 809.789062 758.171875 824.03125 761.066406 827.980469 771.097656 C 858.066406 789.328125 917.015625 801.589844 951.84375 785.542969 C 951.84375 781.410156 951.84375 777.285156 951.84375 773.144531 C 911.339844 787.507812 846.59375 780.96875 821.800781 744.25 C 819.734375 744.25 817.667969 744.25 815.597656 744.25" fill="inherit"/></g><g id="change3_7"><path d="M 811.46875 820.636719 C 810.527344 839.089844 826.917969 850.222656 842.441406 845.402344 C 833.726562 835.523438 825.273438 825.402344 811.46875 820.636719" fill="inherit"/></g><g id="change3_8"><path d="M 1030.289062 950.675781 C 1030.339844 955.550781 1026.730469 956.761719 1028.230469 963.0625 C 1036.609375 967.71875 1047.398438 968.703125 1046.808594 954.8125 C 1041.75 952.976562 1037.851562 950.007812 1030.289062 950.675781" fill="inherit"/></g><g id="change3_9"><path d="M 997.265625 956.878906 C 991.199219 969.859375 1005.230469 978.214844 1013.78125 969.261719 C 1011.289062 962.121094 1007.5 956.269531 997.265625 956.878906" fill="inherit"/></g><g id="change3_10"><path d="M 753.683594 1122.011719 C 756.132812 1126.441406 755.898438 1133.539062 759.863281 1136.460938 C 766.34375 1137.429688 765.320312 1130.910156 770.191406 1130.28125 C 768.160156 1122.570312 760.414062 1113.25 753.683594 1122.011719" fill="inherit"/></g><g id="change3_11"><path d="M 753.683594 1161.230469 C 747.363281 1159.738281 746.15625 1163.339844 741.28125 1163.300781 C 741.464844 1166.21875 741.636719 1169.148438 739.230469 1169.488281 C 742.660156 1181.980469 762.632812 1172.941406 753.683594 1161.230469" fill="inherit"/></g><g id="change3_12"><path d="M 1133.5 1270.648438 C 1134.96875 1260.238281 1125.898438 1260.371094 1125.238281 1252.058594 C 1102.558594 1250.949219 1117.78125 1281.839844 1133.5 1270.648438" fill="inherit"/></g><g id="change3_13"><path d="M 914.679688 1266.519531 C 908.730469 1264.078125 893.34375 1269.871094 896.101562 1283.03125 C 909.15625 1284.371094 910.667969 1274.199219 914.679688 1266.519531" fill="inherit"/></g><g id="change3_14"><path d="M 1086.011719 1276.828125 C 1085.039062 1288.140625 1092.28125 1291.21875 1100.480469 1293.351562 C 1101.109375 1288.488281 1107.640625 1289.511719 1106.660156 1283.03125 C 1102.058594 1279.109375 1091.609375 1273.269531 1086.011719 1276.828125" fill="inherit"/></g><g id="change3_15"><path d="M 939.457031 1276.828125 C 937.390625 1276.828125 935.324219 1276.828125 933.257812 1276.828125 C 932.992188 1286.191406 927.429688 1290.261719 925.011719 1297.480469 C 936.050781 1304.429688 944.75 1286.539062 939.457031 1276.828125" fill="inherit"/></g><g id="change1_8"><path d="M 572.015625 1481.199219 C 565.074219 1476.421875 550.796875 1481.921875 543.121094 1483.25 C 542.882812 1491.058594 547.152344 1494.371094 553.433594 1495.640625 C 556.523438 1487.730469 565.195312 1485.378906 572.015625 1481.199219" fill="#fffffd"/></g><g id="change3_16"><path d="M 572.015625 1481.199219 C 565.074219 1476.421875 550.796875 1481.921875 543.121094 1483.25 C 542.882812 1491.058594 547.152344 1494.371094 553.433594 1495.640625 C 556.523438 1487.730469 565.195312 1485.378906 572.015625 1481.199219 Z M 902.3125 684.394531 C 912.128906 691.800781 941.457031 690.617188 951.84375 690.589844 C 943.457031 681.070312 924.914062 681.722656 920.878906 667.886719 C 911.039062 669.730469 909.371094 679.765625 902.3125 684.394531 Z M 970.417969 659.617188 C 969.261719 669.269531 967.816406 675.40625 968.355469 690.589844 C 993.148438 689.214844 1012.449219 682.382812 1028.230469 672 C 1014.101562 659.566406 991.464844 648.375 970.417969 659.617188 Z M 1042.671875 663.757812 C 1057.140625 654.144531 1077.378906 650.292969 1086.011719 634.835938 C 1065.890625 617.480469 1032.710938 634.042969 1042.671875 663.757812 Z M 1055.058594 391.269531 C 1040.910156 391.570312 1028.859375 393.980469 1017.898438 397.460938 C 994.089844 425.210938 1015.429688 475.78125 989 508.941406 C 955.585938 550.859375 870.90625 508.828125 832.113281 533.710938 C 823.964844 538.929688 804.277344 561.289062 803.21875 574.988281 C 801.65625 594.96875 818.441406 604.789062 823.863281 622.464844 C 848.929688 615.621094 858.167969 595.53125 885.785156 587.371094 C 925.113281 575.761719 973.507812 587.648438 1007.578125 564.671875 C 1015.160156 559.550781 1030.339844 536.800781 1032.359375 527.511719 C 1035.011719 515.261719 1031.03125 498.351562 1034.410156 486.210938 C 1043.308594 454.480469 1103.398438 422.929688 1055.058594 391.269531 Z M 846.558594 354.121094 C 827.390625 359.699219 816.824219 373.921875 803.21875 385.070312 C 813.886719 394.148438 829.355469 404.429688 844.492188 397.460938 C 847.148438 389.25 846.558594 370.578125 846.558594 354.121094 Z M 896.101562 329.339844 C 885.449219 331.75 878.15625 337.53125 867.207031 339.660156 C 872.816406 350.558594 880.257812 359.640625 889.917969 366.488281 C 902.703125 364.238281 897.863281 340.121094 896.101562 329.339844 Z M 252.058594 294.25 C 241.105469 278.789062 186.496094 261.789062 181.871094 285.988281 C 179.167969 300.140625 202.824219 326.871094 219.035156 327.28125 C 235.882812 327.699219 248.199219 313.738281 252.058594 294.25 Z M 429.589844 102.261719 C 420.875 130.050781 438.210938 149.558594 435.777344 170.378906 C 419.429688 168.089844 418.386719 154.378906 417.195312 141.488281 C 405.992188 143.839844 402.113281 134.089844 392.433594 133.230469 C 373.570312 131.539062 357.121094 145.148438 340.824219 149.75 C 314.433594 182.339844 271.933594 219.128906 283.039062 275.671875 C 279.628906 324.289062 238.789062 365.308594 190.140625 337.589844 C 158.492188 319.859375 165.226562 267.628906 179.824219 246.769531 C 165.476562 239.46875 167.292969 269.949219 150.914062 261.21875 C 128.925781 305.75 147.804688 355.578125 183.941406 383 C 206.566406 385.058594 216.898438 386.96875 237.613281 391.269531 C 253.320312 389.488281 274.6875 368.328125 287.152344 383 C 276.972656 396.921875 260.039062 404.078125 241.746094 409.851562 C 234.203125 434.179688 203.359375 449.261719 190.140625 477.96875 C 167.277344 527.539062 163.648438 625.625 235.546875 614.210938 C 238.4375 580.191406 209.492188 575.269531 204.585938 550.210938 C 193.9375 495.808594 241.664062 466.539062 262.375 428.410156 C 278.636719 431.710938 286.667969 424.75 299.535156 434.609375 C 299.398438 449.621094 296.644531 462 283.039062 463.511719 C 328.460938 589.421875 459.496094 629.71875 528.675781 731.863281 C 499.054688 763.605469 423.160156 795.515625 365.589844 802.054688 C 342.589844 804.660156 315.375 805.890625 309.867188 785.542969 C 313.664062 768.699219 331.21875 765.621094 332.5625 746.320312 C 304.304688 748.667969 305.769531 775.214844 285.089844 781.410156 C 251.421875 791.488281 236.453125 741.148438 200.453125 760.765625 C 197.800781 788.863281 228.136719 784.003906 229.347656 808.238281 C 208.851562 817.347656 177.742188 815.820312 177.742188 845.402344 C 196.035156 855.375 213.554688 843.503906 233.484375 839.214844 C 222.191406 863.707031 208.785156 904.589844 239.679688 917.652344 C 253.371094 914.140625 249.859375 893.4375 266.507812 892.871094 C 266.746094 880.722656 269.683594 871.289062 278.890625 868.113281 C 287.859375 873.570312 279.695312 888.535156 278.890625 897.007812 C 285.089844 909.136719 302.691406 923.367188 318.113281 913.527344 C 323.691406 882.285156 298.359375 847.648438 336.695312 839.214844 C 376.59375 830.421875 429.574219 842.363281 472.933594 835.078125 C 506.851562 829.386719 527.449219 814.90625 551.386719 806.195312 C 597.464844 834.671875 613.304688 926.816406 617.4375 991.972656 C 620.566406 1041.410156 611.007812 1104.25 605.042969 1155.039062 C 603.140625 1171.371094 607.042969 1187.550781 605.042969 1202.511719 C 599.078125 1247.230469 581.722656 1282.929688 563.765625 1320.191406 C 548.527344 1351.769531 498.753906 1394.050781 454.351562 1388.300781 C 423.074219 1384.25 387.816406 1352.910156 384.167969 1320.191406 C 378.945312 1273.03125 439.015625 1228.371094 487.382812 1243.800781 C 493.597656 1249.089844 486.960938 1263.261719 489.464844 1268.589844 C 516.175781 1258.261719 496.050781 1222.871094 483.25 1216.980469 C 460.976562 1206.679688 415.804688 1206.988281 396.566406 1212.839844 C 327.304688 1233.949219 315.308594 1332.738281 359.40625 1390.378906 C 400.128906 1443.578125 472.042969 1429.171875 534.851562 1456.429688 C 572.316406 1457.871094 632.949219 1448.589844 642.203125 1421.328125 C 656.0625 1418.769531 670.386719 1423.621094 675.226562 1435.78125 C 660.328125 1452.53125 636.105469 1459.929688 615.375 1470.878906 C 630.542969 1481.160156 647.746094 1489.421875 648.398438 1514.238281 C 641.34375 1542.070312 580.230469 1535.121094 598.863281 1501.828125 C 616.148438 1499.011719 611.964844 1517.648438 625.6875 1518.351562 C 649.628906 1470.199219 550.109375 1481.441406 569.949219 1532.808594 C 582.617188 1565.53125 638.503906 1555.109375 677.296875 1549.308594 C 709.378906 1529.441406 742.675781 1495.921875 739.230469 1452.300781 C 737.335938 1428.238281 722.738281 1407.640625 735.101562 1388.300781 C 747.832031 1394.128906 747.898438 1412.660156 759.863281 1419.269531 C 759.78125 1471.800781 786.886719 1508.71875 821.800781 1539 C 825.949219 1542.589844 827.359375 1550.960938 830.046875 1553.441406 C 873.167969 1593.28125 980.351562 1599.929688 1019.960938 1545.199219 C 1025.300781 1521.28125 1041.378906 1506.5 1042.671875 1481.199219 C 1045.378906 1428.96875 1013.160156 1380.851562 962.171875 1388.300781 C 935.023438 1392.28125 923.769531 1417.570312 910.566406 1439.921875 C 909.691406 1479.898438 932.675781 1505.078125 976.617188 1493.589844 C 983.894531 1477.75 969.933594 1473.480469 966.285156 1462.628906 C 953.90625 1464.398438 964.273438 1477.210938 953.925781 1479.121094 C 935.929688 1472.421875 936.320312 1445.070312 966.285156 1448.171875 C 987.453125 1450.351562 998.554688 1482.589844 991.066406 1499.78125 C 973.15625 1540.898438 890.285156 1516.699219 896.101562 1460.539062 C 881.382812 1453.949219 869.824219 1444.171875 863.074219 1429.589844 C 874.449219 1422.089844 880.3125 1429.671875 889.917969 1433.71875 C 905.171875 1398.140625 944.464844 1358.671875 989 1361.46875 C 1026.269531 1363.820312 1038.21875 1399.46875 1055.058594 1427.519531 C 1052.859375 1453.351562 1057.988281 1479.089844 1052.980469 1508.03125 C 1119.980469 1520.359375 1186.460938 1540.898438 1255.300781 1520.417969 C 1272.769531 1515.210938 1296.488281 1505.421875 1308.960938 1497.710938 C 1317.289062 1492.578125 1326.410156 1480.941406 1335.800781 1468.808594 C 1354.488281 1444.679688 1373.179688 1417.101562 1368.820312 1375.910156 C 1363.089844 1321.621094 1318.058594 1281.480469 1240.828125 1287.171875 C 1224.039062 1298.738281 1201.96875 1309.351562 1195.429688 1332.570312 C 1185.871094 1366.519531 1208.71875 1408.601562 1253.230469 1400.691406 C 1253.230469 1392.421875 1253.230469 1384.179688 1253.230469 1375.910156 C 1248.5 1368.269531 1231.75 1372.628906 1232.589844 1359.421875 C 1263.238281 1337.269531 1274.871094 1386.859375 1263.558594 1411.019531 C 1210.179688 1421.390625 1179.109375 1383.738281 1183.039062 1340.808594 C 1190.199219 1262.679688 1304.789062 1260.578125 1350.25 1307.808594 C 1388.179688 1241.648438 1309.878906 1140.808594 1253.230469 1171.558594 C 1240.601562 1178.421875 1236.648438 1193.601562 1224.320312 1204.589844 C 1226.648438 1225.820312 1238.328125 1248.140625 1261.480469 1241.75 C 1266.570312 1215.191406 1231.539062 1230.960938 1230.519531 1219.050781 C 1228.601562 1196.800781 1283.601562 1219.921875 1280.058594 1241.75 C 1262.671875 1270.46875 1217.390625 1248.851562 1216.070312 1219.050781 C 1200.308594 1209.339844 1191.800781 1192.378906 1183.039062 1175.691406 C 1194.351562 1055.019531 1205.101562 904.417969 1189.230469 766.972656 C 1209.640625 758.480469 1231.539062 773.386719 1255.300781 775.214844 C 1318.53125 780.097656 1373.828125 749.050781 1405.988281 715.367188 C 1425.988281 694.410156 1432.808594 666.496094 1463.769531 659.617188 C 1473.480469 661.613281 1471.71875 675.097656 1478.238281 680.257812 C 1500.699219 688.730469 1546.878906 696.753906 1550.46875 665.8125 C 1532.398438 670.535156 1509.75 674.105469 1505.070312 659.617188 C 1498.160156 638.214844 1541.398438 618.25 1525.710938 591.5 C 1507.71875 603.800781 1515.300781 641.640625 1476.171875 632.789062 C 1458.71875 614.589844 1477.289062 592.171875 1469.988281 566.71875 C 1462.238281 592.109375 1455.289062 628.976562 1426.628906 626.59375 C 1412.421875 622.898438 1404.738281 601.730469 1395.660156 599.769531 C 1388.929688 620.105469 1415.230469 625.847656 1410.121094 647.234375 C 1408.648438 653.324219 1394.609375 662.023438 1387.398438 667.886719 C 1363.71875 687.121094 1347.789062 698.542969 1317.21875 717.421875 C 1315.199219 718.671875 1311.140625 720.636719 1308.960938 721.535156 C 1269.011719 738.257812 1222.171875 738.289062 1189.230469 752.515625 C 1155.441406 742.957031 1161.910156 693.140625 1158.269531 653.421875 C 1166.289062 639.753906 1178.839844 641.8125 1191.289062 634.835938 C 1190.289062 628.339844 1195.019531 627.5625 1193.359375 620.394531 C 1191.769531 615.121094 1183.089844 616.898438 1183.039062 610.078125 C 1075.980469 631.582031 1008.019531 748.007812 885.785156 690.589844 C 875.519531 689.5625 873.503906 690.996094 867.207031 688.53125 C 819.734375 663.886719 793.863281 624.394531 772.257812 570.859375 C 766.328125 556.199219 757.527344 540.96875 755.746094 529.578125 C 740.171875 430 785.414062 375.390625 844.492188 341.730469 C 876.53125 323.480469 946.546875 311.570312 929.144531 267.398438 C 902.621094 250.828125 879.421875 276.988281 850.707031 273.589844 C 817.984375 306.03125 762.214844 326.160156 700.003906 327.28125 C 683.355469 327.570312 668.070312 322.191406 648.398438 319.011719 C 591.703125 309.851562 529.730469 296.558594 497.710938 263.28125 C 479.285156 244.148438 470.179688 221.5 454.351562 203.421875 C 443.03125 171.859375 450.492188 133.328125 441.972656 102.261719 C 437.859375 102.261719 433.710938 102.261719 429.589844 102.261719 Z M 130.265625 283.929688 C 129.796875 273.828125 136.566406 270.941406 136.46875 261.21875 C 87.882812 255.210938 43.300781 212.929688 45.632812 158.011719 C 46.003906 149.421875 47.546875 132.601562 53.882812 122.921875 C 62.785156 109.320312 83.96875 116.671875 84.859375 91.949219 C 81.585938 91.789062 76.980469 92.941406 76.609375 89.878906 C 74.53125 89.878906 72.476562 89.878906 70.394531 89.878906 C 65.070312 101.070312 57.863281 110.359375 45.632812 114.660156 C 42.878906 132 30.683594 139.011719 27.054688 151.820312 C 4.410156 231.628906 77.082031 266.339844 130.265625 283.929688 Z M 266.507812 242.640625 C 268.726562 237.28125 271.53125 232.519531 270.640625 224.070312 C 263.988281 223.601562 261.90625 227.71875 254.125 226.128906 C 227.820312 206.949219 219.320312 181.058594 229.347656 151.820312 C 239.007812 123.691406 272.957031 116.96875 270.640625 85.75 C 269.480469 70.121094 258.160156 56.878906 243.792969 48.609375 C 240.46875 48.019531 240.25 50.558594 237.613281 50.648438 C 234.554688 63.960938 237.96875 74.410156 235.546875 85.75 C 231.144531 106.320312 213.457031 113.269531 206.652344 127.039062 C 184.898438 171.039062 220.898438 244.089844 266.507812 242.640625 Z M 563.765625 32.089844 C 519.035156 52.191406 480.746094 84.511719 468.804688 131.171875 C 461.460938 243.160156 576.230469 305.050781 681.425781 312.828125 C 697.402344 313.988281 718.203125 314.691406 733.03125 312.828125 C 740.828125 311.839844 748.253906 304.71875 757.808594 302.511719 C 775.886719 298.308594 794.417969 297.988281 807.351562 290.128906 C 826.203125 278.609375 836.023438 257.191406 852.761719 246.769531 C 860.839844 216.039062 854.019531 190.890625 846.558594 162.128906 C 818.820312 200.699219 727.15625 214.019531 669.046875 199.300781 C 593.265625 180.089844 543.152344 116.089844 563.765625 32.089844 Z M 671.109375 30.019531 C 682.503906 61.78125 636.441406 77.96875 607.109375 63.050781 C 609.933594 102.949219 655.691406 146.980469 697.941406 153.859375 C 744 161.410156 794.652344 146.28125 788.769531 91.949219 C 761.339844 60.789062 711.53125 41.328125 671.109375 30.019531 Z M 602.992188 23.828125 C 595.164062 24.949219 590.089844 28.820312 580.28125 27.960938 C 530.925781 161.441406 692.632812 226.589844 815.597656 176.578125 C 821.800781 164.898438 833.105469 158.308594 838.3125 145.621094 C 826.347656 131.441406 816.675781 114.960938 801.152344 104.328125 C 799.15625 145.179688 763.65625 165.78125 730.96875 168.328125 C 655.101562 174.21875 573.746094 103.101562 602.992188 23.828125 Z M 658.714844 46.539062 C 658.515625 22.378906 616.769531 15.230469 613.304688 36.210938 C 609.960938 56.488281 645.863281 63.191406 658.714844 46.539062 Z M 411.011719 89.878906 C 427.445312 86.351562 438.042969 77.019531 456.421875 75.441406 C 487.953125 18.691406 580.800781 -13.21875 666.980469 5.238281 C 754.050781 23.910156 845.769531 88.660156 869.273438 151.820312 C 881.417969 184.460938 875.554688 209.359375 883.71875 240.570312 C 901.378906 235.910156 918.273438 230.101562 935.324219 230.25 C 975.125 249.121094 962.960938 316.800781 925.011719 329.339844 C 940.300781 365.789062 910.363281 410.671875 871.339844 387.140625 C 869.152344 422.621094 837.527344 426.480469 807.351562 424.300781 C 791.359375 456.449219 782.488281 499.609375 790.839844 539.890625 C 810.777344 513.410156 848.894531 500.820312 885.785156 502.730469 C 901.574219 503.558594 920.089844 511.679688 939.457031 508.941406 C 997.109375 500.769531 967.292969 400.808594 1005.53125 372.691406 C 1040.109375 347.230469 1095.25 378.359375 1098.410156 418.101562 C 1101.089844 451.839844 1069.160156 457.058594 1059.179688 492.410156 C 1055.890625 504.070312 1059.738281 517.921875 1057.140625 531.621094 C 1040.019531 621.269531 892.992188 583.589844 842.441406 643.105469 C 850.457031 652.964844 861.027344 660.285156 873.40625 665.8125 C 884.609375 648.375 922.695312 635.628906 941.527344 655.492188 C 957.066406 637.546875 990.867188 628.15625 1015.839844 636.921875 C 1022.78125 610.621094 1057.371094 599.011719 1086.011719 612.148438 C 1119.511719 577.691406 1237.140625 537.179688 1224.320312 636.921875 C 1216.140625 652.128906 1194.421875 653.789062 1183.039062 665.8125 C 1186.820312 685.425781 1182.441406 713.210938 1193.359375 725.679688 C 1277.671875 715.707031 1342.019531 685.789062 1385.339844 634.835938 C 1358.53125 618.605469 1367.949219 578.679688 1395.660156 577.050781 C 1414.808594 575.921875 1418.570312 592.859375 1432.808594 599.769531 C 1443.929688 584.039062 1439.628906 552.910156 1457.589844 544.019531 C 1469.859375 543.449219 1478.738281 546.269531 1488.558594 548.160156 C 1495.21875 553.878906 1494.679688 566.78125 1500.929688 572.921875 C 1541.519531 537.710938 1563.359375 590.359375 1544.289062 630.722656 C 1565.441406 629.9375 1576.339844 639.980469 1577.320312 655.492188 C 1580.578125 707.367188 1502.910156 723.546875 1463.769531 694.714844 C 1442.320312 716.785156 1421.039062 738.6875 1397.71875 756.632812 C 1356.179688 788.65625 1278.878906 796.355469 1216.070312 795.855469 C 1224.640625 885.144531 1233.609375 978.398438 1222.269531 1068.339844 C 1217.878906 1103 1202.539062 1142.269531 1214.011719 1171.558594 C 1230.949219 1160.339844 1242.03125 1145.460938 1265.621094 1144.71875 C 1306.910156 1143.410156 1360.910156 1174.050781 1377.089844 1212.839844 C 1391.179688 1246.691406 1382.839844 1287.378906 1383.269531 1326.378906 C 1402.238281 1359.300781 1411.128906 1401.828125 1399.789062 1433.71875 C 1389.339844 1463.121094 1360.070312 1500.03125 1335.800781 1514.238281 C 1324.378906 1520.898438 1301.148438 1522.941406 1282.128906 1530.738281 C 1274.25 1533.980469 1268.808594 1540.832031 1261.480469 1543.128906 C 1195.019531 1563.878906 1117.398438 1554.648438 1057.140625 1532.808594 C 1033.46875 1571.878906 997.332031 1605.082031 949.773438 1615.359375 C 897.460938 1626.679688 861.863281 1605.308594 834.179688 1584.417969 C 801.625 1559.820312 773.332031 1533.570312 757.808594 1499.78125 C 745.0625 1590.460938 554.914062 1614.980469 536.921875 1514.238281 C 518.945312 1508.121094 516.964844 1486.03125 501.832031 1477.078125 C 475.121094 1479.53125 467.054688 1466.898438 446.105469 1460.539062 C 439.253906 1458.46875 430.082031 1459.101562 421.328125 1456.429688 C 376.207031 1442.570312 318.25 1391.46875 301.601562 1347.019531 C 277.042969 1281.398438 326.144531 1210.320312 371.789062 1192.199219 C 409.652344 1177.160156 480.980469 1184.011719 508.027344 1208.710938 C 519.988281 1219.648438 526.203125 1237.96875 530.738281 1260.320312 C 524.039062 1280.539062 506.164062 1298.421875 483.25 1299.539062 C 461.679688 1300.589844 450.273438 1283.148438 437.859375 1276.828125 C 390.503906 1298.601562 407.753906 1373.921875 472.933594 1361.46875 C 510.546875 1354.28125 534.953125 1313.320312 551.386719 1283.03125 C 559.890625 1267.320312 568.183594 1251.199219 572.015625 1235.558594 C 579.421875 1205.300781 577.640625 1174.269531 582.34375 1138.53125 C 589.183594 1086.480469 596.472656 1038.71875 592.675781 983.710938 C 588.832031 928.472656 578.785156 866.917969 549.320312 835.078125 C 513.589844 847.933594 473.722656 860.808594 429.589844 861.921875 C 403.21875 862.589844 367.972656 852.757812 342.894531 866.046875 C 342.539062 894.753906 352 937.984375 309.867188 942.425781 C 293.773438 937.859375 277.695312 933.289062 266.507812 923.847656 C 258.273438 929.378906 253.285156 938.148438 241.746094 940.359375 C 213.054688 929.675781 187.921875 907.273438 192.1875 870.183594 C 182.195312 865.550781 173.105469 867.039062 163.296875 866.046875 C 134.285156 838.039062 169.8125 804.988281 192.1875 791.742188 C 164.488281 772.660156 182.363281 731.144531 216.96875 729.804688 C 234.910156 732.542969 253.707031 763.09375 272.707031 760.765625 C 284.585938 759.320312 290.414062 738.761719 303.667969 731.863281 C 348.738281 708.453125 384.871094 750.589844 357.339844 779.34375 C 409.164062 769.234375 460.351562 758.519531 491.511719 727.738281 C 424.316406 633.242188 309.261719 586.589844 258.261719 475.898438 C 248.617188 494.121094 233.078125 502.828125 231.433594 527.511719 C 229.316406 558.71875 265.851562 582.828125 264.441406 612.148438 C 263.9375 622.722656 258.261719 639.097656 243.792969 643.105469 C 232.40625 646.265625 211.457031 643.351562 202.519531 641.035156 C 189.519531 637.6875 181.472656 623.890625 167.429688 622.464844 C 125.480469 564.121094 159.109375 464.550781 196.320312 424.300781 C 149.773438 405.488281 124.554688 365.308594 115.820312 308.679688 C 64.515625 278.53125 -4.445312 256.71875 0.226562 170.378906 C 1.285156 150.699219 13.464844 121.488281 24.988281 106.398438 C 31.421875 97.980469 56.773438 73.640625 66.28125 71.308594 C 106.75 61.390625 122.707031 93.5 109.621094 122.921875 C 77.214844 131.828125 58.386719 156.128906 74.53125 193.089844 C 84.792969 216.558594 126.066406 243.550781 140.582031 242.640625 C 156.945312 241.601562 161.277344 221.800781 183.941406 226.128906 C 196.539062 228.539062 199.429688 243.308594 212.835938 246.769531 C 184.160156 220.910156 167.042969 169.160156 179.824219 124.96875 C 211.152344 110.921875 210.398438 64.730469 221.101562 30.019531 C 229.128906 24.28125 244.722656 26.109375 258.261719 25.890625 C 277.863281 39.5 294.847656 56.878906 297.46875 79.570312 C 302.40625 122.050781 238.859375 151.800781 266.507812 195.160156 C 293.671875 149.898438 336.726562 117.238281 400.679688 114.660156 C 401.40625 103.671875 407.015625 97.570312 411.011719 89.878906" fill="inherit"/></g></g></svg>