<?xml version="1.0" encoding="UTF-8" standalone="no"?><svg xmlns="http://www.w3.org/2000/svg" xmlns:xlink="http://www.w3.org/1999/xlink" fill="#000000" height="389.2" preserveAspectRatio="xMidYMid meet" version="1" viewBox="0.0 0.0 895.9 389.2" width="895.9" zoomAndPan="magnify"><defs><clipPath id="a"><path d="M 0 239 L 895.949219 239 L 895.949219 389.21875 L 0 389.21875 Z M 0 239"/></clipPath><clipPath id="b"><path d="M 0 175 L 895.949219 175 L 895.949219 305 L 0 305 Z M 0 175"/></clipPath></defs><g><g clip-path="url(#a)" id="change1_1"><path d="M 895.945312 331.105469 C 895.945312 331.105469 840.445312 391.679688 447.972656 389.144531 C 55.503906 386.605469 0 331.105469 0 331.105469 L 0 239.308594 L 895.945312 239.308594 L 895.945312 331.105469" fill="#5a8de9"/></g><g clip-path="url(#b)" id="change2_1"><path d="M 895.945312 239.601562 C 895.945312 275.242188 695.382812 304.136719 447.976562 304.136719 C 200.566406 304.136719 0 275.242188 0 239.601562 C 0 203.960938 200.566406 175.066406 447.976562 175.066406 C 695.382812 175.066406 895.945312 203.960938 895.945312 239.601562" fill="#1b4a9b"/></g><g id="change1_2"><path d="M 799.574219 224.730469 C 799.574219 224.730469 756.121094 272.15625 448.835938 270.171875 C 141.550781 268.1875 98.09375 224.730469 98.09375 224.730469 L 98.09375 137.070312 L 799.574219 137.070312 L 799.574219 224.730469" fill="#5a8de9"/></g><g id="change2_2"><path d="M 799.574219 137.324219 C 799.574219 165.230469 642.542969 187.851562 448.835938 187.851562 C 255.125 187.851562 98.09375 165.230469 98.09375 137.324219 C 98.09375 109.421875 255.125 86.800781 448.835938 86.800781 C 642.542969 86.800781 799.574219 109.421875 799.574219 137.324219" fill="#1b4a9b"/></g><g id="change1_3"><path d="M 709.445312 116.800781 C 709.445312 116.800781 677.257812 151.933594 449.640625 150.460938 C 222.019531 148.988281 189.832031 116.800781 189.832031 116.800781 L 189.832031 37.199219 L 709.445312 37.199219 L 709.445312 116.800781" fill="#5a8de9"/></g><g id="change2_3"><path d="M 709.445312 37.429688 C 709.445312 58.101562 593.125 74.855469 449.640625 74.855469 C 306.152344 74.855469 189.832031 58.101562 189.832031 37.429688 C 189.832031 16.757812 306.152344 0.00390625 449.640625 0.00390625 C 593.125 0.00390625 709.445312 16.757812 709.445312 37.429688" fill="#1b4a9b"/></g></g></svg>