<?xml version="1.0" encoding="UTF-8" standalone="no"?><svg xmlns="http://www.w3.org/2000/svg" xmlns:xlink="http://www.w3.org/1999/xlink" fill="#000000" height="402.1" preserveAspectRatio="xMidYMid meet" version="1" viewBox="4.1 10.5 417.0 402.1" width="417" zoomAndPan="magnify"><defs><clipPath id="a"><path d="M 0 0 L 425.199219 0 L 425.199219 425.199219 L 0 425.199219 Z M 0 0"/></clipPath></defs><g id="change1_1"><g clip-path="url(#a)"/><path d="M 39.371094 38.019531 L 47.890625 39.785156 L 39.210938 39.230469 L 37.445312 47.75 L 37.996094 39.066406 L 29.476562 37.304688 L 38.160156 37.855469 L 39.925781 29.335938 L 39.371094 38.019531" fill="#e9e4c1"/><path d="M 219.414062 44.496094 L 227.9375 46.265625 L 219.253906 45.710938 L 217.488281 54.230469 L 218.042969 45.546875 L 209.523438 43.78125 L 218.207031 44.335938 L 219.972656 35.8125 L 219.414062 44.496094" fill="#e9e4c1"/><path d="M 101.257812 132.585938 L 105.007812 133.359375 L 101.1875 133.113281 L 100.410156 136.863281 L 100.652344 133.046875 L 96.90625 132.269531 L 100.726562 132.511719 L 101.503906 128.765625 L 101.257812 132.585938" fill="#e9e4c1"/><path d="M 92.050781 70.058594 L 95.800781 70.835938 L 91.980469 70.589844 L 91.203125 74.339844 L 91.449219 70.519531 L 87.699219 69.742188 L 91.519531 69.984375 L 92.292969 66.238281 L 92.050781 70.058594" fill="#e9e4c1"/><path d="M 91.351562 35.820312 L 91.113281 35.863281 C 90.84375 35.921875 90.84375 36.355469 91.113281 36.410156 L 91.351562 36.453125 C 91.882812 36.539062 91.882812 35.734375 91.351562 35.820312" fill="#e9e4c1"/><path d="M 51.050781 91.9375 C 50.367188 91.9375 50.367188 92.996094 51.050781 92.996094 C 51.738281 92.996094 51.738281 91.9375 51.050781 91.9375" fill="#e9e4c1"/><path d="M 109.507812 98.289062 C 108.789062 98.289062 108.789062 99.398438 109.507812 99.398438 C 110.222656 99.398438 110.222656 98.289062 109.507812 98.289062" fill="#e9e4c1"/><path d="M 158.394531 54.863281 C 157.871094 54.863281 157.871094 55.675781 158.394531 55.675781 C 158.921875 55.675781 158.921875 54.863281 158.394531 54.863281" fill="#e9e4c1"/><path d="M 77.269531 69.019531 C 76.722656 69.019531 76.722656 69.859375 77.269531 69.859375 C 77.8125 69.859375 77.8125 69.019531 77.269531 69.019531" fill="#e9e4c1"/><path d="M 112.195312 12.613281 C 112.085938 12.738281 111.976562 12.863281 111.863281 12.988281 C 111.71875 13.15625 111.941406 13.378906 112.109375 13.230469 L 112.484375 12.898438 C 112.683594 12.726562 112.371094 12.414062 112.195312 12.613281" fill="#e9e4c1"/><path d="M 33.339844 13.003906 C 33.15625 13.019531 32.960938 13.019531 32.804688 13.132812 C 32.625 13.261719 32.507812 13.519531 32.652344 13.730469 L 32.820312 13.984375 C 32.894531 14.078125 33.074219 14.074219 33.152344 13.984375 L 33.226562 13.910156 L 33.339844 13.925781 C 33.933594 13.964844 33.929688 12.957031 33.339844 13.003906" fill="#e9e4c1"/><path d="M 19.449219 77.671875 C 19.296875 77.707031 19.171875 77.726562 19.054688 77.832031 L 19.054688 78.054688 C 19.171875 78.15625 19.296875 78.175781 19.449219 78.214844 C 19.902344 78.324219 19.902344 77.558594 19.449219 77.671875" fill="#e9e4c1"/><path d="M 197.011719 28.039062 C 196.617188 28.039062 196.617188 28.648438 197.011719 28.648438 C 197.402344 28.648438 197.402344 28.039062 197.011719 28.039062" fill="#e9e4c1"/><path d="M 197.011719 60.507812 C 196.457031 60.507812 196.457031 61.367188 197.011719 61.367188 C 197.566406 61.367188 197.566406 60.507812 197.011719 60.507812" fill="#e9e4c1"/><path d="M 118.105469 60.117188 L 118.011719 60.113281 L 117.96875 60.121094 L 117.714844 60.128906 C 117.128906 60.144531 117.128906 61.019531 117.714844 61.035156 L 117.96875 61.046875 L 118.011719 61.050781 L 118.105469 61.050781 C 118.414062 61.058594 118.5625 60.820312 118.554688 60.582031 C 118.5625 60.34375 118.414062 60.105469 118.105469 60.117188" fill="#e9e4c1"/><path d="M 156.269531 27.835938 C 155.613281 27.835938 155.613281 28.851562 156.269531 28.851562 C 156.925781 28.851562 156.925781 27.835938 156.269531 27.835938" fill="#e9e4c1"/><path d="M 130.785156 36.871094 C 130.726562 36.976562 130.648438 37.058594 130.554688 37.128906 C 130.117188 37.480469 130.117188 38.339844 130.554688 38.691406 C 130.648438 38.761719 130.726562 38.847656 130.785156 38.949219 C 131.621094 39.992188 133.296875 39.089844 133.296875 37.910156 C 133.296875 36.730469 131.621094 35.828125 130.785156 36.871094" fill="#e9e4c1"/><path d="M 67.417969 22.203125 C 66.984375 22.117188 66.597656 22.066406 66.164062 22.195312 C 65.65625 22.34375 65.132812 22.777344 65.03125 23.324219 L 65.023438 23.386719 C 64.890625 23.65625 64.832031 23.953125 64.953125 24.28125 C 65.078125 24.621094 65.292969 24.855469 65.566406 25.003906 C 66.082031 25.445312 66.761719 25.410156 67.417969 25.273438 C 68.933594 24.964844 68.953125 22.503906 67.417969 22.203125" fill="#e9e4c1"/><path d="M 45.847656 75 L 45.761719 74.910156 C 45.378906 74.507812 44.683594 74.507812 44.296875 74.910156 L 44.214844 75 C 43.519531 75.722656 44.007812 76.972656 45.03125 76.972656 C 46.054688 76.972656 46.539062 75.722656 45.847656 75" fill="#e9e4c1"/><path d="M 71.492188 101.046875 C 71.335938 100.863281 71.144531 100.71875 70.90625 100.683594 C 70.53125 100.628906 70.230469 100.617188 69.894531 100.816406 C 69.066406 101.304688 69.023438 102.597656 69.894531 103.078125 L 69.929688 103.097656 C 70.269531 103.285156 70.730469 103.335938 71.09375 103.160156 L 71.199219 103.148438 C 72.199219 102.945312 72.28125 101.507812 71.492188 101.046875" fill="#e9e4c1"/><path d="M 164.515625 117.636719 C 163.828125 117.636719 163.828125 118.699219 164.515625 118.699219 C 165.199219 118.699219 165.199219 117.636719 164.515625 117.636719" fill="#e9e4c1"/><path d="M 132.90625 103.371094 C 132.761719 103.40625 132.632812 103.425781 132.519531 103.53125 L 132.519531 103.753906 C 132.632812 103.859375 132.761719 103.878906 132.90625 103.914062 C 133.359375 104.023438 133.359375 103.261719 132.90625 103.371094" fill="#e9e4c1"/><path d="M 159.308594 100.699219 L 159.222656 100.609375 C 158.839844 100.210938 158.144531 100.210938 157.761719 100.609375 L 157.675781 100.699219 C 156.980469 101.421875 157.46875 102.675781 158.492188 102.675781 C 159.515625 102.675781 160.003906 101.421875 159.308594 100.699219" fill="#e9e4c1"/><path d="M 184.953125 126.746094 C 184.800781 126.566406 184.605469 126.421875 184.363281 126.386719 C 183.992188 126.332031 183.691406 126.316406 183.355469 126.519531 C 182.523438 127.007812 182.484375 128.300781 183.355469 128.777344 L 183.394531 128.800781 C 183.730469 128.984375 184.191406 129.035156 184.554688 128.863281 L 184.660156 128.851562 C 185.660156 128.648438 185.742188 127.210938 184.953125 126.746094" fill="#e9e4c1"/><path d="M 22.78125 133.683594 C 22.46875 133.210938 21.847656 132.910156 21.320312 132.910156 C 20.386719 132.910156 19.601562 133.691406 19.601562 134.625 C 19.601562 135.5625 20.386719 136.34375 21.320312 136.34375 C 21.847656 136.34375 22.46875 136.039062 22.78125 135.566406 C 23.242188 135.007812 23.242188 134.246094 22.78125 133.683594" fill="#e9e4c1"/><path d="M 16.894531 46.476562 L 16.679688 46.527344 C 15.683594 46.769531 15.382812 48.082031 16.085938 48.785156 C 16.789062 49.488281 18.101562 49.1875 18.34375 48.1875 L 18.398438 47.976562 C 18.621094 47.058594 17.808594 46.253906 16.894531 46.476562" fill="#e9e4c1"/><path d="M 166.546875 10.507812 C 166.011719 10.484375 165.589844 10.703125 165.273438 11.136719 C 165.183594 11.265625 165.09375 11.453125 165.054688 11.601562 C 164.980469 11.878906 165.066406 12.027344 165.097656 12.269531 C 165.164062 12.851562 165.585938 13.210938 166.183594 13.097656 C 166.480469 13.039062 166.519531 13.089844 166.785156 12.933594 C 167.347656 12.605469 166.964844 12.808594 166.859375 12.839844 C 168.148438 12.433594 167.894531 10.554688 166.546875 10.507812" fill="#e9e4c1"/><path d="M 190.847656 40.003906 C 190.558594 39.808594 190.226562 39.691406 189.835938 39.722656 C 188.894531 39.789062 188.105469 40.457031 188.105469 41.453125 C 188.105469 42.449219 188.894531 43.113281 189.835938 43.183594 C 190.226562 43.214844 190.558594 43.097656 190.847656 42.898438 C 192.136719 42.347656 192.136719 40.558594 190.847656 40.003906" fill="#e9e4c1"/><path d="M 154.039062 81.238281 C 154.035156 80.5 153.359375 79.777344 152.5625 80.054688 C 151.574219 80.402344 151.289062 81.199219 151.484375 82.183594 C 151.730469 83.425781 153.714844 83.410156 153.972656 82.183594 C 154.039062 81.847656 154.074219 81.542969 154.039062 81.238281" fill="#e9e4c1"/><path d="M 125.3125 127.800781 C 124.988281 127.101562 123.78125 127.101562 123.460938 127.800781 C 123.339844 128.0625 123.257812 128.3125 123.285156 128.605469 C 123.429688 130.023438 125.34375 130.023438 125.488281 128.605469 C 125.519531 128.3125 125.433594 128.0625 125.3125 127.800781" fill="#e9e4c1"/><path d="M 50.699219 136.898438 C 50.53125 136.910156 50.363281 136.921875 50.203125 136.964844 C 49.359375 137.1875 49.359375 138.441406 50.203125 138.664062 C 50.363281 138.707031 50.53125 138.71875 50.699219 138.730469 C 51.878906 138.804688 51.878906 136.824219 50.699219 136.898438" fill="#e9e4c1"/><path d="M 31.511719 158.933594 L 26.734375 151.65625 L 32.480469 158.191406 L 39.757812 153.414062 L 33.222656 159.160156 L 37.996094 166.433594 L 32.253906 159.902344 L 24.976562 164.679688 L 31.511719 158.933594" fill="#e9e4c1"/><path d="M 177.347656 180.195312 L 175.242188 176.996094 L 177.773438 179.871094 L 180.976562 177.769531 L 178.101562 180.296875 L 180.199219 183.496094 L 177.671875 180.621094 L 174.472656 182.726562 L 177.347656 180.195312" fill="#e9e4c1"/><path d="M 139.644531 230.921875 L 137.542969 227.71875 L 140.070312 230.59375 L 143.269531 228.492188 L 140.398438 231.023438 L 142.5 234.222656 L 139.972656 231.347656 L 136.769531 233.445312 L 139.644531 230.921875" fill="#e9e4c1"/><path d="M 115.929688 255.621094 L 116.128906 255.761719 C 116.359375 255.910156 116.667969 255.605469 116.515625 255.371094 L 116.378906 255.175781 C 116.0625 254.738281 115.496094 255.308594 115.929688 255.621094" fill="#e9e4c1"/><path d="M 184.105469 244.441406 C 184.589844 244.925781 185.34375 244.171875 184.855469 243.6875 C 184.371094 243.203125 183.621094 243.953125 184.105469 244.441406" fill="#e9e4c1"/><path d="M 147.265625 198.613281 C 147.769531 199.117188 148.554688 198.335938 148.050781 197.828125 C 147.542969 197.324219 146.757812 198.109375 147.265625 198.613281" fill="#e9e4c1"/><path d="M 81.988281 194.75 C 82.355469 195.121094 82.929688 194.546875 82.5625 194.175781 C 82.191406 193.808594 81.617188 194.382812 81.988281 194.75" fill="#e9e4c1"/><path d="M 149.363281 242.109375 C 149.746094 242.492188 150.34375 241.898438 149.960938 241.511719 C 149.574219 241.128906 148.980469 241.722656 149.363281 242.109375" fill="#e9e4c1"/><path d="M 84.78125 257.296875 C 84.949219 257.28125 85.113281 257.273438 85.28125 257.261719 C 85.503906 257.246094 85.503906 256.933594 85.28125 256.917969 L 84.78125 256.886719 C 84.519531 256.871094 84.519531 257.3125 84.78125 257.296875" fill="#e9e4c1"/><path d="M 140.816406 312.777344 C 140.957031 312.898438 141.097656 313.03125 141.28125 313.066406 C 141.503906 313.101562 141.773438 313.003906 141.816406 312.753906 C 141.839844 312.648438 141.867188 312.558594 141.878906 312.453125 C 141.890625 312.332031 141.765625 312.207031 141.644531 312.21875 L 141.535156 312.21875 L 141.46875 312.128906 C 141.074219 311.675781 140.363281 312.394531 140.816406 312.777344" fill="#e9e4c1"/><path d="M 196.367188 276.875 C 196.496094 276.953125 196.601562 277.03125 196.757812 277.035156 L 196.910156 276.882812 C 196.90625 276.726562 196.828125 276.621094 196.75 276.492188 C 196.511719 276.09375 195.96875 276.632812 196.367188 276.875" fill="#e9e4c1"/><path d="M 35.714844 186.410156 C 35.992188 186.691406 36.421875 186.261719 36.148438 185.984375 C 35.867188 185.703125 35.4375 186.136719 35.714844 186.410156" fill="#e9e4c1"/><path d="M 58.671875 163.453125 C 59.066406 163.847656 59.671875 163.238281 59.28125 162.847656 C 58.890625 162.453125 58.28125 163.0625 58.671875 163.453125" fill="#e9e4c1"/><path d="M 114.191406 219.523438 L 114.257812 219.597656 L 114.289062 219.617188 L 114.480469 219.792969 C 114.902344 220.195312 115.519531 219.578125 115.117188 219.152344 L 114.945312 218.964844 L 114.921875 218.933594 L 114.851562 218.863281 C 114.640625 218.644531 114.367188 218.703125 114.203125 218.878906 C 114.03125 219.039062 113.96875 219.316406 114.191406 219.523438" fill="#e9e4c1"/><path d="M 64.382812 215.363281 C 64.84375 215.828125 65.5625 215.109375 65.097656 214.648438 C 64.636719 214.183594 63.914062 214.902344 64.382812 215.363281" fill="#e9e4c1"/><path d="M 88.789062 226.996094 C 88.90625 226.964844 89.019531 226.960938 89.132812 226.980469 C 89.691406 227.035156 90.296875 226.429688 90.238281 225.871094 C 90.21875 225.757812 90.226562 225.640625 90.257812 225.527344 C 90.40625 224.195312 88.585938 223.652344 87.75 224.488281 C 86.914062 225.320312 87.460938 227.140625 88.789062 226.996094" fill="#e9e4c1"/><path d="M 123.226562 282.175781 C 123.472656 282.539062 123.710938 282.851562 124.105469 283.066406 C 124.566406 283.320312 125.25 283.386719 125.707031 283.066406 L 125.757812 283.035156 C 126.039062 282.933594 126.289062 282.769531 126.4375 282.445312 C 126.589844 282.117188 126.605469 281.804688 126.515625 281.503906 C 126.460938 280.828125 125.957031 280.371094 125.398438 280.003906 C 124.105469 279.148438 122.351562 280.878906 123.226562 282.175781" fill="#e9e4c1"/><path d="M 175.8125 260.097656 L 175.808594 260.222656 C 175.796875 260.773438 176.285156 261.265625 176.84375 261.253906 L 176.96875 261.253906 C 177.96875 261.230469 178.507812 260.003906 177.78125 259.277344 C 177.0625 258.554688 175.832031 259.097656 175.8125 260.097656" fill="#e9e4c1"/><path d="M 176.09375 223.546875 C 176.074219 223.78125 176.109375 224.023438 176.253906 224.21875 C 176.480469 224.519531 176.683594 224.738281 177.0625 224.835938 C 177.992188 225.078125 178.9375 224.191406 178.660156 223.238281 L 178.648438 223.195312 C 178.539062 222.824219 178.253906 222.464844 177.871094 222.328125 L 177.789062 222.265625 C 176.9375 221.699219 175.863281 222.65625 176.09375 223.546875" fill="#e9e4c1"/><path d="M 233.617188 234.910156 C 233.507812 235.46875 233.730469 236.117188 234.105469 236.488281 C 234.765625 237.152344 235.867188 237.152344 236.527344 236.488281 C 237.191406 235.828125 237.191406 234.726562 236.527344 234.0625 C 236.152344 233.6875 235.507812 233.46875 234.949219 233.578125 C 234.226562 233.648438 233.6875 234.1875 233.617188 234.910156" fill="#e9e4c1"/><path d="M 176.113281 300.738281 L 176.300781 300.851562 C 177.175781 301.386719 178.316406 300.671875 178.316406 299.675781 C 178.316406 298.683594 177.175781 297.96875 176.300781 298.5 L 176.113281 298.613281 C 175.308594 299.105469 175.308594 300.246094 176.113281 300.738281" fill="#e9e4c1"/><path d="M 44.859375 220.355469 C 45.226562 220.746094 45.675781 220.890625 46.203125 220.804688 C 46.363281 220.78125 46.558594 220.710938 46.691406 220.632812 C 46.9375 220.492188 46.980469 220.324219 47.132812 220.132812 C 47.492188 219.671875 47.453125 219.117188 46.953125 218.777344 C 46.699219 218.609375 46.707031 218.546875 46.40625 218.46875 C 45.78125 218.304688 46.191406 218.433594 46.285156 218.480469 C 45.089844 217.859375 43.941406 219.363281 44.859375 220.355469" fill="#e9e4c1"/><path d="M 48.535156 182.3125 C 48.601562 182.652344 48.753906 182.972656 49.050781 183.226562 C 49.765625 183.84375 50.792969 183.929688 51.5 183.226562 C 52.203125 182.523438 52.117188 181.492188 51.5 180.777344 C 51.242188 180.484375 50.925781 180.328125 50.582031 180.261719 C 49.28125 179.742188 48.015625 181.007812 48.535156 182.3125" fill="#e9e4c1"/><path d="M 103.722656 179.179688 C 103.195312 179.703125 103.164062 180.695312 103.925781 181.0625 C 104.871094 181.515625 105.636719 181.152344 106.191406 180.320312 C 106.894531 179.269531 105.484375 177.875 104.433594 178.5625 C 104.144531 178.75 103.910156 178.941406 103.722656 179.179688" fill="#e9e4c1"/><path d="M 156.957031 166.570312 C 156.6875 167.296875 157.539062 168.148438 158.265625 167.878906 C 158.535156 167.777344 158.769531 167.660156 158.957031 167.4375 C 159.855469 166.328125 158.507812 164.980469 157.398438 165.878906 C 157.175781 166.0625 157.058594 166.300781 156.957031 166.570312" fill="#e9e4c1"/><path d="M 216.148438 212.894531 C 216.277344 213.007812 216.402344 213.117188 216.550781 213.199219 C 217.300781 213.640625 218.1875 212.75 217.75 212 C 217.664062 211.855469 217.554688 211.730469 217.441406 211.601562 C 216.664062 210.714844 215.265625 212.113281 216.148438 212.894531" fill="#e9e4c1"/><path d="M 277.984375 39.175781 L 286.894531 41.019531 L 277.816406 40.441406 L 275.972656 49.347656 L 276.550781 40.269531 L 267.644531 38.425781 L 276.722656 39.007812 L 278.566406 30.097656 L 277.984375 39.175781" fill="#e9e4c1"/><path d="M 342.679688 138.027344 L 346.601562 138.839844 L 342.605469 138.585938 L 341.792969 142.503906 L 342.050781 138.511719 L 338.132812 137.699219 L 342.121094 137.953125 L 342.9375 134.035156 L 342.679688 138.027344" fill="#e9e4c1"/><path d="M 333.058594 72.664062 L 336.976562 73.480469 L 332.980469 73.222656 L 332.167969 77.140625 L 332.425781 73.148438 L 328.507812 72.335938 L 332.5 72.59375 L 333.3125 68.671875 L 333.058594 72.664062" fill="#e9e4c1"/><path d="M 332.324219 36.878906 L 332.074219 36.921875 C 331.789062 36.980469 331.789062 37.4375 332.074219 37.492188 L 332.324219 37.539062 C 332.878906 37.628906 332.878906 36.789062 332.324219 36.878906" fill="#e9e4c1"/><path d="M 290.195312 95.535156 C 289.480469 95.535156 289.480469 96.648438 290.195312 96.648438 C 290.914062 96.648438 290.914062 95.535156 290.195312 95.535156" fill="#e9e4c1"/><path d="M 351.304688 102.179688 C 350.554688 102.179688 350.554688 103.339844 351.304688 103.339844 C 352.050781 103.339844 352.050781 102.179688 351.304688 102.179688" fill="#e9e4c1"/><path d="M 317.601562 71.578125 C 317.03125 71.578125 317.03125 72.460938 317.601562 72.460938 C 318.171875 72.460938 318.171875 71.578125 317.601562 71.578125" fill="#e9e4c1"/><path d="M 354.113281 12.613281 C 354 12.746094 353.886719 12.878906 353.769531 13.007812 C 353.613281 13.183594 353.847656 13.414062 354.023438 13.261719 L 354.414062 12.914062 C 354.621094 12.730469 354.296875 12.410156 354.113281 12.613281" fill="#e9e4c1"/><path d="M 271.679688 13.023438 C 271.488281 13.039062 271.285156 13.042969 271.125 13.15625 C 270.933594 13.292969 270.808594 13.5625 270.960938 13.78125 L 271.136719 14.050781 C 271.214844 14.144531 271.402344 14.144531 271.480469 14.050781 L 271.5625 13.972656 L 271.679688 13.988281 C 272.304688 14.027344 272.300781 12.976562 271.679688 13.023438" fill="#e9e4c1"/><path d="M 257.15625 80.625 C 257.003906 80.664062 256.867188 80.683594 256.75 80.792969 L 256.75 81.023438 C 256.867188 81.136719 257.003906 81.152344 257.15625 81.191406 C 257.632812 81.308594 257.632812 80.507812 257.15625 80.625" fill="#e9e4c1"/><path d="M 360.292969 62.273438 L 360.191406 62.269531 L 360.148438 62.277344 L 359.882812 62.285156 C 359.269531 62.304688 359.269531 63.21875 359.882812 63.234375 L 360.148438 63.242188 L 360.191406 63.253906 L 360.292969 63.246094 C 360.613281 63.257812 360.769531 63.011719 360.761719 62.761719 C 360.769531 62.511719 360.613281 62.265625 360.292969 62.273438" fill="#e9e4c1"/><path d="M 373.550781 37.976562 C 373.484375 38.082031 373.402344 38.171875 373.308594 38.242188 C 372.851562 38.609375 372.851562 39.511719 373.308594 39.878906 C 373.402344 39.949219 373.484375 40.039062 373.550781 40.144531 C 374.421875 41.234375 376.171875 40.292969 376.171875 39.0625 C 376.171875 37.828125 374.421875 36.886719 373.550781 37.976562" fill="#e9e4c1"/><path d="M 307.304688 22.640625 C 306.855469 22.554688 306.445312 22.5 305.992188 22.632812 C 305.464844 22.785156 304.914062 23.242188 304.8125 23.816406 L 304.800781 23.878906 C 304.660156 24.160156 304.601562 24.46875 304.730469 24.8125 C 304.859375 25.171875 305.085938 25.414062 305.367188 25.570312 C 305.90625 26.027344 306.617188 25.992188 307.304688 25.855469 C 308.890625 25.527344 308.910156 22.953125 307.304688 22.640625" fill="#e9e4c1"/><path d="M 284.757812 77.832031 L 284.664062 77.738281 C 284.265625 77.320312 283.539062 77.320312 283.136719 77.738281 L 283.046875 77.832031 C 282.320312 78.585938 282.828125 79.894531 283.898438 79.894531 C 284.972656 79.894531 285.480469 78.585938 284.757812 77.832031" fill="#e9e4c1"/><path d="M 311.566406 105.058594 C 311.398438 104.867188 311.199219 104.71875 310.949219 104.683594 C 310.5625 104.625 310.246094 104.609375 309.894531 104.820312 C 309.023438 105.332031 308.984375 106.683594 309.894531 107.183594 L 309.933594 107.207031 C 310.285156 107.398438 310.769531 107.453125 311.144531 107.273438 L 311.257812 107.257812 C 312.304688 107.046875 312.390625 105.546875 311.566406 105.058594" fill="#e9e4c1"/><path d="M 260.644531 139.179688 C 260.3125 138.6875 259.671875 138.367188 259.113281 138.367188 C 258.140625 138.367188 257.320312 139.1875 257.320312 140.164062 C 257.320312 141.140625 258.140625 141.957031 259.113281 141.957031 C 259.671875 141.957031 260.3125 141.640625 260.644531 141.148438 C 261.128906 140.5625 261.128906 139.765625 260.644531 139.179688" fill="#e9e4c1"/><path d="M 254.488281 48.015625 L 254.269531 48.066406 C 253.226562 48.320312 252.910156 49.695312 253.644531 50.429688 C 254.378906 51.164062 255.753906 50.847656 256.007812 49.804688 L 256.058594 49.585938 C 256.296875 48.625 255.445312 47.78125 254.488281 48.015625" fill="#e9e4c1"/><path d="M 367.824219 133.027344 C 367.484375 132.296875 366.226562 132.296875 365.890625 133.027344 C 365.765625 133.304688 365.675781 133.5625 365.703125 133.867188 C 365.855469 135.351562 367.855469 135.351562 368.011719 133.867188 C 368.039062 133.5625 367.949219 133.304688 367.824219 133.027344" fill="#e9e4c1"/><path d="M 289.824219 142.539062 C 289.652344 142.554688 289.476562 142.5625 289.308594 142.609375 C 288.429688 142.839844 288.429688 144.152344 289.308594 144.386719 C 289.476562 144.429688 289.652344 144.441406 289.824219 144.453125 C 291.058594 144.53125 291.058594 142.464844 289.824219 142.539062" fill="#e9e4c1"/><path d="M 269.769531 165.570312 L 264.773438 157.96875 L 270.785156 164.796875 L 278.386719 159.804688 L 271.558594 165.8125 L 276.550781 173.414062 L 270.542969 166.585938 L 262.9375 171.578125 L 269.769531 165.570312" fill="#e9e4c1"/><path d="M 156.457031 62.152344 L 151.464844 54.546875 L 157.472656 61.375 L 165.074219 56.382812 L 158.246094 62.390625 L 163.238281 69.992188 L 157.230469 63.164062 L 149.628906 68.160156 L 156.457031 62.152344" fill="#e9e4c1"/><path d="M 86.460938 254.996094 L 81.464844 247.390625 L 87.472656 254.21875 L 95.078125 249.226562 L 88.246094 255.234375 L 93.238281 262.839844 L 87.230469 256.007812 L 79.628906 261.003906 L 86.460938 254.996094" fill="#e9e4c1"/><path d="M 81.789062 371.855469 L 76.792969 364.253906 L 82.804688 371.082031 L 90.40625 366.089844 L 83.578125 372.097656 L 88.570312 379.699219 L 82.5625 372.871094 L 74.957031 377.863281 L 81.789062 371.855469" fill="#e9e4c1"/><path d="M 345.707031 316.011719 L 340.710938 308.40625 L 346.722656 315.234375 L 354.324219 310.242188 L 347.496094 316.25 L 352.488281 323.855469 L 346.480469 317.023438 L 338.875 322.019531 L 345.707031 316.011719" fill="#e9e4c1"/><path d="M 333.449219 169.839844 L 328.453125 162.234375 L 334.464844 169.0625 L 342.066406 164.070312 L 335.238281 170.078125 L 340.230469 177.683594 L 334.222656 170.851562 L 326.617188 175.847656 L 333.449219 169.839844" fill="#e9e4c1"/><path d="M 135.878906 151.539062 L 130.886719 143.933594 L 136.894531 150.761719 L 144.496094 145.769531 L 137.667969 151.777344 L 142.660156 159.382812 L 136.652344 152.550781 L 129.046875 157.546875 L 135.878906 151.539062" fill="#e9e4c1"/><path d="M 358.019531 266.648438 L 358.226562 266.792969 C 358.46875 266.949219 358.789062 266.628906 358.632812 266.386719 L 358.484375 266.179688 C 358.15625 265.726562 357.5625 266.320312 358.019531 266.648438" fill="#e9e4c1"/><path d="M 322.535156 203.015625 C 322.921875 203.402344 323.523438 202.800781 323.136719 202.414062 C 322.75 202.027344 322.148438 202.628906 322.535156 203.015625" fill="#e9e4c1"/><path d="M 325.453125 268.394531 C 325.628906 268.386719 325.804688 268.371094 325.980469 268.363281 C 326.210938 268.347656 326.210938 268.019531 325.976562 268.003906 L 325.453125 267.972656 C 325.179688 267.953125 325.179688 268.414062 325.453125 268.394531" fill="#e9e4c1"/><path d="M 274.164062 194.300781 C 274.453125 194.589844 274.902344 194.140625 274.613281 193.851562 C 274.324219 193.558594 273.875 194.011719 274.164062 194.300781" fill="#e9e4c1"/><path d="M 298.164062 170.300781 C 298.574219 170.710938 299.210938 170.074219 298.800781 169.664062 C 298.390625 169.253906 297.753906 169.890625 298.164062 170.300781" fill="#e9e4c1"/><path d="M 356.199219 228.910156 L 356.269531 228.984375 L 356.304688 229.011719 L 356.5 229.191406 C 356.945312 229.613281 357.589844 228.96875 357.171875 228.523438 L 356.988281 228.328125 L 356.964844 228.296875 L 356.890625 228.222656 C 356.671875 227.988281 356.382812 228.054688 356.214844 228.238281 C 356.03125 228.40625 355.96875 228.691406 356.199219 228.910156" fill="#e9e4c1"/><path d="M 304.128906 224.566406 C 304.613281 225.050781 305.363281 224.296875 304.882812 223.8125 C 304.394531 223.328125 303.644531 224.078125 304.128906 224.566406" fill="#e9e4c1"/><path d="M 329.644531 236.722656 C 329.765625 236.691406 329.886719 236.683594 330.003906 236.703125 C 330.589844 236.765625 331.222656 236.132812 331.160156 235.546875 C 331.144531 235.425781 331.148438 235.308594 331.179688 235.1875 C 331.335938 233.796875 329.429688 233.230469 328.558594 234.101562 C 327.6875 234.972656 328.257812 236.875 329.644531 236.722656" fill="#e9e4c1"/><path d="M 365.644531 294.40625 C 365.898438 294.789062 366.148438 295.109375 366.5625 295.339844 C 367.046875 295.605469 367.761719 295.671875 368.238281 295.339844 L 368.289062 295.304688 C 368.589844 295.199219 368.847656 295.023438 369.003906 294.691406 C 369.160156 294.347656 369.175781 294.015625 369.082031 293.703125 C 369.027344 292.996094 368.5 292.519531 367.914062 292.136719 C 366.5625 291.242188 364.730469 293.050781 365.644531 294.40625" fill="#e9e4c1"/><path d="M 283.726562 229.777344 C 284.105469 230.191406 284.578125 230.339844 285.128906 230.253906 C 285.296875 230.226562 285.496094 230.148438 285.636719 230.070312 C 285.894531 229.925781 285.941406 229.746094 286.101562 229.546875 C 286.476562 229.066406 286.433594 228.488281 285.910156 228.132812 C 285.644531 227.953125 285.652344 227.890625 285.34375 227.808594 C 284.683594 227.636719 285.113281 227.769531 285.21875 227.820312 C 283.964844 227.171875 282.765625 228.746094 283.726562 229.777344" fill="#e9e4c1"/><path d="M 287.5625 190.011719 C 287.636719 190.367188 287.796875 190.699219 288.105469 190.96875 C 288.851562 191.613281 289.929688 191.703125 290.664062 190.96875 C 291.398438 190.234375 291.3125 189.15625 290.664062 188.410156 C 290.394531 188.101562 290.0625 187.941406 289.703125 187.871094 C 288.34375 187.324219 287.019531 188.648438 287.5625 190.011719" fill="#e9e4c1"/><path d="M 345.253906 186.738281 C 344.707031 187.285156 344.675781 188.320312 345.46875 188.703125 C 346.457031 189.179688 347.257812 188.800781 347.839844 187.929688 C 348.574219 186.828125 347.097656 185.375 346 186.09375 C 345.699219 186.289062 345.449219 186.488281 345.253906 186.738281" fill="#e9e4c1"/><path d="M 340.921875 385.023438 L 332.398438 383.257812 L 341.082031 383.8125 L 342.847656 375.292969 L 342.292969 383.976562 L 350.8125 385.742188 L 342.128906 385.1875 L 340.363281 393.707031 L 340.921875 385.023438" fill="#e9e4c1"/><path d="M 279.03125 290.460938 L 275.28125 289.683594 L 279.105469 289.929688 L 279.882812 286.179688 L 279.636719 290 L 283.386719 290.773438 L 279.5625 290.53125 L 278.789062 294.28125 L 279.03125 290.460938" fill="#e9e4c1"/><path d="M 288.238281 352.984375 L 284.488281 352.210938 L 288.3125 352.453125 L 289.089844 348.707031 L 288.84375 352.523438 L 292.59375 353.304688 L 288.769531 353.058594 L 287.996094 356.808594 L 288.238281 352.984375" fill="#e9e4c1"/><path d="M 288.9375 387.222656 L 289.179688 387.179688 C 289.445312 387.121094 289.449219 386.691406 289.179688 386.632812 L 288.9375 386.589844 C 288.410156 386.503906 288.410156 387.308594 288.9375 387.222656" fill="#e9e4c1"/><path d="M 329.238281 331.109375 C 329.925781 331.109375 329.925781 330.042969 329.238281 330.046875 C 328.554688 330.042969 328.554688 331.109375 329.238281 331.109375" fill="#e9e4c1"/><path d="M 270.785156 324.753906 C 271.5 324.753906 271.5 323.644531 270.785156 323.644531 C 270.066406 323.644531 270.066406 324.753906 270.785156 324.753906" fill="#e9e4c1"/><path d="M 221.894531 368.183594 C 222.417969 368.183594 222.417969 367.367188 221.894531 367.367188 C 221.371094 367.367188 221.371094 368.183594 221.894531 368.183594" fill="#e9e4c1"/><path d="M 303.023438 354.027344 C 303.566406 354.027344 303.566406 353.183594 303.023438 353.183594 C 302.480469 353.183594 302.480469 354.027344 303.023438 354.027344" fill="#e9e4c1"/><path d="M 280.101562 410.433594 C 280.210938 410.308594 280.316406 410.179688 280.429688 410.054688 C 280.578125 409.890625 280.355469 409.664062 280.1875 409.8125 L 279.8125 410.144531 C 279.613281 410.316406 279.925781 410.628906 280.101562 410.433594" fill="#e9e4c1"/><path d="M 358.957031 410.039062 C 359.140625 410.023438 359.335938 410.023438 359.488281 409.914062 C 359.671875 409.78125 359.789062 409.523438 359.644531 409.316406 L 359.476562 409.058594 C 359.402344 408.964844 359.222656 408.96875 359.144531 409.058594 L 359.066406 409.136719 L 358.957031 409.117188 C 358.359375 409.078125 358.363281 410.085938 358.957031 410.039062" fill="#e9e4c1"/><path d="M 360.84375 345.371094 C 360.992188 345.335938 361.117188 345.316406 361.234375 345.210938 L 361.234375 344.992188 C 361.117188 344.886719 360.992188 344.867188 360.84375 344.832031 C 360.390625 344.71875 360.390625 345.484375 360.84375 345.371094" fill="#e9e4c1"/><path d="M 183.277344 395.003906 C 183.671875 395.003906 183.671875 394.394531 183.277344 394.394531 C 182.886719 394.394531 182.886719 395.003906 183.277344 395.003906" fill="#e9e4c1"/><path d="M 183.277344 362.535156 C 183.835938 362.535156 183.835938 361.679688 183.277344 361.679688 C 182.726562 361.679688 182.726562 362.535156 183.277344 362.535156" fill="#e9e4c1"/><path d="M 262.183594 362.925781 L 262.28125 362.929688 L 262.320312 362.921875 L 262.574219 362.914062 C 263.160156 362.898438 263.160156 362.023438 262.574219 362.007812 L 262.320312 362 L 262.28125 361.992188 L 262.183594 361.996094 C 261.878906 361.984375 261.730469 362.222656 261.734375 362.460938 C 261.730469 362.699219 261.878906 362.9375 262.183594 362.925781" fill="#e9e4c1"/><path d="M 224.019531 395.207031 C 224.675781 395.207031 224.675781 394.191406 224.019531 394.191406 C 223.363281 394.191406 223.363281 395.207031 224.019531 395.207031" fill="#e9e4c1"/><path d="M 249.503906 386.171875 C 249.5625 386.070312 249.640625 385.984375 249.734375 385.914062 C 250.171875 385.5625 250.171875 384.707031 249.734375 384.351562 C 249.640625 384.28125 249.5625 384.195312 249.503906 384.097656 C 248.667969 383.050781 246.996094 383.957031 246.996094 385.132812 C 246.996094 386.3125 248.667969 387.214844 249.503906 386.171875" fill="#e9e4c1"/><path d="M 312.871094 400.84375 C 313.304688 400.925781 313.691406 400.976562 314.128906 400.851562 C 314.632812 400.703125 315.160156 400.265625 315.257812 399.71875 L 315.269531 399.660156 C 315.398438 399.386719 315.460938 399.089844 315.339844 398.761719 C 315.214844 398.421875 314.996094 398.1875 314.726562 398.039062 C 314.210938 397.597656 313.527344 397.632812 312.871094 397.769531 C 311.355469 398.082031 311.339844 400.542969 312.871094 400.84375" fill="#e9e4c1"/><path d="M 334.441406 348.042969 L 334.527344 348.136719 C 334.914062 348.535156 335.605469 348.535156 335.992188 348.136719 L 336.078125 348.042969 C 336.769531 347.320312 336.285156 346.070312 335.261719 346.070312 C 334.234375 346.070312 333.753906 347.320312 334.441406 348.042969" fill="#e9e4c1"/><path d="M 308.796875 322 C 308.953125 322.179688 309.148438 322.324219 309.386719 322.359375 C 309.757812 322.414062 310.058594 322.425781 310.394531 322.226562 C 311.226562 321.738281 311.265625 320.445312 310.394531 319.964844 L 310.359375 319.945312 C 310.019531 319.761719 309.5625 319.710938 309.195312 319.882812 L 309.09375 319.898438 C 308.09375 320.097656 308.007812 321.535156 308.796875 322" fill="#e9e4c1"/><path d="M 357.511719 289.359375 C 357.824219 289.832031 358.441406 290.132812 358.972656 290.136719 C 359.90625 290.136719 360.6875 289.355469 360.6875 288.417969 C 360.6875 287.484375 359.90625 286.699219 358.972656 286.699219 C 358.441406 286.699219 357.824219 287.003906 357.511719 287.476562 C 357.046875 288.035156 357.046875 288.800781 357.511719 289.359375" fill="#e9e4c1"/><path d="M 363.394531 376.566406 L 363.609375 376.519531 C 364.605469 376.273438 364.90625 374.960938 364.203125 374.257812 C 363.503906 373.554688 362.1875 373.859375 361.945312 374.855469 L 361.894531 375.066406 C 361.671875 375.984375 362.480469 376.789062 363.394531 376.566406" fill="#e9e4c1"/><path d="M 225.753906 412.535156 C 226.285156 412.558594 226.703125 412.339844 227.019531 411.90625 C 227.113281 411.777344 227.203125 411.589844 227.242188 411.441406 C 227.316406 411.164062 227.230469 411.015625 227.199219 410.773438 C 227.128906 410.195312 226.710938 409.832031 226.113281 409.945312 C 225.816406 410.003906 225.773438 409.957031 225.511719 410.109375 C 224.949219 410.441406 225.332031 410.238281 225.4375 410.207031 C 224.144531 410.609375 224.398438 412.488281 225.753906 412.535156" fill="#e9e4c1"/><path d="M 189.441406 383.039062 C 189.730469 383.234375 190.0625 383.351562 190.457031 383.320312 C 191.398438 383.253906 192.1875 382.585938 192.1875 381.59375 C 192.1875 380.597656 191.394531 379.929688 190.457031 379.859375 C 190.066406 379.832031 189.730469 379.945312 189.441406 380.144531 C 188.152344 380.695312 188.152344 382.484375 189.441406 383.039062" fill="#e9e4c1"/><path d="M 226.253906 341.804688 C 226.253906 342.542969 226.933594 343.269531 227.726562 342.988281 C 228.71875 342.640625 229 341.84375 228.808594 340.859375 C 228.5625 339.617188 226.574219 339.636719 226.320312 340.859375 C 226.25 341.195312 226.21875 341.5 226.253906 341.804688" fill="#e9e4c1"/><path d="M 254.980469 295.242188 C 255.304688 295.941406 256.507812 295.945312 256.828125 295.242188 C 256.949219 294.980469 257.035156 294.730469 257.007812 294.441406 C 256.859375 293.023438 254.949219 293.023438 254.804688 294.441406 C 254.773438 294.730469 254.859375 294.980469 254.980469 295.242188" fill="#e9e4c1"/><path d="M 329.59375 286.144531 C 329.761719 286.132812 329.929688 286.121094 330.089844 286.078125 C 330.933594 285.859375 330.933594 284.601562 330.089844 284.382812 C 329.929688 284.335938 329.761719 284.324219 329.59375 284.316406 C 328.414062 284.238281 328.414062 286.21875 329.59375 286.144531" fill="#e9e4c1"/><path d="M 348.777344 264.113281 L 353.558594 271.386719 L 347.808594 264.855469 L 340.535156 269.628906 L 347.066406 263.882812 L 342.292969 256.609375 L 348.039062 263.140625 L 355.3125 258.363281 L 348.777344 264.113281" fill="#e9e4c1"/><path d="M 202.941406 242.847656 L 205.046875 246.046875 L 202.519531 243.175781 L 199.316406 245.273438 L 202.191406 242.746094 L 200.089844 239.546875 L 202.617188 242.421875 L 205.816406 240.316406 L 202.941406 242.847656" fill="#e9e4c1"/><path d="M 240.644531 192.125 L 242.746094 195.324219 L 240.21875 192.449219 L 237.019531 194.550781 L 239.894531 192.023438 L 237.789062 188.824219 L 240.320312 191.695312 L 243.519531 189.597656 L 240.644531 192.125" fill="#e9e4c1"/><path d="M 233.023438 224.429688 C 232.519531 223.925781 231.734375 224.710938 232.242188 225.214844 C 232.746094 225.722656 233.53125 224.9375 233.023438 224.429688" fill="#e9e4c1"/><path d="M 298.304688 228.292969 C 297.933594 227.921875 297.359375 228.496094 297.730469 228.867188 C 298.101562 229.238281 298.675781 228.664062 298.304688 228.292969" fill="#e9e4c1"/><path d="M 344.574219 236.632812 C 344.300781 236.355469 343.867188 236.785156 344.144531 237.0625 C 344.421875 237.339844 344.855469 236.90625 344.574219 236.632812" fill="#e9e4c1"/><path d="M 321.617188 259.589844 C 321.226562 259.195312 320.617188 259.804688 321.011719 260.195312 C 321.402344 260.589844 322.011719 259.980469 321.617188 259.589844" fill="#e9e4c1"/><path d="M 266.101562 203.519531 L 266.03125 203.449219 L 266 203.425781 L 265.8125 203.25 C 265.386719 202.851562 264.769531 203.46875 265.171875 203.894531 L 265.347656 204.078125 L 265.367188 204.109375 L 265.441406 204.179688 C 265.648438 204.402344 265.925781 204.339844 266.085938 204.164062 C 266.261719 204.003906 266.320312 203.730469 266.101562 203.519531" fill="#e9e4c1"/><path d="M 315.910156 207.679688 C 315.445312 207.214844 314.730469 207.933594 315.191406 208.398438 C 315.65625 208.859375 316.375 208.144531 315.910156 207.679688" fill="#e9e4c1"/><path d="M 291.503906 196.050781 C 291.386719 196.078125 291.273438 196.085938 291.15625 196.066406 C 290.597656 196.007812 289.992188 196.613281 290.050781 197.171875 C 290.070312 197.289062 290.0625 197.402344 290.03125 197.519531 C 289.886719 198.847656 291.707031 199.390625 292.539062 198.558594 C 293.375 197.722656 292.832031 195.902344 291.503906 196.050781" fill="#e9e4c1"/><path d="M 204.195312 199.5 C 204.214844 199.261719 204.183594 199.019531 204.035156 198.824219 C 203.8125 198.527344 203.605469 198.304688 203.230469 198.207031 C 202.296875 197.96875 201.355469 198.851562 201.632812 199.804688 L 201.644531 199.847656 C 201.75 200.21875 202.039062 200.578125 202.417969 200.714844 L 202.503906 200.777344 C 203.355469 201.34375 204.429688 200.386719 204.195312 199.5" fill="#e9e4c1"/><path d="M 194.355469 139.808594 C 194.480469 139.921875 194.605469 140.03125 194.753906 140.113281 C 195.503906 140.554688 196.394531 139.664062 195.953125 138.914062 C 195.867188 138.769531 195.761719 138.644531 195.648438 138.515625 C 194.867188 137.628906 193.46875 139.027344 194.355469 139.808594" fill="#e9e4c1"/><path d="M 238.847656 66.09375 C 238.519531 65.601562 237.875 65.28125 237.320312 65.28125 C 236.34375 65.28125 235.523438 66.101562 235.523438 67.078125 C 235.523438 68.054688 236.34375 68.871094 237.320312 68.871094 C 237.875 68.871094 238.519531 68.554688 238.847656 68.0625 C 239.332031 67.476562 239.332031 66.679688 238.847656 66.09375" fill="#e9e4c1"/><path d="M 268.03125 69.453125 C 267.855469 69.46875 267.683594 69.476562 267.511719 69.523438 C 266.632812 69.753906 266.632812 71.066406 267.511719 71.300781 C 267.683594 71.34375 267.855469 71.355469 268.03125 71.367188 C 269.265625 71.445312 269.265625 69.378906 268.03125 69.453125" fill="#e9e4c1"/><path d="M 247.976562 92.484375 L 242.980469 84.882812 L 248.988281 91.710938 L 256.59375 86.71875 L 249.765625 92.726562 L 254.757812 100.328125 L 248.746094 93.5 L 241.144531 98.492188 L 247.976562 92.484375" fill="#e9e4c1"/><path d="M 252.367188 121.214844 C 252.660156 121.503906 253.109375 121.054688 252.820312 120.765625 C 252.527344 120.472656 252.078125 120.925781 252.367188 121.214844" fill="#e9e4c1"/><path d="M 276.367188 97.214844 C 276.777344 97.621094 277.414062 96.988281 277.003906 96.578125 C 276.59375 96.167969 275.960938 96.804688 276.367188 97.214844" fill="#e9e4c1"/><path d="M 265.769531 116.925781 C 265.839844 117.28125 266 117.613281 266.308594 117.882812 C 267.054688 118.527344 268.132812 118.617188 268.867188 117.882812 C 269.605469 117.148438 269.515625 116.070312 268.867188 115.324219 C 268.601562 115.015625 268.269531 114.855469 267.910156 114.785156 C 266.550781 114.238281 265.226562 115.5625 265.769531 116.925781" fill="#e9e4c1"/><path d="M 218.851562 119.039062 L 220.953125 122.238281 L 218.425781 119.363281 L 215.226562 121.464844 L 218.097656 118.9375 L 215.996094 115.738281 L 218.523438 118.609375 L 221.726562 116.511719 L 218.851562 119.039062" fill="#e9e4c1"/><path d="M 244.304688 130.433594 L 244.234375 130.363281 L 244.203125 130.339844 L 244.019531 130.164062 C 243.59375 129.765625 242.976562 130.382812 243.378906 130.808594 L 243.550781 130.992188 L 243.574219 131.023438 L 243.644531 131.09375 C 243.855469 131.316406 244.128906 131.253906 244.289062 131.078125 C 244.464844 130.914062 244.527344 130.644531 244.304688 130.433594" fill="#e9e4c1"/><path d="M 294.113281 134.59375 C 293.652344 134.128906 292.933594 134.847656 293.398438 135.3125 C 293.859375 135.773438 294.578125 135.058594 294.113281 134.59375" fill="#e9e4c1"/><path d="M 269.707031 122.964844 C 269.59375 122.992188 269.480469 123 269.363281 122.980469 C 268.804688 122.921875 268.195312 123.527344 268.257812 124.085938 C 268.273438 124.203125 268.269531 124.316406 268.238281 124.433594 C 268.09375 125.761719 269.910156 126.304688 270.746094 125.472656 C 271.578125 124.636719 271.035156 122.816406 269.707031 122.964844" fill="#e9e4c1"/><path d="M 182.402344 126.414062 C 182.421875 126.175781 182.386719 125.933594 182.242188 125.738281 C 182.019531 125.441406 181.8125 125.21875 181.433594 125.121094 C 180.503906 124.882812 179.558594 125.765625 179.835938 126.71875 L 179.847656 126.761719 C 179.953125 127.132812 180.242188 127.492188 180.621094 127.628906 L 180.707031 127.691406 C 181.558594 128.257812 182.632812 127.300781 182.402344 126.414062" fill="#e9e4c1"/><path d="M 119.753906 393.386719 C 119.882812 393.496094 120.007812 393.605469 120.152344 393.691406 C 120.902344 394.128906 121.792969 393.238281 121.355469 392.488281 C 121.269531 392.34375 121.15625 392.21875 121.046875 392.09375 C 120.269531 391.207031 118.867188 392.605469 119.753906 393.386719" fill="#e9e4c1"/><path d="M 164.246094 319.667969 C 163.917969 319.175781 163.273438 318.859375 162.71875 318.859375 C 161.742188 318.859375 160.925781 319.675781 160.925781 320.652344 C 160.925781 321.632812 161.742188 322.445312 162.71875 322.445312 C 163.273438 322.445312 163.917969 322.132812 164.246094 321.636719 C 164.730469 321.050781 164.730469 320.253906 164.246094 319.667969" fill="#e9e4c1"/><path d="M 193.429688 323.03125 C 193.257812 323.042969 193.078125 323.054688 192.910156 323.097656 C 192.03125 323.328125 192.03125 324.644531 192.910156 324.875 C 193.078125 324.921875 193.257812 324.929688 193.429688 324.941406 C 194.660156 325.019531 194.660156 322.953125 193.429688 323.03125" fill="#e9e4c1"/><path d="M 173.371094 346.0625 L 168.378906 338.457031 L 174.390625 345.285156 L 181.988281 340.292969 L 175.160156 346.300781 L 180.152344 353.902344 L 174.144531 347.074219 L 166.542969 352.070312 L 173.371094 346.0625" fill="#e9e4c1"/><path d="M 177.769531 374.789062 C 178.058594 375.078125 178.507812 374.628906 178.21875 374.339844 C 177.929688 374.046875 177.480469 374.5 177.769531 374.789062" fill="#e9e4c1"/><path d="M 201.769531 350.789062 C 202.179688 351.199219 202.8125 350.5625 202.402344 350.152344 C 201.992188 349.742188 201.355469 350.378906 201.769531 350.789062" fill="#e9e4c1"/><path d="M 191.167969 370.5 C 191.238281 370.859375 191.398438 371.191406 191.707031 371.457031 C 192.453125 372.105469 193.53125 372.195312 194.269531 371.457031 C 195.003906 370.722656 194.914062 369.644531 194.269531 368.898438 C 194 368.589844 193.667969 368.429688 193.308594 368.359375 C 191.945312 367.816406 190.625 369.136719 191.167969 370.5" fill="#e9e4c1"/><path d="M 144.25 372.613281 L 146.351562 375.8125 L 143.820312 372.941406 L 140.621094 375.039062 L 143.496094 372.511719 L 141.394531 369.3125 L 143.925781 372.1875 L 147.121094 370.085938 L 144.25 372.613281" fill="#e9e4c1"/><path d="M 169.703125 384.007812 L 169.636719 383.9375 L 169.605469 383.914062 L 169.414062 383.738281 C 168.988281 383.339844 168.375 383.957031 168.773438 384.382812 L 168.949219 384.566406 L 168.972656 384.601562 L 169.046875 384.667969 C 169.253906 384.890625 169.527344 384.828125 169.6875 384.65625 C 169.863281 384.492188 169.925781 384.21875 169.703125 384.007812" fill="#e9e4c1"/><path d="M 219.515625 388.167969 C 219.050781 387.703125 218.332031 388.421875 218.796875 388.886719 C 219.261719 389.351562 219.980469 388.632812 219.515625 388.167969" fill="#e9e4c1"/><path d="M 195.105469 376.539062 C 194.988281 376.566406 194.878906 376.574219 194.761719 376.554688 C 194.199219 376.496094 193.597656 377.105469 193.652344 377.660156 C 193.675781 377.777344 193.667969 377.894531 193.636719 378.007812 C 193.488281 379.335938 195.3125 379.878906 196.144531 379.046875 C 196.980469 378.210938 196.4375 376.390625 195.105469 376.539062" fill="#e9e4c1"/><path d="M 107.800781 379.988281 C 107.816406 379.75 107.785156 379.511719 107.640625 379.316406 C 107.414062 379.015625 107.210938 378.792969 106.832031 378.695312 C 105.898438 378.457031 104.957031 379.339844 105.234375 380.292969 L 105.246094 380.335938 C 105.355469 380.707031 105.644531 381.066406 106.019531 381.203125 L 106.105469 381.265625 C 106.957031 381.832031 108.03125 380.875 107.800781 379.988281" fill="#e9e4c1"/><path d="M 175.195312 330.859375 C 175.320312 330.96875 175.445312 331.078125 175.59375 331.164062 C 176.34375 331.605469 177.234375 330.714844 176.796875 329.964844 C 176.710938 329.816406 176.601562 329.691406 176.488281 329.566406 C 175.710938 328.679688 174.308594 330.078125 175.195312 330.859375" fill="#e9e4c1"/><path d="M 219.6875 257.140625 C 219.359375 256.648438 218.714844 256.332031 218.160156 256.332031 C 217.183594 256.332031 216.363281 257.148438 216.363281 258.128906 C 216.363281 259.105469 217.183594 259.921875 218.160156 259.921875 C 218.714844 259.921875 219.359375 259.605469 219.6875 259.109375 C 220.171875 258.523438 220.171875 257.730469 219.6875 257.140625" fill="#e9e4c1"/><path d="M 248.871094 260.503906 C 248.695312 260.515625 248.519531 260.527344 248.351562 260.570312 C 247.472656 260.800781 247.472656 262.117188 248.351562 262.347656 C 248.519531 262.394531 248.695312 262.402344 248.871094 262.414062 C 250.105469 262.492188 250.105469 260.425781 248.871094 260.503906" fill="#e9e4c1"/><path d="M 228.8125 283.535156 L 223.820312 275.933594 L 229.828125 282.761719 L 237.433594 277.769531 L 230.605469 283.773438 L 235.597656 291.378906 L 229.589844 284.550781 L 221.984375 289.542969 L 228.8125 283.535156" fill="#e9e4c1"/><path d="M 233.210938 312.261719 C 233.5 312.554688 233.949219 312.101562 233.660156 311.8125 C 233.367188 311.523438 232.921875 311.972656 233.210938 312.261719" fill="#e9e4c1"/><path d="M 257.210938 288.261719 C 257.617188 288.671875 258.253906 288.035156 257.84375 287.628906 C 257.433594 287.21875 256.800781 287.851562 257.210938 288.261719" fill="#e9e4c1"/><path d="M 246.609375 307.972656 C 246.679688 308.332031 246.839844 308.664062 247.148438 308.933594 C 247.894531 309.578125 248.972656 309.667969 249.710938 308.933594 C 250.445312 308.195312 250.355469 307.117188 249.710938 306.371094 C 249.441406 306.0625 249.109375 305.902344 248.75 305.832031 C 247.390625 305.289062 246.066406 306.609375 246.609375 307.972656" fill="#e9e4c1"/><path d="M 199.691406 310.089844 L 201.792969 313.285156 L 199.265625 310.414062 L 196.0625 312.515625 L 198.9375 309.984375 L 196.835938 306.785156 L 199.363281 309.660156 L 202.5625 307.558594 L 199.691406 310.089844" fill="#e9e4c1"/><path d="M 225.144531 321.484375 L 225.074219 321.410156 L 225.046875 321.390625 L 224.855469 321.214844 C 224.433594 320.8125 223.816406 321.429688 224.21875 321.855469 L 224.390625 322.039062 L 224.414062 322.074219 L 224.484375 322.140625 C 224.695312 322.363281 224.96875 322.300781 225.132812 322.128906 C 225.304688 321.964844 225.367188 321.691406 225.144531 321.484375" fill="#e9e4c1"/><path d="M 274.953125 325.640625 C 274.492188 325.179688 273.773438 325.898438 274.238281 326.359375 C 274.699219 326.824219 275.421875 326.105469 274.953125 325.640625" fill="#e9e4c1"/><path d="M 250.546875 314.011719 C 250.433594 314.042969 250.316406 314.046875 250.203125 314.027344 C 249.644531 313.972656 249.035156 314.578125 249.097656 315.136719 C 249.113281 315.25 249.109375 315.367188 249.078125 315.480469 C 248.933594 316.808594 250.753906 317.355469 251.585938 316.519531 C 252.421875 315.6875 251.878906 313.863281 250.546875 314.011719" fill="#e9e4c1"/><path d="M 163.242188 317.464844 C 163.261719 317.222656 163.226562 316.984375 163.082031 316.789062 C 162.855469 316.488281 162.652344 316.269531 162.273438 316.171875 C 161.34375 315.929688 160.398438 316.816406 160.675781 317.769531 L 160.6875 317.8125 C 160.796875 318.179688 161.085938 318.539062 161.464844 318.675781 L 161.546875 318.738281 C 162.398438 319.304688 163.472656 318.347656 163.242188 317.464844" fill="#e9e4c1"/><path d="M 146.675781 188.132812 C 146.785156 187.578125 146.5625 186.929688 146.1875 186.554688 C 145.523438 185.890625 144.421875 185.890625 143.761719 186.554688 C 143.101562 187.214844 143.101562 188.320312 143.761719 188.980469 C 144.136719 189.355469 144.785156 189.578125 145.34375 189.464844 C 146.066406 189.398438 146.605469 188.859375 146.675781 188.132812" fill="#e9e4c1"/><path d="M 335.429688 202.691406 C 335.0625 202.300781 334.613281 202.15625 334.089844 202.238281 C 333.929688 202.265625 333.730469 202.335938 333.601562 202.410156 C 333.351562 202.554688 333.308594 202.722656 333.15625 202.910156 C 332.800781 203.371094 332.839844 203.925781 333.339844 204.265625 C 333.59375 204.4375 333.585938 204.5 333.882812 204.574219 C 334.511719 204.738281 334.101562 204.613281 334.003906 204.5625 C 335.199219 205.1875 336.351562 203.679688 335.429688 202.691406" fill="#e9e4c1"/><path d="M 331.757812 240.734375 C 331.6875 240.390625 331.535156 240.074219 331.238281 239.816406 C 330.527344 239.199219 329.492188 239.113281 328.789062 239.816406 C 328.089844 240.523438 328.175781 241.550781 328.789062 242.265625 C 329.050781 242.5625 329.363281 242.714844 329.710938 242.78125 C 331.011719 243.300781 332.273438 242.035156 331.757812 240.734375" fill="#e9e4c1"/><path d="M 276.570312 243.863281 C 277.09375 243.339844 277.125 242.347656 276.363281 241.984375 C 275.421875 241.527344 274.65625 241.894531 274.097656 242.726562 C 273.394531 243.777344 274.808594 245.167969 275.855469 244.484375 C 276.144531 244.296875 276.382812 244.101562 276.570312 243.863281" fill="#e9e4c1"/><path d="M 223.335938 256.472656 C 223.601562 255.75 222.75 254.898438 222.023438 255.164062 C 221.753906 255.265625 221.519531 255.382812 221.335938 255.609375 C 220.433594 256.714844 221.785156 258.066406 222.890625 257.164062 C 223.117188 256.980469 223.234375 256.742188 223.335938 256.472656" fill="#e9e4c1"/><path d="M 164.140625 210.148438 C 164.015625 210.035156 163.890625 209.929688 163.742188 209.84375 C 162.992188 209.402344 162.101562 210.292969 162.539062 211.046875 C 162.628906 211.191406 162.734375 211.316406 162.847656 211.441406 C 163.628906 212.328125 165.023438 210.929688 164.140625 210.148438" fill="#e9e4c1"/><path d="M 37.609375 285.015625 L 33.691406 284.203125 L 37.683594 284.460938 L 38.496094 280.539062 L 38.242188 284.53125 L 42.160156 285.347656 L 38.167969 285.089844 L 37.355469 289.011719 L 37.609375 285.015625" fill="#e9e4c1"/><path d="M 47.234375 350.378906 L 43.316406 349.566406 L 47.308594 349.820312 L 48.121094 345.902344 L 47.867188 349.898438 L 51.785156 350.707031 L 47.789062 350.453125 L 46.980469 354.371094 L 47.234375 350.378906" fill="#e9e4c1"/><path d="M 47.96875 386.167969 L 48.214844 386.121094 C 48.5 386.0625 48.5 385.609375 48.214844 385.550781 L 47.96875 385.507812 C 47.410156 385.414062 47.410156 386.257812 47.96875 386.167969" fill="#e9e4c1"/><path d="M 90.09375 327.507812 C 90.808594 327.507812 90.808594 326.398438 90.09375 326.398438 C 89.378906 326.398438 89.378906 327.507812 90.09375 327.507812" fill="#e9e4c1"/><path d="M 28.988281 320.863281 C 29.734375 320.863281 29.734375 319.707031 28.988281 319.707031 C 28.238281 319.707031 28.238281 320.863281 28.988281 320.863281" fill="#e9e4c1"/><path d="M 62.691406 351.464844 C 63.257812 351.464844 63.257812 350.582031 62.691406 350.582031 C 62.121094 350.585938 62.121094 351.464844 62.691406 351.464844" fill="#e9e4c1"/><path d="M 38.179688 410.429688 C 38.296875 410.296875 38.410156 410.164062 38.527344 410.035156 C 38.679688 409.859375 38.449219 409.628906 38.273438 409.78125 L 37.882812 410.128906 C 37.671875 410.3125 38 410.632812 38.179688 410.429688" fill="#e9e4c1"/><path d="M 120.617188 410.019531 C 120.804688 410.003906 121.011719 410.003906 121.171875 409.886719 C 121.359375 409.753906 121.484375 409.480469 121.335938 409.261719 L 121.160156 408.992188 C 121.082031 408.898438 120.894531 408.898438 120.8125 408.992188 L 120.730469 409.070312 L 120.617188 409.054688 C 119.992188 409.015625 119.996094 410.066406 120.617188 410.019531" fill="#e9e4c1"/><path d="M 123.132812 342.417969 C 123.289062 342.382812 123.421875 342.359375 123.539062 342.25 L 123.539062 342.019531 C 123.421875 341.910156 123.289062 341.890625 123.132812 341.851562 C 122.660156 341.734375 122.660156 342.535156 123.132812 342.417969" fill="#e9e4c1"/><path d="M 19.996094 360.769531 L 20.097656 360.773438 L 20.140625 360.765625 L 20.40625 360.757812 C 21.019531 360.738281 21.019531 359.828125 20.40625 359.808594 L 20.140625 359.800781 L 20.097656 359.792969 L 19.996094 359.796875 C 19.675781 359.785156 19.523438 360.03125 19.53125 360.28125 C 19.523438 360.53125 19.675781 360.777344 19.996094 360.769531" fill="#e9e4c1"/><path d="M 6.742188 385.066406 C 6.804688 384.960938 6.886719 384.871094 6.984375 384.800781 C 7.441406 384.433594 7.441406 383.535156 6.984375 383.164062 C 6.886719 383.09375 6.804688 383.003906 6.742188 382.898438 C 5.867188 381.808594 4.121094 382.75 4.121094 383.984375 C 4.121094 385.214844 5.867188 386.160156 6.742188 385.066406" fill="#e9e4c1"/><path d="M 72.984375 400.402344 C 73.4375 400.492188 73.84375 400.542969 74.296875 400.410156 C 74.828125 400.257812 75.378906 399.796875 75.480469 399.230469 L 75.488281 399.167969 C 75.628906 398.882812 75.691406 398.574219 75.5625 398.230469 C 75.429688 397.871094 75.207031 397.628906 74.921875 397.476562 C 74.382812 397.015625 73.671875 397.046875 72.984375 397.191406 C 71.402344 397.519531 71.382812 400.089844 72.984375 400.402344" fill="#e9e4c1"/><path d="M 95.535156 345.210938 L 95.625 345.304688 C 96.027344 345.726562 96.753906 345.726562 97.15625 345.304688 L 97.242188 345.210938 C 97.96875 344.457031 97.460938 343.148438 96.390625 343.148438 C 95.320312 343.148438 94.808594 344.457031 95.535156 345.210938" fill="#e9e4c1"/><path d="M 68.722656 317.984375 C 68.890625 318.175781 69.09375 318.324219 69.34375 318.363281 C 69.730469 318.417969 70.042969 318.433594 70.398438 318.222656 C 71.265625 317.710938 71.304688 316.359375 70.398438 315.859375 L 70.355469 315.839844 C 70.003906 315.644531 69.523438 315.59375 69.144531 315.773438 L 69.03125 315.785156 C 67.984375 315.996094 67.902344 317.5 68.722656 317.984375" fill="#e9e4c1"/><path d="M 119.648438 283.863281 C 119.976562 284.359375 120.621094 284.675781 121.175781 284.675781 C 122.152344 284.675781 122.96875 283.859375 122.972656 282.878906 C 122.972656 281.902344 122.152344 281.085938 121.175781 281.085938 C 120.621094 281.085938 119.976562 281.402344 119.644531 281.898438 C 119.164062 282.484375 119.164062 283.277344 119.648438 283.863281" fill="#e9e4c1"/><path d="M 12.46875 290.015625 C 12.804688 290.746094 14.066406 290.746094 14.402344 290.015625 C 14.527344 289.742188 14.613281 289.480469 14.585938 289.175781 C 14.429688 287.695312 12.433594 287.695312 12.28125 289.175781 C 12.253906 289.480469 12.339844 289.738281 12.46875 290.015625" fill="#e9e4c1"/><path d="M 90.464844 280.503906 C 90.640625 280.492188 90.816406 280.480469 90.984375 280.4375 C 91.863281 280.203125 91.863281 278.890625 90.984375 278.65625 C 90.816406 278.613281 90.640625 278.605469 90.464844 278.59375 C 89.230469 278.515625 89.230469 280.582031 90.464844 280.503906" fill="#e9e4c1"/><path d="M 57.753906 220.027344 C 57.367188 219.640625 56.769531 220.242188 57.15625 220.628906 C 57.539062 221.015625 58.140625 220.414062 57.753906 220.027344" fill="#e9e4c1"/><path d="M 106.128906 228.742188 C 105.835938 228.453125 105.386719 228.90625 105.675781 229.195312 C 105.96875 229.484375 106.414062 229.035156 106.128906 228.742188" fill="#e9e4c1"/><path d="M 82.128906 252.742188 C 81.71875 252.335938 81.082031 252.96875 81.492188 253.378906 C 81.902344 253.789062 82.535156 253.152344 82.128906 252.742188" fill="#e9e4c1"/><path d="M 24.089844 194.132812 L 24.023438 194.058594 L 23.984375 194.03125 L 23.789062 193.851562 C 23.34375 193.429688 22.703125 194.074219 23.121094 194.523438 L 23.300781 194.714844 L 23.328125 194.75 L 23.402344 194.820312 C 23.621094 195.054688 23.90625 194.988281 24.078125 194.808594 C 24.261719 194.636719 24.324219 194.351562 24.089844 194.132812" fill="#e9e4c1"/><path d="M 76.160156 198.480469 C 75.675781 197.992188 74.925781 198.746094 75.410156 199.230469 C 75.898438 199.714844 76.648438 198.964844 76.160156 198.480469" fill="#e9e4c1"/><path d="M 50.648438 186.320312 C 50.527344 186.351562 50.40625 186.359375 50.285156 186.339844 C 49.703125 186.277344 49.066406 186.910156 49.128906 187.496094 C 49.148438 187.617188 49.140625 187.738281 49.109375 187.859375 C 48.957031 189.246094 50.859375 189.816406 51.730469 188.941406 C 52.601562 188.070312 52.035156 186.167969 50.648438 186.320312" fill="#e9e4c1"/><path d="M 96.566406 193.265625 C 96.183594 192.855469 95.714844 192.703125 95.160156 192.789062 C 94.996094 192.816406 94.792969 192.894531 94.65625 192.972656 C 94.394531 193.121094 94.347656 193.296875 94.191406 193.496094 C 93.816406 193.976562 93.855469 194.554688 94.382812 194.910156 C 94.644531 195.089844 94.640625 195.152344 94.949219 195.234375 C 95.605469 195.40625 95.175781 195.273438 95.074219 195.222656 C 96.328125 195.871094 97.527344 194.296875 96.566406 193.265625" fill="#e9e4c1"/><path d="M 92.726562 233.03125 C 92.65625 232.675781 92.496094 232.34375 92.1875 232.074219 C 91.441406 231.429688 90.363281 231.339844 89.628906 232.074219 C 88.890625 232.8125 88.980469 233.890625 89.628906 234.636719 C 89.894531 234.941406 90.226562 235.105469 90.585938 235.175781 C 91.949219 235.71875 93.269531 234.394531 92.726562 233.03125" fill="#e9e4c1"/><path d="M 396.3125 289.984375 L 400.0625 289.210938 L 396.238281 289.453125 L 395.464844 285.707031 L 395.707031 289.527344 L 391.960938 290.304688 L 395.777344 290.058594 L 396.554688 293.808594 L 396.3125 289.984375" fill="#e9e4c1"/><path d="M 387.105469 352.511719 L 390.855469 351.734375 L 387.03125 351.980469 L 386.257812 348.234375 L 386.5 352.054688 L 382.753906 352.828125 L 386.570312 352.585938 L 387.347656 356.332031 L 387.105469 352.511719" fill="#e9e4c1"/><path d="M 386.402344 386.75 L 386.164062 386.707031 C 385.894531 386.648438 385.894531 386.214844 386.164062 386.15625 L 386.402344 386.117188 C 386.933594 386.03125 386.933594 386.835938 386.402344 386.75" fill="#e9e4c1"/><path d="M 404.558594 324.28125 C 403.84375 324.28125 403.84375 323.171875 404.558594 323.171875 C 405.273438 323.171875 405.273438 324.28125 404.558594 324.28125" fill="#e9e4c1"/><path d="M 372.320312 353.554688 C 371.777344 353.554688 371.777344 352.710938 372.320312 352.710938 C 372.863281 352.710938 372.863281 353.554688 372.320312 353.554688" fill="#e9e4c1"/><path d="M 419.253906 409.957031 C 419.144531 409.832031 419.03125 409.707031 418.921875 409.582031 C 418.773438 409.414062 419 409.191406 419.164062 409.339844 L 419.539062 409.671875 C 419.738281 409.847656 419.429688 410.15625 419.253906 409.957031" fill="#e9e4c1"/><path d="M 413.160156 362.453125 L 413.0625 362.457031 L 413.019531 362.449219 L 412.769531 362.441406 C 412.183594 362.421875 412.183594 361.550781 412.769531 361.535156 L 413.019531 361.527344 L 413.0625 361.519531 L 413.160156 361.523438 C 413.46875 361.511719 413.613281 361.75 413.605469 361.988281 C 413.613281 362.226562 413.46875 362.464844 413.160156 362.453125" fill="#e9e4c1"/><path d="M 366.546875 321.523438 C 366.390625 321.707031 366.195312 321.851562 365.957031 321.886719 C 365.585938 321.941406 365.28125 321.953125 364.945312 321.753906 C 364.117188 321.265625 364.074219 319.972656 364.945312 319.492188 L 364.984375 319.472656 C 365.320312 319.285156 365.78125 319.234375 366.144531 319.410156 L 366.253906 319.421875 C 367.253906 319.625 367.335938 321.0625 366.546875 321.523438" fill="#e9e4c1"/><path d="M 420.363281 294.769531 C 420.039062 295.472656 418.835938 295.472656 418.515625 294.769531 C 418.394531 294.507812 418.308594 294.257812 418.339844 293.96875 C 418.480469 292.550781 420.394531 292.550781 420.539062 293.96875 C 420.570312 294.257812 420.484375 294.507812 420.363281 294.769531" fill="#e9e4c1"/><path d="M 410.980469 166.949219 L 411.183594 166.808594 C 411.414062 166.65625 411.722656 166.964844 411.566406 167.195312 L 411.433594 167.394531 C 411.117188 167.828125 410.550781 167.261719 410.980469 166.949219" fill="#e9e4c1"/><path d="M 377.039062 227.820312 C 377.410156 227.449219 377.984375 228.023438 377.613281 228.394531 C 377.242188 228.765625 376.671875 228.191406 377.039062 227.820312" fill="#e9e4c1"/><path d="M 379.832031 165.277344 C 380 165.285156 380.164062 165.296875 380.335938 165.308594 C 380.554688 165.320312 380.554688 165.640625 380.332031 165.652344 L 379.832031 165.683594 C 379.570312 165.699219 379.570312 165.261719 379.832031 165.277344" fill="#e9e4c1"/><path d="M 409.242188 203.046875 L 409.3125 202.976562 L 409.34375 202.953125 L 409.53125 202.777344 C 409.957031 202.375 410.570312 202.992188 410.171875 203.421875 L 409.996094 203.605469 L 409.976562 203.640625 L 409.902344 203.703125 C 409.691406 203.929688 409.421875 203.863281 409.257812 203.691406 C 409.085938 203.527344 409.019531 203.257812 409.242188 203.046875" fill="#e9e4c1"/><path d="M 383.84375 195.574219 C 383.957031 195.605469 384.070312 195.609375 384.1875 195.59375 C 384.742188 195.53125 385.351562 196.140625 385.292969 196.699219 C 385.273438 196.816406 385.277344 196.929688 385.3125 197.046875 C 385.457031 198.371094 383.636719 198.917969 382.804688 198.082031 C 381.96875 197.25 382.511719 195.429688 383.84375 195.574219" fill="#e9e4c1"/><path d="M 421.074219 139.664062 C 420.988281 139.613281 420.902344 139.566406 420.808594 139.535156 L 420.761719 139.503906 C 420.304688 139.1875 419.621094 139.246094 419.15625 139.503906 C 418.765625 139.71875 418.523438 140.027344 418.277344 140.394531 C 417.402344 141.691406 419.15625 143.421875 420.449219 142.566406 C 420.679688 142.414062 420.890625 142.246094 421.074219 142.054688 L 421.074219 139.664062" fill="#e9e4c1"/><path d="M 398.773438 243.390625 C 398.25 242.867188 398.21875 241.875 398.980469 241.511719 C 399.925781 241.054688 400.6875 241.421875 401.246094 242.25 C 401.949219 243.304688 400.535156 244.695312 399.484375 244.007812 C 399.199219 243.820312 398.964844 243.628906 398.773438 243.390625" fill="#e9e4c1"/><path d="M 397.355469 38.703125 L 388.449219 40.546875 L 397.527344 39.96875 L 399.371094 48.875 L 398.792969 39.796875 L 407.699219 37.949219 L 398.621094 38.53125 L 396.777344 29.625 L 397.355469 38.703125" fill="#e9e4c1"/><path d="M 385.144531 95.0625 C 385.863281 95.0625 385.863281 96.175781 385.144531 96.175781 C 384.429688 96.175781 384.429688 95.0625 385.144531 95.0625" fill="#e9e4c1"/><path d="M 403.664062 12.550781 C 403.855469 12.566406 404.058594 12.570312 404.21875 12.683594 C 404.410156 12.816406 404.535156 13.09375 404.386719 13.3125 L 404.207031 13.574219 C 404.128906 13.675781 403.941406 13.671875 403.859375 13.574219 L 403.777344 13.496094 L 403.664062 13.515625 C 403.039062 13.558594 403.046875 12.503906 403.664062 12.550781" fill="#e9e4c1"/><path d="M 418.1875 80.152344 C 418.34375 80.1875 418.476562 80.210938 418.59375 80.320312 L 418.59375 80.550781 C 418.476562 80.660156 418.34375 80.679688 418.1875 80.71875 C 417.714844 80.835938 417.714844 80.035156 418.1875 80.152344" fill="#e9e4c1"/><path d="M 368.039062 22.167969 C 368.488281 22.078125 368.894531 22.027344 369.351562 22.15625 C 369.878906 22.3125 370.429688 22.769531 370.53125 23.34375 L 370.542969 23.402344 C 370.679688 23.6875 370.742188 23.996094 370.613281 24.34375 C 370.484375 24.695312 370.261719 24.941406 369.976562 25.097656 C 369.4375 25.558594 368.726562 25.519531 368.039062 25.378906 C 366.453125 25.054688 366.433594 22.480469 368.039062 22.167969" fill="#e9e4c1"/><path d="M 390.589844 77.359375 L 390.679688 77.265625 C 391.078125 76.847656 391.804688 76.847656 392.207031 77.265625 L 392.296875 77.359375 C 393.019531 78.113281 392.515625 79.421875 391.441406 79.421875 C 390.371094 79.421875 389.863281 78.113281 390.589844 77.359375" fill="#e9e4c1"/><path d="M 363.777344 104.585938 C 363.941406 104.394531 364.144531 104.242188 364.394531 104.207031 C 364.78125 104.152344 365.097656 104.140625 365.449219 104.347656 C 366.316406 104.859375 366.359375 106.210938 365.449219 106.710938 L 365.410156 106.734375 C 365.058594 106.925781 364.574219 106.980469 364.195312 106.800781 L 364.085938 106.78125 C 363.039062 106.570312 362.953125 105.070312 363.777344 104.585938" fill="#e9e4c1"/><path d="M 414.699219 138.703125 C 415.027344 138.210938 415.675781 137.898438 416.226562 137.894531 C 417.203125 137.894531 418.019531 138.710938 418.023438 139.691406 C 418.023438 140.667969 417.203125 141.484375 416.230469 141.484375 C 415.675781 141.484375 415.027344 141.167969 414.699219 140.675781 C 414.21875 140.089844 414.21875 139.289062 414.699219 138.703125" fill="#e9e4c1"/><path d="M 385.519531 142.066406 C 385.691406 142.078125 385.867188 142.089844 386.035156 142.136719 C 386.914062 142.363281 386.914062 143.679688 386.035156 143.910156 C 385.867188 143.957031 385.691406 143.96875 385.519531 143.980469 C 384.285156 144.058594 384.285156 141.988281 385.519531 142.066406" fill="#e9e4c1"/><path d="M 405.574219 165.097656 L 410.566406 157.496094 L 404.558594 164.324219 L 396.957031 159.328125 L 403.785156 165.339844 L 398.792969 172.941406 L 404.800781 166.113281 L 412.402344 171.109375 L 405.574219 165.097656" fill="#e9e4c1"/><path d="M 401.179688 193.824219 C 400.890625 194.117188 400.4375 193.664062 400.730469 193.375 C 401.019531 193.085938 401.46875 193.535156 401.179688 193.824219" fill="#e9e4c1"/><path d="M 377.179688 169.824219 C 376.769531 170.234375 376.136719 169.601562 376.546875 169.191406 C 376.953125 168.78125 377.589844 169.414062 377.179688 169.824219" fill="#e9e4c1"/><path d="M 371.214844 224.09375 C 370.730469 224.574219 369.980469 223.824219 370.464844 223.339844 C 370.949219 222.855469 371.699219 223.609375 371.214844 224.09375" fill="#e9e4c1"/><path d="M 391.617188 229.308594 C 391.234375 229.71875 390.765625 229.863281 390.214844 229.777344 C 390.050781 229.753906 389.847656 229.679688 389.707031 229.601562 C 389.445312 229.449219 389.402344 229.273438 389.242188 229.074219 C 388.867188 228.59375 388.910156 228.015625 389.433594 227.65625 C 389.695312 227.480469 389.691406 227.414062 390.003906 227.335938 C 390.660156 227.160156 390.230469 227.296875 390.128906 227.347656 C 391.382812 226.695312 392.578125 228.273438 391.617188 229.308594" fill="#e9e4c1"/><path d="M 387.777344 189.535156 C 387.710938 189.894531 387.550781 190.226562 387.238281 190.496094 C 386.492188 191.140625 385.414062 191.230469 384.679688 190.496094 C 383.941406 189.761719 384.03125 188.683594 384.679688 187.9375 C 384.945312 187.628906 385.277344 187.464844 385.640625 187.398438 C 387 186.855469 388.320312 188.175781 387.777344 189.535156" fill="#e9e4c1"/><path d="M 35.035156 236.304688 C 35.585938 235.757812 35.617188 234.722656 34.824219 234.339844 C 33.835938 233.863281 33.035156 234.242188 32.453125 235.113281 C 31.71875 236.214844 33.195312 237.671875 34.289062 236.949219 C 34.59375 236.757812 34.839844 236.558594 35.035156 236.304688" fill="#e9e4c1"/></g></svg>