<?xml version="1.0" encoding="UTF-8" standalone="no"?><svg xmlns="http://www.w3.org/2000/svg" xmlns:xlink="http://www.w3.org/1999/xlink" fill="#000000" height="1786.6" preserveAspectRatio="xMidYMid meet" version="1" viewBox="-0.1 -1.5 1589.2 1786.6" width="1589.2" zoomAndPan="magnify"><g fill-rule="evenodd"><g id="change1_1"><path d="M 1386.175781 697.828125 C 1407.808594 700.726562 1443.101562 699.339844 1464.507812 692.308594 C 1471.941406 689.871094 1486.417969 683.367188 1483.015625 673.046875 C 1445.007812 651.53125 1392.890625 667.890625 1386.175781 697.828125 Z M 1388.082031 642.800781 C 1427.308594 652.445312 1495.789062 655.453125 1488.421875 609.699219 C 1449.523438 613.253906 1407.089844 612 1388.082031 642.800781 Z M 558.054688 144.035156 C 539.710938 194.246094 567.0625 232.199219 610.941406 245.222656 C 691.839844 269.234375 760.015625 239.992188 779.179688 173.972656 C 799.210938 105.011719 756.402344 44.214844 702.234375 42.484375 C 649.746094 49.882812 579.175781 86.167969 558.054688 144.035156 Z M 1076.351562 85.164062 C 1014.789062 92.011719 986.085938 141.101562 974.726562 197.765625 C 966.195312 240.242188 983.734375 285.277344 981.171875 327.152344 C 928.734375 346.171875 886.609375 384.855469 867.710938 444.539062 C 854.179688 487.289062 858.773438 535.539062 841.875 582.1875 C 813.820312 577.109375 799.667969 584.785156 785.871094 557.992188 C 770.882812 583.453125 743.96875 576.621094 715.648438 582.496094 C 709.027344 579.039062 709.855469 570.132812 700.046875 568.988281 C 691.1875 591.835938 662.6875 587.792969 642.789062 595.507812 C 636.894531 588.96875 633.246094 580.773438 618.535156 580.675781 C 614.089844 592.074219 607.761719 600.882812 602.679688 611.398438 C 577.921875 609.492188 561.914062 619.5625 552.925781 632.445312 C 507.074219 554.777344 504.125 411.636719 535.671875 302.128906 C 608.335938 326.261719 679.890625 310.980469 712.183594 263.195312 C 674.964844 265.941406 638.195312 275.273438 598.445312 254.347656 C 592.304688 251.109375 581.960938 248.011719 573.523438 243.839844 C 510.363281 212.449219 546.691406 108.457031 594.742188 78.898438 C 594.585938 71.671875 597.78125 69.054688 599.265625 64.097656 C 621.65625 53.6875 639.585938 37.132812 660.6875 24.945312 C 586.730469 15.179688 518.9375 51.867188 505.023438 129.132812 C 500.949219 151.75 501.796875 179.597656 505.078125 199.96875 C 508.789062 223.074219 525.175781 242.5 522.613281 258.042969 C 519.898438 274.367188 498.726562 286.671875 489.28125 301.574219 C 486.9375 305.257812 489.378906 311.1875 486.921875 316.691406 C 484.5625 321.988281 478.433594 328.757812 475.246094 334.804688 C 464.421875 355.382812 451.035156 381.847656 446.859375 403.4375 C 427.003906 506.320312 465.507812 562.179688 491.070312 631.683594 C 486.773438 642.410156 477.816406 646.769531 475.546875 660.261719 C 409.335938 734.628906 407.699219 878.765625 403.855469 978.949219 C 367.078125 969.878906 335.585938 969.976562 300.777344 958.484375 C 291.550781 955.445312 282.015625 945 272.527344 940.816406 C 197.398438 907.535156 158.457031 801.828125 175.265625 726.441406 C 204.542969 735.503906 256.113281 740.238281 272.234375 714.960938 C 270.117188 705.660156 266.714844 697.292969 260.46875 691.019531 C 235.5625 687.164062 218.707031 713.253906 198.074219 707.859375 C 180.914062 703.398438 180.699219 685.570312 183.328125 674.59375 C 189.4375 649.035156 265.324219 622.941406 219.542969 598.308594 C 193.464844 614.722656 197.621094 657.503906 165.214844 662.910156 C 147.246094 645.851562 127.167969 634.410156 129.726562 606.484375 C 131.871094 582.964844 163.230469 554.144531 136.160156 536.640625 C 99.226562 555.082031 123.496094 611.433594 114.355469 648.359375 C 67.628906 658.15625 63.613281 605.503906 32.464844 591.355469 C 19.539062 623.671875 26.039062 642.410156 45.820312 662.058594 C 58.238281 674.386719 92.140625 679.824219 102.640625 695.234375 C 113.75 711.523438 100.90625 732.832031 104.039062 757.4375 C 105.8125 771.40625 113.226562 789.457031 118.582031 806.191406 C 131.855469 847.523438 147.855469 881.917969 170.136719 916.027344 C 212.992188 981.691406 279.589844 1028.238281 372.980469 1049.398438 C 369.445312 1058.359375 383 1054.859375 382.089844 1061.898438 C 366.835938 1290.160156 369.792969 1505.109375 427.652344 1679.949219 C 435.34375 1685.519531 436.632812 1695.929688 435.101562 1703.257812 C 403.425781 1703.859375 381.46875 1672.441406 349.988281 1681.160156 C 328.539062 1687.109375 314.003906 1712.25 311.792969 1741.628906 C 350.308594 1771.609375 416.9375 1749.359375 471.933594 1751.03125 C 509.242188 1752.179688 540.058594 1755.949219 566.085938 1743.558594 C 572.339844 1726.679688 576.097656 1702.359375 570.160156 1688.828125 C 555.582031 1685.941406 529.707031 1694.03125 520.441406 1681.109375 C 533.640625 1670.570312 552.804688 1679.570312 567.519531 1677.351562 C 628.832031 1668.148438 702.367188 1665.410156 757.140625 1653.730469 C 771.726562 1673.789062 807.890625 1687.058594 817.179688 1651.988281 C 832.257812 1650.769531 843.03125 1643.667969 856.617188 1640.417969 C 866.039062 1643.109375 865.070312 1653.390625 874.046875 1656.398438 C 894.054688 1656.679688 894.242188 1629.859375 917.335938 1634.339844 C 925.140625 1659.839844 916.757812 1692.429688 913.6875 1728.96875 C 974.265625 1725.378906 1043.421875 1733.519531 1098.453125 1722.300781 C 1107.574219 1703.558594 1098.386719 1681.699219 1084.570312 1669.21875 C 1068.980469 1655.160156 1048.570312 1657.628906 1032.890625 1645.691406 C 1040.371094 1598.769531 1043.941406 1565.171875 1042.730469 1525.460938 C 1041.742188 1493.839844 1029.902344 1467.097656 1045.511719 1450.621094 C 1055.621094 1450.480469 1067.5 1452.769531 1070.960938 1443.519531 C 1075.851562 1431.289062 1043.152344 1422.640625 1041.089844 1407.878906 C 1040.082031 1400.628906 1047.609375 1393.609375 1049.121094 1384.769531 C 1051.351562 1371.621094 1047.632812 1355.601562 1049.371094 1340.558594 C 1050.652344 1329.199219 1055.152344 1319.101562 1056.890625 1306.289062 C 1062.179688 1267.058594 1051.441406 1223.929688 1046.941406 1185.210938 C 1044.792969 1166.589844 1045.050781 1145.347656 1040.890625 1124.507812 C 1035.863281 1099.367188 1028.800781 1074.988281 1032.671875 1063.449219 C 1036.550781 1051.949219 1054.171875 1049.578125 1054 1040.21875 C 1048.359375 1035.398438 1033.339844 1037.429688 1031.230469 1030.027344 C 1028.941406 982.097656 1003.582031 941.90625 1032.421875 908.457031 C 1057.261719 911.089844 1077.019531 897.921875 1099.488281 890.105469 C 1177.34375 863.03125 1256.1875 846.101562 1315.328125 797.503906 C 1346.644531 771.761719 1371.382812 749.183594 1392.476562 714.304688 C 1354.328125 702.003906 1388.246094 666.726562 1407.691406 659.128906 C 1386.078125 658.320312 1373.105469 651.191406 1373.957031 633.960938 C 1419.65625 593.929688 1497.273438 596.871094 1562.289062 590.1875 C 1537.785156 567.3125 1505.675781 557.195312 1472.859375 567.421875 C 1454.722656 573.097656 1437.402344 598.40625 1423.296875 573 C 1430.304688 555.453125 1427.601562 536.042969 1410.558594 526.753906 C 1387.984375 537.230469 1381.542969 555.628906 1378.535156 590.386719 C 1346.261719 599.234375 1326.9375 629.65625 1312.398438 659.804688 C 1307.675781 669.570312 1300.242188 676.140625 1297.5625 684.054688 C 1290.980469 703.460938 1286.96875 724.164062 1275.175781 742.550781 C 1265.246094 758.039062 1253.703125 769.449219 1240.339844 781.410156 C 1214.160156 804.855469 1181.550781 829.332031 1144.972656 839.621094 C 1111.53125 849.019531 1032.160156 858.554688 1004.75 844.394531 C 1018.621094 735.074219 970.25 655.214844 928.53125 580.171875 C 918.984375 579.496094 915.773438 574.167969 912.578125 568.835938 C 905.109375 517.535156 927.804688 473.707031 943.070312 429.695312 C 946.15625 420.8125 945.445312 411.953125 948.9375 406.25 C 959.578125 388.910156 1004.921875 354.480469 1017.050781 352.660156 C 1059.550781 346.226562 1099.695312 386.828125 1145.242188 368.167969 C 1166.007812 354.589844 1201.125 338.828125 1193.070312 302.542969 C 1146.976562 324.503906 1089.382812 322.773438 1033.410156 304.289062 C 1030.230469 299.589844 1025.332031 296.15625 1022.121094 291.457031 C 1022.410156 276.199219 1017.722656 260.167969 1018.382812 244.394531 C 1020.921875 183.839844 1044.292969 144.359375 1068.800781 119.410156 C 1072.292969 115.871094 1073.300781 110.570312 1074.820312 109.273438 C 1083.511719 101.851562 1105.1875 96.566406 1104.773438 87.367188 C 1093.570312 90.746094 1084.480469 84.273438 1076.351562 85.164062 Z M 1173.625 299.523438 C 1204.296875 266.988281 1252.242188 238.160156 1240.175781 170.421875 C 1223.566406 142.800781 1209.84375 98.257812 1167.804688 94.964844 C 1149.855469 93.546875 1141.65625 106.257812 1120.054688 103.019531 C 1069.152344 130.191406 1031.511719 201.113281 1034.292969 284.492188 C 1071.421875 311.089844 1132.871094 313.792969 1173.625 299.523438 Z M 1215.554688 286.128906 C 1230.488281 338.054688 1182.433594 368.691406 1150.855469 388.964844 C 1108.25 403.636719 1059.632812 379.492188 1021.980469 377.769531 C 993.390625 397.976562 964.5625 433.574219 951.140625 477.433594 C 942.125 506.960938 953.632812 537.152344 942.367188 562.40625 C 992.039062 635.257812 1043.511719 725.214844 1033.730469 828.976562 C 1071.882812 831.273438 1118.671875 828.90625 1150.824219 816.195312 C 1190.726562 800.410156 1235.164062 766.226562 1254.574219 732.707031 C 1270.476562 705.214844 1274.621094 670.976562 1293.476562 639.148438 C 1307.917969 614.746094 1335.253906 595.800781 1356.429688 575.890625 C 1351.65625 517.753906 1452.050781 472.726562 1453.261719 551.105469 C 1494.175781 541.730469 1565.042969 536.019531 1589.101562 574.441406 C 1586.265625 616.859375 1552.335938 616.773438 1516.519531 614.070312 C 1513.480469 624.25 1512.988281 647.914062 1497.828125 648.796875 C 1500.519531 656.121094 1510.058594 665.285156 1509.285156 674.933594 C 1506.015625 714.75 1448.128906 702.851562 1418.40625 718.332031 C 1403.1875 726.265625 1398.121094 745.933594 1385.402344 759.695312 C 1349.039062 799.035156 1307.777344 823.371094 1280.984375 847.511719 C 1200.054688 874.832031 1142.234375 933.738281 1045.351562 939.253906 C 1040.179688 969.851562 1056.332031 984.839844 1053.703125 1013.589844 C 1084.210938 1020.097656 1093.011719 1062.878906 1062.261719 1072.5 C 1064.523438 1084.257812 1063.691406 1098.257812 1070.191406 1106.917969 C 1071.832031 1115.109375 1068.800781 1114.828125 1070 1122.386719 C 1096.914062 1201.320312 1073.300781 1318.109375 1070.203125 1405.757812 C 1092.511719 1426.949219 1107.804688 1468.5 1065.582031 1478.109375 C 1070.3125 1530.949219 1069.921875 1569.578125 1060.019531 1627.769531 C 1063.011719 1637.160156 1076.269531 1635.128906 1084.609375 1640.449219 C 1106.734375 1654.539062 1135.238281 1705.28125 1125.875 1730.988281 C 1114.769531 1761.5 1035.632812 1746.261719 997.296875 1746.417969 C 959.523438 1746.570312 921.546875 1754.128906 893.367188 1745.738281 C 885.171875 1729.050781 898.5 1705.300781 894.117188 1683.871094 C 875.789062 1682.429688 859.890625 1676.21875 841.429688 1666.847656 C 828.953125 1694.210938 804.347656 1704.558594 775.539062 1692 C 767.058594 1688.28125 761.839844 1677.480469 753.789062 1675.328125 C 746.058594 1673.28125 728.332031 1677.988281 713.1875 1680.089844 C 676.910156 1685.089844 634.152344 1690.46875 596.421875 1690.699219 C 617.242188 1785.089844 531.175781 1770.019531 469.246094 1768.328125 C 452.164062 1767.859375 436.011719 1774.910156 419.339844 1776.058594 C 383.421875 1778.550781 350.167969 1771.839844 316.414062 1768.917969 C 308.183594 1761.519531 296.386719 1756.730469 291.003906 1747.25 C 279.566406 1687.128906 334.101562 1639.308594 398.738281 1666.601562 C 343.25 1503.597656 347.511719 1279.589844 354.476562 1068.667969 C 262.65625 1047.347656 189.421875 990.875 143.328125 931.792969 C 99.636719 875.796875 75.371094 799.621094 80.5 709.496094 C 45.367188 694.007812 0.261719 658.976562 0 615.082031 C -0.136719 592.925781 23.910156 562.570312 43.324219 564.269531 C 69.542969 566.527344 64.539062 603.082031 89.140625 611.234375 C 96.695312 602.277344 88.375 585.90625 91.207031 569.492188 C 94.019531 553.140625 105.019531 541.492188 108.730469 527.953125 C 136.320312 505.347656 177.550781 520.664062 172.042969 562.144531 C 169.035156 584.816406 137.335938 615.355469 170.257812 630.496094 C 183.636719 606.921875 211.222656 559.269531 242.691406 577.566406 C 247.390625 580.304688 256.097656 596.675781 256.628906 601.851562 C 259.78125 633.066406 231.957031 659.945312 212.777344 670.3125 C 228.03125 672.1875 242.363281 657.765625 262.671875 662.574219 C 283.582031 667.507812 296.054688 691.789062 295.535156 707.519531 C 293.984375 754.195312 230.097656 755.246094 196.496094 760.753906 C 196.292969 863.242188 264.570312 933.394531 378.96875 939.660156 C 387.070312 851.5625 392.316406 719.089844 455.289062 648.261719 C 436.152344 579.34375 398.746094 493.6875 420.933594 399.40625 C 427.242188 372.582031 442.9375 335.832031 457.675781 305.507812 C 467.3125 285.648438 482.773438 260.667969 497.015625 251.851562 C 468.855469 201.460938 474.90625 102.714844 517.128906 51.3125 C 538.011719 25.894531 589.589844 6.484375 633.453125 0.78125 C 651.09375 -1.496094 664.789062 1.164062 685.320312 8.859375 C 691.359375 11.113281 697.851562 16.804688 703.773438 18.363281 C 714.109375 21.089844 725.625 17.035156 734.703125 18.746094 C 790.902344 29.40625 822.242188 112.109375 800.472656 179.5 C 792.769531 203.316406 776.5625 216.65625 766.929688 238.476562 C 759.277344 240.230469 755.394531 247.164062 747.628906 248.765625 C 707.210938 309.726562 646.222656 353.390625 552.917969 333.605469 C 528.148438 411.765625 544.152344 512.597656 570.792969 588.730469 C 577.191406 587.867188 584.523438 588.304688 590.914062 587.441406 C 599.363281 569.035156 617.457031 549.511719 638.371094 552.761719 C 651.207031 554.765625 650.300781 566.253906 662.953125 565.4375 C 679.730469 560.207031 681.210938 536.871094 700.425781 538.070312 C 714.199219 538.90625 718.121094 551.617188 730.15625 560.390625 C 762.230469 569.546875 769.253906 520.554688 795.574219 524.085938 C 812.882812 526.394531 814.007812 541.773438 823.96875 555.0625 C 836.375 515.757812 836.601562 472.441406 847.445312 432.539062 C 863.648438 372.878906 905.835938 332.398438 952.914062 309.476562 C 959.734375 260.570312 932.984375 228.894531 954.3125 172.4375 C 980.984375 101.808594 1037.53125 54.703125 1118.941406 67.433594 C 1131.25 69.363281 1141.515625 73.46875 1153.199219 74.984375 C 1172.601562 77.492188 1193.898438 73.492188 1209.386719 83.714844 C 1228.941406 96.644531 1257.933594 138.320312 1262.816406 167.28125 C 1270.433594 212.472656 1251.664062 260.972656 1215.554688 286.128906" fill="inherit"/></g><g id="change2_1"><path d="M 1135.867188 200.679688 C 1168.96875 231.492188 1211.480469 194.300781 1193.980469 154.371094 C 1162.320312 132.222656 1129.25 161.867188 1135.867188 200.679688 Z M 1034.296875 284.492188 C 1031.511719 201.113281 1069.152344 130.1875 1120.046875 103.023438 C 1141.660156 106.253906 1149.847656 93.542969 1167.804688 94.957031 C 1209.839844 98.25 1223.5625 142.796875 1240.183594 170.417969 C 1252.246094 238.164062 1204.304688 266.980469 1173.628906 299.515625 C 1132.871094 313.796875 1071.425781 311.089844 1034.296875 284.492188" fill="#fffef5"/></g><g id="change2_2"><path d="M 727.300781 165.921875 C 772.0625 104.996094 656.792969 89.3125 670.441406 161.507812 C 683.929688 177.804688 709.519531 175.5625 727.300781 165.921875 Z M 702.230469 42.492188 C 756.398438 44.226562 799.207031 105.015625 779.175781 173.984375 C 760.011719 240 691.835938 269.246094 610.9375 245.222656 C 567.058594 232.210938 539.707031 194.253906 558.050781 144.039062 C 579.171875 86.175781 649.742188 49.894531 702.230469 42.492188" fill="#fffef5"/></g><g id="change1_2"><path d="M 1147.683594 195.871094 C 1175.296875 212.648438 1194.199219 182.582031 1182.164062 159.167969 C 1162.804688 159.621094 1141.730469 169.265625 1147.683594 195.871094 Z M 1193.988281 154.367188 C 1211.480469 194.296875 1168.96875 231.492188 1135.859375 200.683594 C 1129.253906 161.863281 1162.320312 132.222656 1193.988281 154.367188" fill="inherit"/></g><g id="change3_1"><path d="M 1182.160156 159.179688 C 1194.199219 182.589844 1175.289062 212.648438 1147.679688 195.878906 C 1141.730469 169.269531 1162.800781 159.628906 1182.160156 159.179688" fill="#f3ff00"/></g><g id="change1_3"><path d="M 696.28125 123.457031 C 686.6875 132.429688 681.878906 141.734375 682.253906 156.683594 C 720.832031 182.863281 746.597656 116.519531 696.28125 123.457031 Z M 670.445312 161.496094 C 656.800781 89.304688 772.070312 104.988281 727.308594 165.90625 C 709.523438 175.554688 683.9375 177.789062 670.445312 161.496094" fill="inherit"/></g><g id="change3_2"><path d="M 682.253906 156.683594 C 681.878906 141.742188 686.6875 132.433594 696.28125 123.460938 C 746.597656 116.527344 720.832031 182.867188 682.253906 156.683594" fill="#f3ff00"/></g><g id="change4_1"><path d="M 1488.421875 609.710938 C 1495.789062 655.460938 1427.308594 652.449219 1388.078125 642.800781 C 1407.089844 612 1449.519531 613.261719 1488.421875 609.710938" fill="#a5efb3"/></g><g id="change4_2"><path d="M 1483.011719 673.050781 C 1486.410156 683.371094 1471.941406 689.871094 1464.511719 692.308594 C 1443.101562 699.339844 1407.808594 700.730469 1386.171875 697.828125 C 1392.890625 667.898438 1445.011719 651.53125 1483.011719 673.050781" fill="#a5efb3"/></g><g id="change5_1"><path d="M 867 676.871094 C 870.078125 694.699219 856.234375 708.300781 834.546875 700.601562 C 830.890625 693.050781 827.203125 685.53125 829.921875 673.320312 C 838.679688 670.578125 857.8125 670.519531 867 676.871094" fill="#fffffd"/></g><g id="change6_1"><path d="M 812.289062 672.78125 C 822.71875 683.691406 818.039062 705.640625 832.53125 713.558594 C 856.6875 718.988281 873.695312 714.160156 878.640625 687.53125 C 942.617188 693.648438 901.828125 776.371094 868.484375 781.148438 C 837.25 754.78125 788.90625 724.308594 754.613281 759 C 694.339844 724.410156 632.605469 769.660156 606.339844 815.628906 C 590.773438 819.707031 568.996094 814.488281 554.464844 807.5625 C 535.964844 783.625 567.925781 713.320312 597.019531 718.988281 C 605.546875 720.660156 610.1875 734.988281 618.445312 737.820312 C 636.058594 743.890625 643.054688 735.019531 659.371094 730.890625 C 664.125 715.25 678.671875 701.269531 672.90625 686.53125 C 720.5 683.738281 760.515625 674.671875 812.289062 672.78125" fill="#d86161"/></g><g id="change5_2"><path d="M 604.035156 702.378906 C 617.144531 693.230469 638.816406 695.789062 654.605469 690.320312 C 660.976562 695.480469 654.707031 713.660156 649.570312 722.738281 C 626.820312 737.730469 613.789062 717.398438 604.035156 702.378906" fill="#fffffd"/></g><g id="change7_1"><path d="M 852.835938 796.410156 C 778.019531 807.011719 696.261719 818.261719 619.320312 817.65625 C 643.304688 776.320312 710.820312 732.308594 756.242188 776.972656 C 768.542969 772.828125 768.269531 763.148438 779.054688 758.378906 C 808.125 745.519531 845.132812 772.101562 852.835938 796.410156" fill="#ff9999"/></g><g id="change1_4"><path d="M 890.109375 884.105469 C 889.875 901.265625 874.609375 897.847656 868.789062 907.355469 C 862.648438 908.027344 865.109375 902.386719 860.8125 901.703125 C 866.375 890.515625 876.179688 875.617188 890.109375 884.105469" fill="inherit"/></g><g id="change1_5"><path d="M 768.070312 871.773438 C 759.890625 882.523438 714.214844 882.789062 695.878906 880.476562 C 695.175781 864.648438 707.546875 866.742188 719.835938 868.710938 C 732.921875 865.414062 764.492188 864.722656 768.070312 871.773438" fill="inherit"/></g><g id="change1_6"><path d="M 903.367188 912.753906 C 904.429688 921.167969 897.039062 918.074219 897.03125 925.027344 C 891.460938 920.824219 888.046875 924.371094 880.070312 920.191406 C 880.664062 904.574219 895.773438 905.128906 903.367188 912.753906" fill="inherit"/></g><g id="change1_7"><path d="M 494.96875 990.894531 C 488.140625 1006.839844 469.476562 992.160156 464.988281 1012.808594 C 466.59375 1016.738281 474.753906 1015.890625 474.789062 1020.960938 C 475.847656 1029.398438 468.472656 1026.289062 468.460938 1033.25 C 435.390625 1023.5 467.40625 970.917969 494.96875 990.894531" fill="inherit"/></g><g id="change1_8"><path d="M 951.164062 1075.128906 C 954.046875 1075.589844 956.9375 1076.039062 959.820312 1076.480469 C 956.953125 1119.878906 887.25 1144.230469 872.96875 1093.960938 C 847.375 1118.710938 810.882812 1140.160156 783.824219 1097.828125 C 767.890625 1127.871094 713.617188 1161.199219 693.683594 1108.148438 C 687.558594 1113.738281 679.664062 1116.929688 675.519531 1125.238281 C 649.570312 1137.628906 611.066406 1144.789062 595.207031 1114.949219 C 590.097656 1105.339844 583.527344 1082.589844 592.625 1074.71875 C 608.664062 1081.5 600.472656 1106 610.34375 1117.308594 C 643.492188 1135.191406 681.300781 1117.960938 691.214844 1081.199219 C 707.96875 1090.03125 704.859375 1113.359375 720.097656 1123.320312 C 756.285156 1129.148438 766.058594 1098.839844 780.710938 1075.191406 C 795.265625 1084.558594 794.300781 1102.578125 808.765625 1108.328125 C 838.492188 1120.148438 854.46875 1093.121094 869.515625 1073.511719 C 887.585938 1085.109375 884.710938 1110.378906 907.695312 1112.628906 C 926.179688 1114.46875 941.34375 1094.160156 951.164062 1075.128906" fill="inherit"/></g><g id="change1_9"><path d="M 938.296875 1115.199219 C 942.21875 1115.519531 942.445312 1118.539062 946.609375 1118.679688 C 955.320312 1170.179688 900.117188 1216 858.039062 1175.769531 C 842.117188 1183.109375 839.460938 1207.28125 821.054688 1214.289062 C 795.992188 1223.800781 769.46875 1207.179688 753.910156 1190.550781 C 731.527344 1232.539062 660.890625 1237.109375 629.179688 1195.519531 C 600.589844 1239.828125 505.175781 1241.550781 508.132812 1176.691406 C 526.9375 1182.339844 523.003906 1209.21875 543.820312 1217.648438 C 573.277344 1229.589844 613.058594 1205.789062 625.71875 1175.039062 C 643.3125 1187.550781 654.171875 1210.738281 681.53125 1214.71875 C 711.285156 1219.050781 737.683594 1203.238281 747.617188 1174.078125 C 771.84375 1183.949219 779.273438 1208.820312 809.101562 1205.789062 C 831.539062 1203.5 835.320312 1173.640625 853.570312 1161.78125 C 872.1875 1170.121094 883.882812 1183.039062 901.601562 1180.320312 C 930.75 1175.859375 930.203125 1139.339844 938.296875 1115.199219" fill="inherit"/></g><g id="change1_10"><path d="M 908.617188 1263.320312 C 887.546875 1288.03125 839.453125 1322.308594 807.804688 1285.269531 C 779.925781 1309.699219 706.320312 1321 680.082031 1280.910156 C 655.25 1315.550781 582.148438 1311.421875 584.503906 1254.96875 C 602.398438 1258.5 596.808594 1279.179688 608.234375 1287.441406 C 643.910156 1304.191406 664.480469 1281.589844 680.605469 1263.28125 C 700.765625 1309.640625 781.777344 1306 806.164062 1267.320312 C 828.953125 1310.191406 881.445312 1283.609375 900.984375 1255.488281 C 906.453125 1255.96875 907.234375 1259.859375 908.617188 1263.320312" fill="inherit"/></g><g id="change1_11"><path d="M 953.289062 1303.460938 C 954.742188 1311.359375 956.914062 1318.699219 953.578125 1330.070312 C 949.414062 1333.96875 941.96875 1333.421875 933.453125 1331.378906 C 936.289062 1324.769531 943.367188 1323.980469 944.789062 1315.429688 C 940.21875 1300.171875 919.460938 1317.210938 913.382812 1303.910156 C 921.75 1291.890625 940.179688 1297.640625 953.289062 1303.460938" fill="inherit"/></g><g id="change1_12"><path d="M 881.726562 1336.609375 C 861.429688 1373.308594 823.914062 1417.101562 770.386719 1383.5 C 746.441406 1400.898438 700.046875 1427.621094 671.589844 1392.480469 C 642.253906 1433.679688 556.007812 1425.898438 565.203125 1364.878906 C 582.832031 1366.058594 577.207031 1399.039062 594.066406 1406.988281 C 627.84375 1413.589844 655.488281 1403.898438 665.964844 1371.691406 C 679.839844 1374.269531 681.328125 1393.941406 697.1875 1398.679688 C 724.527344 1406.851562 749.738281 1383.429688 766.261719 1367.359375 C 814.765625 1410.71875 851.34375 1362.738281 875.570312 1333.441406 C 879.164062 1333.378906 878.984375 1336.058594 881.726562 1336.609375" fill="inherit"/></g><g id="change1_13"><path d="M 462.222656 1286.871094 C 463.050781 1293.269531 458.304688 1292 458.375 1297.339844 C 448.667969 1300.269531 443.46875 1293.121094 436.082031 1298.300781 C 420.21875 1311.421875 434.429688 1336.230469 445.847656 1335.238281 C 450.378906 1333.578125 452.628906 1328.789062 456.167969 1325.769531 C 464.5625 1324.75 459.277344 1333.71875 463.46875 1335.769531 C 420.453125 1381.871094 394.757812 1264.421875 462.222656 1286.871094" fill="inherit"/></g><g id="change1_14"><path d="M 848.304688 1437.679688 C 829.421875 1468.851562 789.484375 1514.160156 748.632812 1466.449219 C 736.742188 1477.628906 731.089844 1504.191406 711.652344 1504.96875 C 694.230469 1505.660156 676.589844 1489.230469 681.433594 1471.5 C 699.351562 1476.488281 691.785156 1492.46875 709.019531 1493.488281 C 729.40625 1494.699219 729.476562 1460.46875 748.488281 1453.128906 C 764.433594 1461.589844 774.167969 1481.578125 800.164062 1476.679688 C 818.71875 1468.691406 823 1427.769531 848.304688 1437.679688" fill="inherit"/></g><g id="change1_15"><path d="M 590.078125 1503.78125 C 591.433594 1494.25 600.0625 1494.730469 603.582031 1488.160156 C 597.722656 1468.398438 577.761719 1491 570.828125 1485.28125 C 583.128906 1438.808594 644.238281 1496.078125 596.234375 1506.941406 C 596.277344 1504.359375 592.582031 1504.5 590.078125 1503.78125" fill="inherit"/></g><g id="change1_16"><path d="M 437.160156 1661.511719 C 432.886719 1655.941406 431.667969 1658.699219 427.03125 1655.511719 C 428.410156 1644.070312 441.191406 1652.609375 437.160156 1661.511719" fill="inherit"/></g><g id="change1_17"><path d="M 437.542969 1630.578125 C 445.269531 1636.230469 434.109375 1645.421875 440.664062 1653.199219 C 430.992188 1647.949219 439.347656 1639.101562 437.542969 1630.578125" fill="inherit"/></g><g id="change4_3"><path d="M 427.03125 1655.511719 C 431.667969 1658.699219 432.886719 1655.941406 437.160156 1661.507812 C 441.1875 1652.609375 428.410156 1644.070312 427.03125 1655.511719 Z M 440.664062 1653.199219 C 434.109375 1645.421875 445.265625 1636.230469 437.542969 1630.582031 C 439.347656 1639.101562 430.992188 1647.949219 440.664062 1653.199219 Z M 596.234375 1506.941406 C 644.238281 1496.082031 583.125 1438.808594 570.828125 1485.28125 C 577.761719 1491 597.722656 1468.402344 603.582031 1488.160156 C 600.0625 1494.730469 591.433594 1494.25 590.078125 1503.78125 C 592.582031 1504.5 596.273438 1504.359375 596.234375 1506.941406 Z M 800.164062 1476.679688 C 774.167969 1481.578125 764.433594 1461.589844 748.488281 1453.128906 C 729.476562 1460.46875 729.40625 1494.699219 709.015625 1493.492188 C 691.785156 1492.46875 699.347656 1476.488281 681.429688 1471.5 C 676.589844 1489.230469 694.230469 1505.660156 711.652344 1504.96875 C 731.085938 1504.191406 736.742188 1477.628906 748.632812 1466.449219 C 789.484375 1514.160156 829.417969 1468.851562 848.304688 1437.679688 C 823 1427.769531 818.714844 1468.691406 800.164062 1476.679688 Z M 463.46875 1335.769531 C 459.277344 1333.71875 464.5625 1324.75 456.167969 1325.769531 C 452.625 1328.789062 450.375 1333.582031 445.84375 1335.238281 C 434.425781 1336.230469 420.21875 1311.421875 436.082031 1298.300781 C 443.46875 1293.121094 448.667969 1300.269531 458.375 1297.339844 C 458.304688 1292 463.050781 1293.269531 462.222656 1286.871094 C 394.757812 1264.421875 420.453125 1381.871094 463.46875 1335.769531 Z M 875.570312 1333.441406 C 851.339844 1362.738281 814.765625 1410.71875 766.261719 1367.359375 C 749.734375 1383.429688 724.527344 1406.851562 697.1875 1398.679688 C 681.328125 1393.941406 679.839844 1374.269531 665.964844 1371.691406 C 655.488281 1403.902344 627.84375 1413.589844 594.0625 1406.988281 C 577.207031 1399.039062 582.832031 1366.0625 565.203125 1364.878906 C 556.007812 1425.898438 642.25 1433.679688 671.585938 1392.480469 C 700.042969 1427.621094 746.441406 1400.898438 770.386719 1383.5 C 823.914062 1417.101562 861.429688 1373.308594 881.722656 1336.609375 C 878.984375 1336.058594 879.164062 1333.378906 875.570312 1333.441406 Z M 913.378906 1303.910156 C 919.457031 1317.210938 940.214844 1300.167969 944.789062 1315.429688 C 943.363281 1323.980469 936.285156 1324.769531 933.453125 1331.378906 C 941.964844 1333.421875 949.414062 1333.96875 953.578125 1330.070312 C 956.914062 1318.699219 954.742188 1311.359375 953.289062 1303.460938 C 940.175781 1297.640625 921.75 1291.890625 913.378906 1303.910156 Z M 900.984375 1255.492188 C 881.445312 1283.609375 828.949219 1310.191406 806.160156 1267.320312 C 781.777344 1306 700.765625 1309.640625 680.605469 1263.28125 C 664.480469 1281.589844 643.910156 1304.191406 608.234375 1287.441406 C 596.808594 1279.179688 602.398438 1258.5 584.503906 1254.96875 C 582.144531 1311.421875 655.25 1315.550781 680.082031 1280.910156 C 706.320312 1321 779.921875 1309.699219 807.800781 1285.269531 C 839.453125 1322.3125 887.542969 1288.03125 908.617188 1263.320312 C 907.230469 1259.859375 906.449219 1255.96875 900.984375 1255.492188 Z M 901.597656 1180.320312 C 883.878906 1183.039062 872.1875 1170.121094 853.570312 1161.78125 C 835.316406 1173.640625 831.535156 1203.5 809.097656 1205.789062 C 779.273438 1208.820312 771.839844 1183.949219 747.617188 1174.082031 C 737.683594 1203.242188 711.285156 1219.050781 681.53125 1214.71875 C 654.167969 1210.738281 643.308594 1187.550781 625.71875 1175.039062 C 613.058594 1205.789062 573.277344 1229.589844 543.820312 1217.648438 C 523.003906 1209.21875 526.9375 1182.339844 508.128906 1176.691406 C 505.175781 1241.550781 600.589844 1239.832031 629.179688 1195.519531 C 660.890625 1237.109375 731.527344 1232.539062 753.910156 1190.550781 C 769.464844 1207.179688 795.988281 1223.800781 821.054688 1214.289062 C 839.457031 1207.28125 842.117188 1183.109375 858.039062 1175.769531 C 900.117188 1216 955.320312 1170.179688 946.609375 1118.679688 C 942.441406 1118.539062 942.214844 1115.519531 938.292969 1115.199219 C 930.199219 1139.339844 930.75 1175.859375 901.597656 1180.320312 Z M 907.695312 1112.628906 C 884.707031 1110.378906 887.582031 1085.109375 869.511719 1073.507812 C 854.464844 1093.121094 838.492188 1120.148438 808.765625 1108.332031 C 794.300781 1102.582031 795.265625 1084.558594 780.710938 1075.191406 C 766.058594 1098.839844 756.285156 1129.152344 720.097656 1123.320312 C 704.855469 1113.359375 707.96875 1090.03125 691.214844 1081.199219 C 681.300781 1117.960938 643.492188 1135.191406 610.34375 1117.308594 C 600.472656 1106 608.664062 1081.5 592.625 1074.71875 C 583.527344 1082.589844 590.097656 1105.339844 595.207031 1114.949219 C 611.066406 1144.789062 649.570312 1137.628906 675.519531 1125.238281 C 679.664062 1116.929688 687.554688 1113.738281 693.679688 1108.148438 C 713.617188 1161.199219 767.890625 1127.871094 783.824219 1097.832031 C 810.878906 1140.160156 847.375 1118.710938 872.96875 1093.960938 C 887.25 1144.230469 956.953125 1119.878906 959.820312 1076.480469 C 956.933594 1076.039062 954.042969 1075.589844 951.164062 1075.128906 C 941.34375 1094.160156 926.179688 1114.46875 907.695312 1112.628906 Z M 468.460938 1033.25 C 468.46875 1026.289062 475.847656 1029.402344 474.789062 1020.960938 C 474.753906 1015.890625 466.59375 1016.742188 464.988281 1012.808594 C 469.476562 992.160156 488.140625 1006.839844 494.96875 990.894531 C 467.40625 970.921875 435.386719 1023.5 468.460938 1033.25 Z M 880.070312 920.191406 C 888.042969 924.371094 891.457031 920.824219 897.027344 925.027344 C 897.039062 918.074219 904.425781 921.167969 903.367188 912.753906 C 895.769531 905.128906 880.660156 904.574219 880.070312 920.191406 Z M 719.835938 868.710938 C 707.546875 866.742188 695.175781 864.648438 695.878906 880.476562 C 714.210938 882.789062 759.890625 882.523438 768.070312 871.773438 C 764.492188 864.722656 732.921875 865.414062 719.835938 868.710938 Z M 860.808594 901.703125 C 865.109375 902.386719 862.644531 908.027344 868.789062 907.355469 C 874.605469 897.847656 889.875 901.265625 890.109375 884.105469 C 876.175781 875.617188 866.375 890.515625 860.808594 901.703125 Z M 862.203125 665.050781 C 819.222656 656.730469 767.046875 667.527344 726.328125 670.488281 C 679.234375 673.902344 608.46875 679.976562 575.945312 698.015625 C 539.585938 718.148438 511.175781 805.375 557.929688 828.035156 C 576.621094 837.078125 620.625 828.246094 637.75 827.160156 C 729.832031 821.289062 863.425781 824.367188 913.40625 777.050781 C 959.316406 733.582031 935.175781 667.234375 869.347656 661.734375 C 869.542969 660.535156 867.992188 659.011719 867.1875 661.398438 C 864.703125 661.488281 863.457031 663.28125 862.203125 665.050781 Z M 1104.773438 87.375 C 1105.191406 96.570312 1083.503906 101.867188 1074.820312 109.277344 C 1073.300781 110.574219 1072.289062 115.871094 1068.800781 119.414062 C 1044.289062 144.355469 1020.917969 183.839844 1018.378906 244.398438 C 1017.71875 260.164062 1022.410156 276.203125 1022.121094 291.460938 C 1025.328125 296.160156 1030.230469 299.597656 1033.410156 304.289062 C 1089.382812 322.777344 1146.980469 324.507812 1193.070312 302.546875 C 1201.121094 338.824219 1166.011719 354.589844 1145.242188 368.175781 C 1099.691406 386.824219 1059.550781 346.238281 1017.050781 352.65625 C 1004.917969 354.484375 959.578125 388.910156 948.9375 406.253906 C 945.441406 411.949219 946.152344 420.8125 943.070312 429.695312 C 927.804688 473.707031 905.109375 517.539062 912.574219 568.84375 C 915.769531 574.171875 918.984375 579.5 928.527344 580.171875 C 970.25 655.21875 1018.621094 735.078125 1004.75 844.394531 C 1032.160156 858.554688 1111.527344 849.023438 1144.972656 839.621094 C 1181.550781 829.332031 1214.164062 804.859375 1240.335938 781.414062 C 1253.703125 769.453125 1265.242188 758.042969 1275.164062 742.554688 C 1286.964844 724.164062 1290.984375 703.464844 1297.554688 684.0625 C 1300.234375 676.152344 1307.679688 669.570312 1312.390625 659.8125 C 1326.9375 629.664062 1346.257812 599.242188 1378.523438 590.394531 C 1381.539062 555.628906 1387.980469 537.226562 1410.554688 526.753906 C 1427.597656 536.046875 1430.296875 555.457031 1423.296875 572.996094 C 1437.398438 598.410156 1454.71875 573.101562 1472.863281 567.429688 C 1505.671875 557.195312 1537.777344 567.3125 1562.285156 590.199219 C 1497.265625 596.867188 1419.664062 593.925781 1373.953125 633.964844 C 1373.101562 651.1875 1386.066406 658.320312 1407.691406 659.128906 C 1388.238281 666.726562 1354.320312 702.003906 1392.464844 714.304688 C 1371.382812 749.183594 1346.636719 771.765625 1315.332031 797.507812 C 1256.1875 846.101562 1177.335938 863.03125 1099.488281 890.105469 C 1077.019531 897.925781 1057.257812 911.089844 1032.417969 908.457031 C 1003.578125 941.90625 1028.9375 982.097656 1031.230469 1030.03125 C 1033.339844 1037.429688 1048.359375 1035.402344 1054 1040.21875 C 1054.167969 1049.582031 1036.550781 1051.949219 1032.667969 1063.449219 C 1028.800781 1074.988281 1035.859375 1099.371094 1040.890625 1124.511719 C 1045.050781 1145.351562 1044.789062 1166.589844 1046.9375 1185.210938 C 1051.4375 1223.929688 1062.179688 1267.0625 1056.890625 1306.289062 C 1055.148438 1319.101562 1050.648438 1329.199219 1049.371094 1340.558594 C 1047.628906 1355.601562 1051.347656 1371.621094 1049.117188 1384.769531 C 1047.609375 1393.609375 1040.078125 1400.628906 1041.089844 1407.878906 C 1043.148438 1422.640625 1075.847656 1431.289062 1070.960938 1443.519531 C 1067.5 1452.769531 1055.617188 1450.480469 1045.507812 1450.621094 C 1029.898438 1467.101562 1041.738281 1493.839844 1042.730469 1525.460938 C 1043.9375 1565.171875 1040.367188 1598.769531 1032.890625 1645.691406 C 1048.570312 1657.628906 1068.980469 1655.160156 1084.5625 1669.21875 C 1098.386719 1681.699219 1107.570312 1703.558594 1098.449219 1722.300781 C 1043.417969 1733.519531 974.261719 1725.378906 913.6875 1728.96875 C 916.753906 1692.429688 925.136719 1659.839844 917.332031 1634.339844 C 894.238281 1629.859375 894.054688 1656.679688 874.042969 1656.402344 C 865.070312 1653.390625 866.035156 1643.109375 856.613281 1640.421875 C 843.03125 1643.667969 832.253906 1650.769531 817.179688 1651.988281 C 807.890625 1687.058594 771.726562 1673.789062 757.136719 1653.730469 C 702.363281 1665.410156 628.828125 1668.148438 567.519531 1677.351562 C 552.804688 1679.570312 533.640625 1670.570312 520.441406 1681.109375 C 529.707031 1694.03125 555.582031 1685.941406 570.160156 1688.828125 C 576.097656 1702.359375 572.335938 1726.679688 566.082031 1743.558594 C 540.058594 1755.949219 509.242188 1752.179688 471.929688 1751.03125 C 416.9375 1749.359375 350.308594 1771.609375 311.792969 1741.628906 C 314.003906 1712.25 328.539062 1687.109375 349.988281 1681.160156 C 381.46875 1672.441406 403.425781 1703.859375 435.101562 1703.261719 C 436.632812 1695.929688 435.34375 1685.519531 427.652344 1679.949219 C 369.792969 1505.109375 366.835938 1290.160156 382.089844 1061.902344 C 383 1054.859375 369.445312 1058.359375 372.976562 1049.398438 C 279.589844 1028.242188 212.992188 981.691406 170.136719 916.027344 C 147.855469 881.917969 131.855469 847.523438 118.582031 806.191406 C 113.226562 789.457031 105.8125 771.410156 104.039062 757.4375 C 100.90625 732.835938 113.75 711.527344 102.640625 695.234375 C 92.140625 679.835938 58.238281 674.390625 45.820312 662.058594 C 26.039062 642.414062 19.539062 623.675781 32.464844 591.355469 C 63.613281 605.511719 67.628906 658.160156 114.355469 648.355469 C 123.496094 611.433594 99.226562 555.089844 136.160156 536.644531 C 163.230469 554.148438 131.871094 582.96875 129.726562 606.484375 C 127.167969 634.40625 147.246094 645.851562 165.214844 662.914062 C 197.621094 657.511719 193.460938 614.726562 219.542969 598.3125 C 265.324219 622.941406 189.4375 649.039062 183.328125 674.59375 C 180.699219 685.574219 180.914062 703.402344 198.074219 707.859375 C 218.707031 713.257812 235.5625 687.164062 260.46875 691.019531 C 266.714844 697.296875 270.117188 705.660156 272.234375 714.964844 C 256.113281 740.242188 204.542969 735.503906 175.261719 726.445312 C 158.457031 801.832031 197.398438 907.535156 272.527344 940.816406 C 282.015625 945 291.550781 955.445312 300.777344 958.484375 C 335.582031 969.980469 367.078125 969.878906 403.855469 978.949219 C 407.699219 878.765625 409.332031 734.632812 475.542969 660.265625 C 477.816406 646.769531 486.773438 642.414062 491.070312 631.683594 C 465.503906 562.1875 427.003906 506.320312 446.859375 403.445312 C 451.035156 381.855469 464.421875 355.390625 475.246094 334.804688 C 478.429688 328.765625 484.5625 322 486.917969 316.691406 C 489.378906 311.191406 486.9375 305.261719 489.28125 301.574219 C 498.722656 286.671875 519.898438 274.375 522.613281 258.046875 C 525.175781 242.496094 508.789062 223.078125 505.078125 199.976562 C 501.792969 179.59375 500.949219 151.757812 505.023438 129.128906 C 518.9375 51.867188 586.730469 15.1875 660.6875 24.957031 C 639.582031 37.136719 621.65625 53.691406 599.261719 64.097656 C 597.78125 69.058594 594.582031 71.683594 594.742188 78.902344 C 546.691406 108.457031 510.363281 212.445312 573.523438 243.835938 C 581.957031 248.019531 592.304688 251.109375 598.445312 254.351562 C 638.195312 275.285156 674.960938 265.949219 712.179688 263.203125 C 679.890625 310.976562 608.332031 326.257812 535.667969 302.136719 C 504.125 411.636719 507.074219 554.785156 552.925781 632.449219 C 561.914062 619.558594 577.917969 609.488281 602.679688 611.410156 C 607.761719 600.886719 614.089844 592.078125 618.535156 580.679688 C 633.246094 580.765625 636.894531 588.964844 642.789062 595.515625 C 662.6875 587.789062 691.1875 591.828125 700.042969 568.996094 C 709.855469 570.132812 709.027344 579.035156 715.648438 582.492188 C 743.96875 576.625 770.882812 583.453125 785.867188 557.996094 C 799.667969 584.785156 813.816406 577.113281 841.875 582.203125 C 858.769531 535.539062 854.175781 487.289062 867.707031 444.542969 C 886.609375 384.859375 928.730469 346.171875 981.167969 327.152344 C 983.734375 285.28125 966.191406 240.25 974.726562 197.769531 C 986.082031 141.113281 1014.789062 92.011719 1076.347656 85.160156 C 1084.476562 84.273438 1093.566406 90.746094 1104.773438 87.375" fill="#a5efb3"/></g><g id="change1_18"><path d="M 779.054688 758.378906 C 768.269531 763.148438 768.542969 772.828125 756.242188 776.972656 C 710.820312 732.308594 643.304688 776.320312 619.320312 817.65625 C 696.261719 818.261719 778.019531 807.011719 852.835938 796.410156 C 845.132812 772.101562 808.125 745.519531 779.054688 758.378906 Z M 649.570312 722.738281 C 654.707031 713.660156 660.976562 695.480469 654.605469 690.320312 C 638.816406 695.789062 617.144531 693.230469 604.035156 702.378906 C 613.789062 717.398438 626.820312 737.730469 649.570312 722.738281 Z M 672.90625 686.53125 C 678.671875 701.269531 664.125 715.25 659.371094 730.890625 C 643.054688 735.019531 636.058594 743.890625 618.445312 737.820312 C 610.1875 734.988281 605.546875 720.660156 597.019531 718.988281 C 567.925781 713.320312 535.964844 783.625 554.464844 807.5625 C 568.996094 814.488281 590.773438 819.707031 606.339844 815.628906 C 632.605469 769.660156 694.339844 724.410156 754.613281 759 C 788.90625 724.308594 837.25 754.78125 868.484375 781.148438 C 901.828125 776.371094 942.617188 693.648438 878.640625 687.53125 C 873.695312 714.160156 856.6875 718.988281 832.53125 713.558594 C 818.039062 705.640625 822.71875 683.691406 812.289062 672.78125 C 760.515625 674.671875 720.5 683.738281 672.90625 686.53125 Z M 829.921875 673.320312 C 827.203125 685.53125 830.890625 693.050781 834.546875 700.601562 C 856.234375 708.300781 870.078125 694.699219 867 676.871094 C 857.8125 670.519531 838.679688 670.578125 829.921875 673.320312 Z M 867.1875 661.398438 C 867.992188 659.011719 869.546875 660.539062 869.351562 661.738281 C 935.179688 667.238281 959.320312 733.578125 913.40625 777.050781 C 863.429688 824.367188 729.832031 821.289062 637.75 827.160156 C 620.625 828.246094 576.621094 837.078125 557.929688 828.035156 C 511.175781 805.375 539.585938 718.148438 575.945312 698.011719 C 608.46875 679.980469 679.234375 673.898438 726.328125 670.488281 C 767.046875 667.519531 819.226562 656.730469 862.203125 665.050781 C 863.460938 663.28125 864.703125 661.480469 867.1875 661.398438" fill="inherit"/></g></g></svg>