<?xml version="1.0" encoding="UTF-8" standalone="no"?><svg xmlns="http://www.w3.org/2000/svg" xmlns:xlink="http://www.w3.org/1999/xlink" fill="#000000" height="1740.5" preserveAspectRatio="xMidYMid meet" version="1" viewBox="-58.7 -19.1 3258.7 1740.5" width="3258.7" zoomAndPan="magnify"><defs><clipPath id="a"><path d="M 2132 225 L 3199.988281 225 L 3199.988281 1721.378906 L 2132 1721.378906 Z M 2132 225"/></clipPath></defs><g><g id="change1_2"><path d="M 415.476562 942.390625 C 357.398438 780.832031 302.898438 614.070312 201.492188 509.191406 C 129.992188 503.625 70.820312 478.207031 39.695312 436.132812 C -58.664062 303.109375 43.367188 84.832031 154.507812 23.8125 C 260.257812 -3.617188 398.113281 -19.140625 472.878906 44.6875 C 549.097656 109.753906 591.410156 284.207031 535.519531 378.722656 C 525.644531 395.410156 469.648438 428.117188 467.660156 446.554688 C 467.804688 445.351562 492.835938 484.519531 498.988281 498.746094 C 561.601562 643.585938 627.472656 792.582031 676.445312 931.953125 C 739.847656 1112.414062 782.253906 1304.234375 812.128906 1490.40625 C 861.035156 1484.53125 895.535156 1417.3125 937.394531 1438.234375 C 913.675781 1476.726562 856.113281 1509.171875 801.707031 1532.148438 C 747.894531 1554.921875 677.695312 1577.3125 619.035156 1584.359375 C 570.722656 1590.171875 486.679688 1596.671875 446.804688 1563.5 C 466.820312 1540.5625 501.738281 1563.546875 535.519531 1558.28125 C 557.160156 1344.96875 484.476562 1134.328125 415.476562 942.390625 M 592.925781 1558.28125 C 651.066406 1548.53125 709.113281 1538.742188 754.738281 1516.515625 C 685.128906 1123.75 573.550781 745.144531 394.585938 436.132812 C 423.910156 387.035156 474.160156 359.261719 488.554688 295.210938 C 504.898438 222.375 478.492188 122.53125 431.113281 81.230469 C 338.613281 0.398438 145.617188 57.867188 86.664062 164.734375 C 26.382812 273.929688 65.476562 495.609375 227.585938 462.226562 C 344.867188 569.980469 401.523438 744.730469 462.460938 911.097656 C 490.488281 987.625 515.679688 1075.734375 540.757812 1161.609375 C 577.160156 1286.351562 601.070312 1410.25 592.925781 1558.28125" fill="inherit" fill-rule="evenodd"/></g><g id="change2_1"><path d="M 540.757812 1161.609375 C 515.679688 1075.734375 490.492188 987.625 462.460938 911.09375 C 401.523438 744.730469 344.867188 569.976562 227.585938 462.21875 C 65.476562 495.613281 26.382812 273.933594 86.664062 164.730469 C 145.617188 57.863281 338.617188 0.394531 431.117188 81.226562 C 478.492188 122.53125 504.898438 222.367188 488.554688 295.210938 C 474.164062 359.257812 423.914062 387.035156 394.585938 436.128906 C 573.554688 745.140625 685.132812 1123.75 754.742188 1516.515625 C 709.117188 1538.742188 651.070312 1548.53125 592.929688 1558.28125 C 601.070312 1410.25 577.164062 1286.351562 540.757812 1161.609375 M 420.695312 196.035156 L 394.585938 196.035156 L 394.585938 227.332031 L 420.695312 227.332031 C 425.382812 212.085938 425.382812 211.324219 420.695312 196.035156 M 337.179688 232.546875 C 329.960938 235.789062 336.414062 252.660156 326.742188 253.453125 C 327.257812 266.882812 347.117188 260.894531 347.617188 274.304688 C 361.351562 275.878906 351.742188 254.085938 368.507812 258.6875 C 361.398438 246.609375 359.351562 229.539062 337.179688 232.546875" fill="#8474ad" fill-rule="evenodd"/></g><g id="change1_3"><path d="M 420.695312 196.03125 L 394.585938 196.03125 L 394.585938 227.328125 L 420.695312 227.328125 C 425.382812 212.089844 425.382812 211.320312 420.695312 196.03125" fill="inherit" fill-rule="evenodd"/></g><g clip-path="url(#a)" id="change1_1"><path d="M 2738.042969 274.296875 C 2776.285156 257.78125 2789.871094 238.921875 2821.554688 232.546875 C 3042.277344 188.203125 3224.246094 372.546875 3197.328125 577.03125 C 3181.703125 696.125 3055.882812 730.742188 2931.179688 702.28125 C 2801.136719 867.773438 2720.453125 1067.015625 2638.878906 1281.625 C 2588.269531 1414.84375 2533.183594 1551.273438 2508.40625 1688.765625 C 2536.816406 1705.4375 2600.539062 1672.234375 2618.011719 1704.390625 C 2555.367188 1745.890625 2434.433594 1697.421875 2372.710938 1704.390625 C 2287.667969 1662.421875 2183.910156 1639.1875 2132.613281 1563.5 C 2177.570312 1544.171875 2212.769531 1612.125 2257.882812 1626.109375 C 2390.871094 1247.601562 2522.582031 867.84375 2738.042969 571.804688 C 2676.378906 506.140625 2677.300781 340.3125 2738.042969 274.296875 M 2310.085938 1647.007812 C 2350.644531 1665.734375 2412.503906 1678.648438 2451.003906 1683.539062 C 2567.636719 1297.34375 2683.9375 910.921875 2915.515625 639.671875 C 3009.941406 697.945312 3124.28125 647.515625 3139.925781 566.617188 C 3161.1875 457.046875 3079.027344 301.78125 2972.9375 279.53125 C 2837.378906 251.109375 2730.386719 304.84375 2743.261719 451.757812 C 2745.128906 472.84375 2755.808594 496.875 2764.152344 514.414062 C 2775.144531 537.4375 2800.980469 557.148438 2800.6875 577.03125 C 2800.351562 600.132812 2736.921875 659.640625 2717.171875 691.875 C 2549.632812 965.242188 2416.234375 1323.390625 2310.085938 1647.007812" fill="inherit" fill-rule="evenodd"/></g><g id="change1_4"><path d="M 337.179688 232.550781 C 329.960938 235.78125 336.414062 252.660156 326.742188 253.441406 C 327.257812 266.871094 347.117188 260.890625 347.617188 274.300781 C 361.351562 275.871094 351.742188 254.089844 368.507812 258.691406 C 361.398438 246.609375 359.351562 229.53125 337.179688 232.550781" fill="inherit" fill-rule="evenodd"/></g><g id="change2_2"><path d="M 2717.1875 691.871094 C 2736.929688 659.636719 2800.367188 600.128906 2800.699219 577.03125 C 2800.96875 557.148438 2775.136719 537.433594 2764.140625 514.410156 C 2755.800781 496.871094 2745.132812 472.839844 2743.273438 451.753906 C 2730.375 304.839844 2837.371094 251.105469 2972.933594 279.527344 C 3079.039062 301.777344 3161.1875 457.046875 3139.933594 566.613281 C 3124.28125 647.511719 3009.957031 697.945312 2915.507812 639.667969 C 2683.945312 910.921875 2567.640625 1297.34375 2451.007812 1683.539062 C 2412.492188 1678.648438 2350.644531 1665.734375 2310.09375 1647.007812 C 2416.234375 1323.386719 2549.644531 965.238281 2717.1875 691.871094 M 2936.375 462.214844 L 2920.726562 462.214844 C 2904.125 483.917969 2932.671875 496.578125 2925.960938 524.855469 C 2960.191406 523.074219 2942.332031 481.496094 2936.375 462.214844 M 2873.773438 503.964844 C 2865.335938 502.464844 2864.773438 508.886719 2858.101562 509.1875 C 2857.578125 525.371094 2864.484375 534.121094 2868.535156 545.714844 C 2880.621094 547.371094 2888.570312 544.871094 2894.640625 540.496094 C 2892.625 523.371094 2879.359375 517.464844 2873.773438 503.964844" fill="#8474ad" fill-rule="evenodd"/></g><g id="change1_5"><path d="M 2936.371094 462.21875 L 2920.714844 462.21875 C 2904.117188 483.925781 2932.664062 496.582031 2925.945312 524.863281 C 2960.179688 523.078125 2942.324219 481.5 2936.371094 462.21875" fill="inherit" fill-rule="evenodd"/></g><g id="change1_6"><path d="M 2873.769531 503.96875 C 2865.316406 502.46875 2864.785156 508.890625 2858.089844 509.1875 C 2857.574219 525.375 2864.464844 534.125 2868.53125 545.71875 C 2880.625 547.375 2888.578125 544.875 2894.636719 540.5 C 2892.609375 523.375 2879.34375 517.46875 2873.769531 503.96875" fill="inherit" fill-rule="evenodd"/></g></g></svg>